<svg xmlns="http://www.w3.org/2000/svg" viewBox="0 0 800 600" width="100%" height="100%" style="background-color: #111827;">
  <path d="M 371.77307,152.74612 L 368.35077,62.244995 L 479.19525,40 L 513.32336,47.129395 L 505.33774,96.942566 L 502.77103,108.15997 L 601.73267,170.80814 L 525.3014,197.42587 L 508.5699,260.45236 L 483.66327,355.61243 L 432.13858,340.4968 L 400.95755,436.98697 L 283.7437,560 L 213.77672,467.50162 L 188.77486,484.32837 L 40,468.8331 L 75.934166,375.95505 L 92.09485,260.07272 L 84.39467,200.75327 L 101.50618,184.49734 L 140.57756,211.87573 L 144.95035,185.82748 L 181.36009,167.38583 L 183.83157,161.58664 L 204.93588,97.60831 L 196.57028,75.17352 L 244.10217,110.347015 L 242.39102,111.01276 L 238.39824,110.347015 L 233.64511,114.90964 L 210.92491,211.20999 L 217.48442,215.77261 L 275.09308,268.9132 L 302.37622,280.79636 L 328.61398,277.84998 L 320.3433,273.38226 L 295.81702,225.18396 L 307.50967,201.22784 L 371.77307,152.74612" fill="none" stroke="#10b981" stroke-width="1.8" stroke-linejoin="round" stroke-linecap="round" />
  <circle cx="371.77" cy="152.75" r="1.5" fill="#ffffff" opacity="0.9" />
  <circle cx="368.35" cy="62.24" r="1.5" fill="#ffffff" opacity="0.9" />
  <circle cx="479.20" cy="40.00" r="1.5" fill="#ffffff" opacity="0.9" />
  <circle cx="513.32" cy="47.13" r="1.5" fill="#ffffff" opacity="0.9" />
  <circle cx="505.34" cy="96.94" r="1.5" fill="#ffffff" opacity="0.9" />
  <circle cx="502.77" cy="108.16" r="1.5" fill="#ffffff" opacity="0.9" />
  <circle cx="601.73" cy="170.81" r="1.5" fill="#ffffff" opacity="0.9" />
  <circle cx="525.30" cy="197.43" r="1.5" fill="#ffffff" opacity="0.9" />
  <circle cx="508.57" cy="260.45" r="1.5" fill="#ffffff" opacity="0.9" />
  <circle cx="483.66" cy="355.61" r="1.5" fill="#ffffff" opacity="0.9" />
  <circle cx="432.14" cy="340.50" r="1.5" fill="#ffffff" opacity="0.9" />
  <circle cx="400.96" cy="436.99" r="1.5" fill="#ffffff" opacity="0.9" />
  <circle cx="283.74" cy="560.00" r="1.5" fill="#ffffff" opacity="0.9" />
  <circle cx="213.78" cy="467.50" r="1.5" fill="#ffffff" opacity="0.9" />
  <circle cx="188.77" cy="484.33" r="1.5" fill="#ffffff" opacity="0.9" />
  <circle cx="40.00" cy="468.83" r="1.5" fill="#ffffff" opacity="0.9" />
  <circle cx="75.93" cy="375.96" r="1.5" fill="#ffffff" opacity="0.9" />
  <circle cx="92.09" cy="260.07" r="1.5" fill="#ffffff" opacity="0.9" />
  <circle cx="84.39" cy="200.75" r="1.5" fill="#ffffff" opacity="0.9" />
  <circle cx="101.51" cy="184.50" r="1.5" fill="#ffffff" opacity="0.9" />
  <circle cx="140.58" cy="211.88" r="1.5" fill="#ffffff" opacity="0.9" />
  <circle cx="144.95" cy="185.83" r="1.5" fill="#ffffff" opacity="0.9" />
  <circle cx="181.36" cy="167.39" r="1.5" fill="#ffffff" opacity="0.9" />
  <circle cx="183.83" cy="161.59" r="1.5" fill="#ffffff" opacity="0.9" />
  <circle cx="204.94" cy="97.61" r="1.5" fill="#ffffff" opacity="0.9" />
  <circle cx="196.57" cy="75.17" r="1.5" fill="#ffffff" opacity="0.9" />
  <circle cx="244.10" cy="110.35" r="1.5" fill="#ffffff" opacity="0.9" />
  <circle cx="242.39" cy="111.01" r="1.5" fill="#ffffff" opacity="0.9" />
  <circle cx="238.40" cy="110.35" r="1.5" fill="#ffffff" opacity="0.9" />
  <circle cx="233.65" cy="114.91" r="1.5" fill="#ffffff" opacity="0.9" />
  <circle cx="210.92" cy="211.21" r="1.5" fill="#ffffff" opacity="0.9" />
  <circle cx="217.48" cy="215.77" r="1.5" fill="#ffffff" opacity="0.9" />
  <circle cx="275.09" cy="268.91" r="1.5" fill="#ffffff" opacity="0.9" />
  <circle cx="302.38" cy="280.80" r="1.5" fill="#ffffff" opacity="0.9" />
  <circle cx="328.61" cy="277.85" r="1.5" fill="#ffffff" opacity="0.9" />
  <circle cx="320.34" cy="273.38" r="1.5" fill="#ffffff" opacity="0.9" />
  <circle cx="295.82" cy="225.18" r="1.5" fill="#ffffff" opacity="0.9" />
  <circle cx="307.51" cy="201.23" r="1.5" fill="#ffffff" opacity="0.9" />
</svg>