<svg xmlns="http://www.w3.org/2000/svg" viewBox="0 0 800 600" width="100%" height="100%" style="background-color: #111827;">
  <path d="M 420.45865,508.71558 L 348.83936,378.77524 L 278.532,315.50458 L 172.38531,353.66968 L 136.6055,323.8532 L 73.39445,332.20178 L 94.862335,251.10089 L 165.22935,240.36697 L 94.862335,192.66052 L 40,40 L 44.770596,42.385376 L 94.862335,82.93579 L 239.17421,128.25684 L 245.13756,123.48627 L 258.25687,223.66974 L 419.26605,226.05502 L 449.08252,272.5688 L 440.73392,302.38535 L 430,350.0917 L 483.15286,329.67737 L 488.16202,303.63763 L 492.2767,318.84406 L 514.3807,333.95102 L 512.2936,376.33026 L 497.98163,420.45874 L 462.2018,427.6147 L 497.98163,515.8715 L 500.36685,520.6422 L 493.2109,560 L 420.45865,508.71558" fill="none" stroke="#10b981" stroke-width="1.8" stroke-linejoin="round" stroke-linecap="round" />
  <circle cx="420.46" cy="508.72" r="1.5" fill="#ffffff" opacity="0.9" />
  <circle cx="348.84" cy="378.78" r="1.5" fill="#ffffff" opacity="0.9" />
  <circle cx="278.53" cy="315.50" r="1.5" fill="#ffffff" opacity="0.9" />
  <circle cx="172.39" cy="353.67" r="1.5" fill="#ffffff" opacity="0.9" />
  <circle cx="136.61" cy="323.85" r="1.5" fill="#ffffff" opacity="0.9" />
  <circle cx="73.39" cy="332.20" r="1.5" fill="#ffffff" opacity="0.9" />
  <circle cx="94.86" cy="251.10" r="1.5" fill="#ffffff" opacity="0.9" />
  <circle cx="165.23" cy="240.37" r="1.5" fill="#ffffff" opacity="0.9" />
  <circle cx="94.86" cy="192.66" r="1.5" fill="#ffffff" opacity="0.9" />
  <circle cx="40.00" cy="40.00" r="1.5" fill="#ffffff" opacity="0.9" />
  <circle cx="44.77" cy="42.39" r="1.5" fill="#ffffff" opacity="0.9" />
  <circle cx="94.86" cy="82.94" r="1.5" fill="#ffffff" opacity="0.9" />
  <circle cx="239.17" cy="128.26" r="1.5" fill="#ffffff" opacity="0.9" />
  <circle cx="245.14" cy="123.49" r="1.5" fill="#ffffff" opacity="0.9" />
  <circle cx="258.26" cy="223.67" r="1.5" fill="#ffffff" opacity="0.9" />
  <circle cx="419.27" cy="226.06" r="1.5" fill="#ffffff" opacity="0.9" />
  <circle cx="449.08" cy="272.57" r="1.5" fill="#ffffff" opacity="0.9" />
  <circle cx="440.73" cy="302.39" r="1.5" fill="#ffffff" opacity="0.9" />
  <circle cx="430.00" cy="350.09" r="1.5" fill="#ffffff" opacity="0.9" />
  <circle cx="483.15" cy="329.68" r="1.5" fill="#ffffff" opacity="0.9" />
  <circle cx="488.16" cy="303.64" r="1.5" fill="#ffffff" opacity="0.9" />
  <circle cx="492.28" cy="318.84" r="1.5" fill="#ffffff" opacity="0.9" />
  <circle cx="514.38" cy="333.95" r="1.5" fill="#ffffff" opacity="0.9" />
  <circle cx="512.29" cy="376.33" r="1.5" fill="#ffffff" opacity="0.9" />
  <circle cx="497.98" cy="420.46" r="1.5" fill="#ffffff" opacity="0.9" />
  <circle cx="462.20" cy="427.61" r="1.5" fill="#ffffff" opacity="0.9" />
  <circle cx="497.98" cy="515.87" r="1.5" fill="#ffffff" opacity="0.9" />
  <circle cx="500.37" cy="520.64" r="1.5" fill="#ffffff" opacity="0.9" />
  <circle cx="493.21" cy="560.00" r="1.5" fill="#ffffff" opacity="0.9" />
</svg>