<svg xmlns="http://www.w3.org/2000/svg" viewBox="0 0 800 600" width="100%" height="100%" style="background-color: #111827;">
  <path d="M 315.47464,154.99167 L 314.9039,159.41321 L 317.18588,159.41321 L 316.901,163.97919 L 313.61996,165.40555 L 314.76144,166.26218 L 316.18784,165.83286 L 316.4727,166.26218 L 318.61325,168.83005 L 319.46887,172.68185 L 316.18784,181.24005 L 313.7624,176.96094 L 312.1936,170.25641 L 308.3418,171.54034 L 304.63245,174.96283 L 308.3418,180.38544 L 306.20123,191.94083 L 290.22333,185.6636 L 283.94708,208.20264 L 294.0751,207.77533 L 293.93268,219.90045 L 277.5274,237.73306 L 279.3821,245.5791 L 289.08282,268.97675 L 290.22333,270.688 L 301.20895,235.30765 L 312.6209,211.34222 L 319.184,222.18344 L 323.749,237.59064 L 337.0156,260.27408 L 353.5643,268.83432 L 344.14844,289.37723 L 355.98972,295.79688 L 363.26498,288.80548 L 391.79736,327.181 L 431.45584,315.76804 L 442.44147,283.81216 L 405.064,277.53494 L 414.7647,253.99686 L 421.1844,248.29138 L 417.476,243.2981 L 422.041,234.59546 L 410.4856,236.02182 L 395.64917,246.00839 L 383.38058,232.73978 L 374.67795,221.89856 L 373.10913,223.1825 L 361.55374,215.90622 L 342.57965,221.89856 L 331.1667,214.90915 L 336.30243,198.78778 L 333.87698,185.6636 L 326.8876,179.38638 L 334.87607,179.38638 L 344.86264,179.52881 L 383.38058,205.065 L 424.7513,190.94177 L 460.41653,191.22662 L 464.41077,190.37003 L 482.6707,196.07748 L 500.9316,209.05923 L 488.9479,206.77625 L 451.71387,217.61948 L 451.57144,218.33163 L 446.0074,230.45877 L 449.5743,241.15756 L 503.07114,249.00357 L 521.7594,199.35754 L 520.47546,180.38544 L 529.1781,139.86935 L 533.0299,136.30243 L 546.5824,158.9859 L 565.8414,191.94083 L 569.4073,209.20169 L 554.9992,209.48654 L 558.70856,236.87845 L 576.6836,229.88702 L 609.6375,286.66492 L 650.7233,279.2482 L 665.7022,294.6554 L 682.96405,288.9479 L 674.40485,271.68704 L 657.9986,260.55896 L 646.0159,266.83618 L 617.0562,257.9911 L 625.3296,241.7273 L 609.6375,213.48077 L 600.2217,201.21323 L 654.4327,205.77719 L 674.26245,234.73788 L 693.9487,251.71387 L 691.38086,268.97675 L 708.6427,287.3791 L 711.0681,277.82184 L 722.9084,254.42416 L 751.29834,286.09515 L 738.3156,314.48413 L 746.30505,325.75464 L 751.29834,328.8922 L 742.73816,328.8922 L 722.4811,326.0395 L 717.34534,307.35226 L 708.5003,311.7738 L 700.0835,337.31 L 699.94104,354.57086 L 700.0835,355.99725 L 699.94104,380.2495 L 708.78516,370.40738 L 725.76215,364.55746 L 722.1952,354.42844 L 734.0365,357.4256 L 746.30505,353.28693 L 760,384.67307 L 721.19714,397.2275 L 707.9295,410.92145 L 687.2442,397.2275 L 661.4231,389.0946 L 661.1372,401.50662 L 657.143,405.92816 L 631.46436,440.16702 L 605.7857,423.04858 L 593.802,417.62598 L 555.4275,480.82553 L 540.5901,438.02646 L 537.30896,414.48837 L 537.7373,410.49414 L 562.2745,430.038 L 567.69604,428.32675 L 584.3872,409.06775 L 597.2265,403.07544 L 614.3449,405.92816 L 609.2092,397.36993 L 588.66626,371.69128 L 592.2332,361.84717 L 604.6442,334.45728 L 614.91565,334.59973 L 622.7617,345.0136 L 633.6039,336.59583 L 621.6212,326.4668 L 617.3411,307.4947 L 595.3718,314.19922 L 526.7527,306.21075 L 511.7738,350.57666 L 469.9738,362.4169 L 456.99203,358.70953 L 482.24338,392.80396 L 460.7014,461.27966 L 443.15466,451.86484 L 426.46353,450.1536 L 423.46738,457.99963 L 416.04865,471.55112 L 397.50385,461.56656 L 401.06976,478.68497 L 423.46738,518.9142 L 389.9427,550.15784 L 384.66452,546.16364 L 331.87988,560 L 279.23865,539.17224 L 330.45352,500.0845 L 306.20123,456.0015 L 322.60748,439.3104 L 329.45544,438.5982 L 377.10336,402.64813 L 374.67795,346.01266 L 358.5576,323.89893 L 343.43527,351.14838 L 289.51013,335.88367 L 284.3744,350.57666 L 252.56197,326.7537 L 258.5533,301.78723 L 185.08432,298.79205 L 231.87662,328.0376 L 250.56485,356.1417 L 255.98546,395.79913 L 204.05742,400.3651 L 174.38455,419.90897 L 40,522.3387 L 120.17453,350.29175 L 45.4206,331.31766 L 80.515076,237.44818 L 167.25171,158.2717 L 220.60611,174.8204 L 222.31834,172.25253 L 246.71306,163.97919 L 255.4147,128.45639 L 277.81232,122.17917 L 298.92596,152.99356 L 299.63913,157.84439 L 299.63913,165.26312 L 305.77393,160.12738 L 308.19836,166.54706 L 310.90967,166.11975 L 312.1936,162.1235 L 311.62283,158.84348 L 315.47464,154.99167" fill="none" stroke="#10b981" stroke-width="1.8" stroke-linejoin="round" stroke-linecap="round" />
  <circle cx="315.47" cy="154.99" r="1.5" fill="#ffffff" opacity="0.9" />
  <circle cx="314.90" cy="159.41" r="1.5" fill="#ffffff" opacity="0.9" />
  <circle cx="317.19" cy="159.41" r="1.5" fill="#ffffff" opacity="0.9" />
  <circle cx="316.90" cy="163.98" r="1.5" fill="#ffffff" opacity="0.9" />
  <circle cx="313.62" cy="165.41" r="1.5" fill="#ffffff" opacity="0.9" />
  <circle cx="314.76" cy="166.26" r="1.5" fill="#ffffff" opacity="0.9" />
  <circle cx="316.19" cy="165.83" r="1.5" fill="#ffffff" opacity="0.9" />
  <circle cx="316.47" cy="166.26" r="1.5" fill="#ffffff" opacity="0.9" />
  <circle cx="318.61" cy="168.83" r="1.5" fill="#ffffff" opacity="0.9" />
  <circle cx="319.47" cy="172.68" r="1.5" fill="#ffffff" opacity="0.9" />
  <circle cx="316.19" cy="181.24" r="1.5" fill="#ffffff" opacity="0.9" />
  <circle cx="313.76" cy="176.96" r="1.5" fill="#ffffff" opacity="0.9" />
  <circle cx="312.19" cy="170.26" r="1.5" fill="#ffffff" opacity="0.9" />
  <circle cx="308.34" cy="171.54" r="1.5" fill="#ffffff" opacity="0.9" />
  <circle cx="304.63" cy="174.96" r="1.5" fill="#ffffff" opacity="0.9" />
  <circle cx="308.34" cy="180.39" r="1.5" fill="#ffffff" opacity="0.9" />
  <circle cx="306.20" cy="191.94" r="1.5" fill="#ffffff" opacity="0.9" />
  <circle cx="290.22" cy="185.66" r="1.5" fill="#ffffff" opacity="0.9" />
  <circle cx="283.95" cy="208.20" r="1.5" fill="#ffffff" opacity="0.9" />
  <circle cx="294.08" cy="207.78" r="1.5" fill="#ffffff" opacity="0.9" />
  <circle cx="293.93" cy="219.90" r="1.5" fill="#ffffff" opacity="0.9" />
  <circle cx="277.53" cy="237.73" r="1.5" fill="#ffffff" opacity="0.9" />
  <circle cx="279.38" cy="245.58" r="1.5" fill="#ffffff" opacity="0.9" />
  <circle cx="289.08" cy="268.98" r="1.5" fill="#ffffff" opacity="0.9" />
  <circle cx="290.22" cy="270.69" r="1.5" fill="#ffffff" opacity="0.9" />
  <circle cx="301.21" cy="235.31" r="1.5" fill="#ffffff" opacity="0.9" />
  <circle cx="312.62" cy="211.34" r="1.5" fill="#ffffff" opacity="0.9" />
  <circle cx="319.18" cy="222.18" r="1.5" fill="#ffffff" opacity="0.9" />
  <circle cx="323.75" cy="237.59" r="1.5" fill="#ffffff" opacity="0.9" />
  <circle cx="337.02" cy="260.27" r="1.5" fill="#ffffff" opacity="0.9" />
  <circle cx="353.56" cy="268.83" r="1.5" fill="#ffffff" opacity="0.9" />
  <circle cx="344.15" cy="289.38" r="1.5" fill="#ffffff" opacity="0.9" />
  <circle cx="355.99" cy="295.80" r="1.5" fill="#ffffff" opacity="0.9" />
  <circle cx="363.26" cy="288.81" r="1.5" fill="#ffffff" opacity="0.9" />
  <circle cx="391.80" cy="327.18" r="1.5" fill="#ffffff" opacity="0.9" />
  <circle cx="431.46" cy="315.77" r="1.5" fill="#ffffff" opacity="0.9" />
  <circle cx="442.44" cy="283.81" r="1.5" fill="#ffffff" opacity="0.9" />
  <circle cx="405.06" cy="277.53" r="1.5" fill="#ffffff" opacity="0.9" />
  <circle cx="414.76" cy="254.00" r="1.5" fill="#ffffff" opacity="0.9" />
  <circle cx="421.18" cy="248.29" r="1.5" fill="#ffffff" opacity="0.9" />
  <circle cx="417.48" cy="243.30" r="1.5" fill="#ffffff" opacity="0.9" />
  <circle cx="422.04" cy="234.60" r="1.5" fill="#ffffff" opacity="0.9" />
  <circle cx="410.49" cy="236.02" r="1.5" fill="#ffffff" opacity="0.9" />
  <circle cx="395.65" cy="246.01" r="1.5" fill="#ffffff" opacity="0.9" />
  <circle cx="383.38" cy="232.74" r="1.5" fill="#ffffff" opacity="0.9" />
  <circle cx="374.68" cy="221.90" r="1.5" fill="#ffffff" opacity="0.9" />
  <circle cx="373.11" cy="223.18" r="1.5" fill="#ffffff" opacity="0.9" />
  <circle cx="361.55" cy="215.91" r="1.5" fill="#ffffff" opacity="0.9" />
  <circle cx="342.58" cy="221.90" r="1.5" fill="#ffffff" opacity="0.9" />
  <circle cx="331.17" cy="214.91" r="1.5" fill="#ffffff" opacity="0.9" />
  <circle cx="336.30" cy="198.79" r="1.5" fill="#ffffff" opacity="0.9" />
  <circle cx="333.88" cy="185.66" r="1.5" fill="#ffffff" opacity="0.9" />
  <circle cx="326.89" cy="179.39" r="1.5" fill="#ffffff" opacity="0.9" />
  <circle cx="334.88" cy="179.39" r="1.5" fill="#ffffff" opacity="0.9" />
  <circle cx="344.86" cy="179.53" r="1.5" fill="#ffffff" opacity="0.9" />
  <circle cx="383.38" cy="205.07" r="1.5" fill="#ffffff" opacity="0.9" />
  <circle cx="424.75" cy="190.94" r="1.5" fill="#ffffff" opacity="0.9" />
  <circle cx="460.42" cy="191.23" r="1.5" fill="#ffffff" opacity="0.9" />
  <circle cx="464.41" cy="190.37" r="1.5" fill="#ffffff" opacity="0.9" />
  <circle cx="482.67" cy="196.08" r="1.5" fill="#ffffff" opacity="0.9" />
  <circle cx="500.93" cy="209.06" r="1.5" fill="#ffffff" opacity="0.9" />
  <circle cx="488.95" cy="206.78" r="1.5" fill="#ffffff" opacity="0.9" />
  <circle cx="451.71" cy="217.62" r="1.5" fill="#ffffff" opacity="0.9" />
  <circle cx="451.57" cy="218.33" r="1.5" fill="#ffffff" opacity="0.9" />
  <circle cx="446.01" cy="230.46" r="1.5" fill="#ffffff" opacity="0.9" />
  <circle cx="449.57" cy="241.16" r="1.5" fill="#ffffff" opacity="0.9" />
  <circle cx="503.07" cy="249.00" r="1.5" fill="#ffffff" opacity="0.9" />
  <circle cx="521.76" cy="199.36" r="1.5" fill="#ffffff" opacity="0.9" />
  <circle cx="520.48" cy="180.39" r="1.5" fill="#ffffff" opacity="0.9" />
  <circle cx="529.18" cy="139.87" r="1.5" fill="#ffffff" opacity="0.9" />
  <circle cx="533.03" cy="136.30" r="1.5" fill="#ffffff" opacity="0.9" />
  <circle cx="546.58" cy="158.99" r="1.5" fill="#ffffff" opacity="0.9" />
  <circle cx="565.84" cy="191.94" r="1.5" fill="#ffffff" opacity="0.9" />
  <circle cx="569.41" cy="209.20" r="1.5" fill="#ffffff" opacity="0.9" />
  <circle cx="555.00" cy="209.49" r="1.5" fill="#ffffff" opacity="0.9" />
  <circle cx="558.71" cy="236.88" r="1.5" fill="#ffffff" opacity="0.9" />
  <circle cx="576.68" cy="229.89" r="1.5" fill="#ffffff" opacity="0.9" />
  <circle cx="609.64" cy="286.66" r="1.5" fill="#ffffff" opacity="0.9" />
  <circle cx="650.72" cy="279.25" r="1.5" fill="#ffffff" opacity="0.9" />
  <circle cx="665.70" cy="294.66" r="1.5" fill="#ffffff" opacity="0.9" />
  <circle cx="682.96" cy="288.95" r="1.5" fill="#ffffff" opacity="0.9" />
  <circle cx="674.40" cy="271.69" r="1.5" fill="#ffffff" opacity="0.9" />
  <circle cx="658.00" cy="260.56" r="1.5" fill="#ffffff" opacity="0.9" />
  <circle cx="646.02" cy="266.84" r="1.5" fill="#ffffff" opacity="0.9" />
  <circle cx="617.06" cy="257.99" r="1.5" fill="#ffffff" opacity="0.9" />
  <circle cx="625.33" cy="241.73" r="1.5" fill="#ffffff" opacity="0.9" />
  <circle cx="609.64" cy="213.48" r="1.5" fill="#ffffff" opacity="0.9" />
  <circle cx="600.22" cy="201.21" r="1.5" fill="#ffffff" opacity="0.9" />
  <circle cx="654.43" cy="205.78" r="1.5" fill="#ffffff" opacity="0.9" />
  <circle cx="674.26" cy="234.74" r="1.5" fill="#ffffff" opacity="0.9" />
  <circle cx="693.95" cy="251.71" r="1.5" fill="#ffffff" opacity="0.9" />
  <circle cx="691.38" cy="268.98" r="1.5" fill="#ffffff" opacity="0.9" />
  <circle cx="708.64" cy="287.38" r="1.5" fill="#ffffff" opacity="0.9" />
  <circle cx="711.07" cy="277.82" r="1.5" fill="#ffffff" opacity="0.9" />
  <circle cx="722.91" cy="254.42" r="1.5" fill="#ffffff" opacity="0.9" />
  <circle cx="751.30" cy="286.10" r="1.5" fill="#ffffff" opacity="0.9" />
  <circle cx="738.32" cy="314.48" r="1.5" fill="#ffffff" opacity="0.9" />
  <circle cx="746.31" cy="325.75" r="1.5" fill="#ffffff" opacity="0.9" />
  <circle cx="751.30" cy="328.89" r="1.5" fill="#ffffff" opacity="0.9" />
  <circle cx="742.74" cy="328.89" r="1.5" fill="#ffffff" opacity="0.9" />
  <circle cx="722.48" cy="326.04" r="1.5" fill="#ffffff" opacity="0.9" />
  <circle cx="717.35" cy="307.35" r="1.5" fill="#ffffff" opacity="0.9" />
  <circle cx="708.50" cy="311.77" r="1.5" fill="#ffffff" opacity="0.9" />
  <circle cx="700.08" cy="337.31" r="1.5" fill="#ffffff" opacity="0.9" />
  <circle cx="699.94" cy="354.57" r="1.5" fill="#ffffff" opacity="0.9" />
  <circle cx="700.08" cy="356.00" r="1.5" fill="#ffffff" opacity="0.9" />
  <circle cx="699.94" cy="380.25" r="1.5" fill="#ffffff" opacity="0.9" />
  <circle cx="708.79" cy="370.41" r="1.5" fill="#ffffff" opacity="0.9" />
  <circle cx="725.76" cy="364.56" r="1.5" fill="#ffffff" opacity="0.9" />
  <circle cx="722.20" cy="354.43" r="1.5" fill="#ffffff" opacity="0.9" />
  <circle cx="734.04" cy="357.43" r="1.5" fill="#ffffff" opacity="0.9" />
  <circle cx="746.31" cy="353.29" r="1.5" fill="#ffffff" opacity="0.9" />
  <circle cx="760.00" cy="384.67" r="1.5" fill="#ffffff" opacity="0.9" />
  <circle cx="721.20" cy="397.23" r="1.5" fill="#ffffff" opacity="0.9" />
  <circle cx="707.93" cy="410.92" r="1.5" fill="#ffffff" opacity="0.9" />
  <circle cx="687.24" cy="397.23" r="1.5" fill="#ffffff" opacity="0.9" />
  <circle cx="661.42" cy="389.09" r="1.5" fill="#ffffff" opacity="0.9" />
  <circle cx="661.14" cy="401.51" r="1.5" fill="#ffffff" opacity="0.9" />
  <circle cx="657.14" cy="405.93" r="1.5" fill="#ffffff" opacity="0.9" />
  <circle cx="631.46" cy="440.17" r="1.5" fill="#ffffff" opacity="0.9" />
  <circle cx="605.79" cy="423.05" r="1.5" fill="#ffffff" opacity="0.9" />
  <circle cx="593.80" cy="417.63" r="1.5" fill="#ffffff" opacity="0.9" />
  <circle cx="555.43" cy="480.83" r="1.5" fill="#ffffff" opacity="0.9" />
  <circle cx="540.59" cy="438.03" r="1.5" fill="#ffffff" opacity="0.9" />
  <circle cx="537.31" cy="414.49" r="1.5" fill="#ffffff" opacity="0.9" />
  <circle cx="537.74" cy="410.49" r="1.5" fill="#ffffff" opacity="0.9" />
  <circle cx="562.27" cy="430.04" r="1.5" fill="#ffffff" opacity="0.9" />
  <circle cx="567.70" cy="428.33" r="1.5" fill="#ffffff" opacity="0.9" />
  <circle cx="584.39" cy="409.07" r="1.5" fill="#ffffff" opacity="0.9" />
  <circle cx="597.23" cy="403.08" r="1.5" fill="#ffffff" opacity="0.9" />
  <circle cx="614.34" cy="405.93" r="1.5" fill="#ffffff" opacity="0.9" />
  <circle cx="609.21" cy="397.37" r="1.5" fill="#ffffff" opacity="0.9" />
  <circle cx="588.67" cy="371.69" r="1.5" fill="#ffffff" opacity="0.9" />
  <circle cx="592.23" cy="361.85" r="1.5" fill="#ffffff" opacity="0.9" />
  <circle cx="604.64" cy="334.46" r="1.5" fill="#ffffff" opacity="0.9" />
  <circle cx="614.92" cy="334.60" r="1.5" fill="#ffffff" opacity="0.9" />
  <circle cx="622.76" cy="345.01" r="1.5" fill="#ffffff" opacity="0.9" />
  <circle cx="633.60" cy="336.60" r="1.5" fill="#ffffff" opacity="0.9" />
  <circle cx="621.62" cy="326.47" r="1.5" fill="#ffffff" opacity="0.9" />
  <circle cx="617.34" cy="307.49" r="1.5" fill="#ffffff" opacity="0.9" />
  <circle cx="595.37" cy="314.20" r="1.5" fill="#ffffff" opacity="0.9" />
  <circle cx="526.75" cy="306.21" r="1.5" fill="#ffffff" opacity="0.9" />
  <circle cx="511.77" cy="350.58" r="1.5" fill="#ffffff" opacity="0.9" />
  <circle cx="469.97" cy="362.42" r="1.5" fill="#ffffff" opacity="0.9" />
  <circle cx="456.99" cy="358.71" r="1.5" fill="#ffffff" opacity="0.9" />
  <circle cx="482.24" cy="392.80" r="1.5" fill="#ffffff" opacity="0.9" />
  <circle cx="460.70" cy="461.28" r="1.5" fill="#ffffff" opacity="0.9" />
  <circle cx="443.15" cy="451.86" r="1.5" fill="#ffffff" opacity="0.9" />
  <circle cx="426.46" cy="450.15" r="1.5" fill="#ffffff" opacity="0.9" />
  <circle cx="423.47" cy="458.00" r="1.5" fill="#ffffff" opacity="0.9" />
  <circle cx="416.05" cy="471.55" r="1.5" fill="#ffffff" opacity="0.9" />
  <circle cx="397.50" cy="461.57" r="1.5" fill="#ffffff" opacity="0.9" />
  <circle cx="401.07" cy="478.68" r="1.5" fill="#ffffff" opacity="0.9" />
  <circle cx="423.47" cy="518.91" r="1.5" fill="#ffffff" opacity="0.9" />
  <circle cx="389.94" cy="550.16" r="1.5" fill="#ffffff" opacity="0.9" />
  <circle cx="384.66" cy="546.16" r="1.5" fill="#ffffff" opacity="0.9" />
  <circle cx="331.88" cy="560.00" r="1.5" fill="#ffffff" opacity="0.9" />
  <circle cx="279.24" cy="539.17" r="1.5" fill="#ffffff" opacity="0.9" />
  <circle cx="330.45" cy="500.08" r="1.5" fill="#ffffff" opacity="0.9" />
  <circle cx="306.20" cy="456.00" r="1.5" fill="#ffffff" opacity="0.9" />
  <circle cx="322.61" cy="439.31" r="1.5" fill="#ffffff" opacity="0.9" />
  <circle cx="329.46" cy="438.60" r="1.5" fill="#ffffff" opacity="0.9" />
  <circle cx="377.10" cy="402.65" r="1.5" fill="#ffffff" opacity="0.9" />
  <circle cx="374.68" cy="346.01" r="1.5" fill="#ffffff" opacity="0.9" />
  <circle cx="358.56" cy="323.90" r="1.5" fill="#ffffff" opacity="0.9" />
  <circle cx="343.44" cy="351.15" r="1.5" fill="#ffffff" opacity="0.9" />
  <circle cx="289.51" cy="335.88" r="1.5" fill="#ffffff" opacity="0.9" />
  <circle cx="284.37" cy="350.58" r="1.5" fill="#ffffff" opacity="0.9" />
  <circle cx="252.56" cy="326.75" r="1.5" fill="#ffffff" opacity="0.9" />
  <circle cx="258.55" cy="301.79" r="1.5" fill="#ffffff" opacity="0.9" />
  <circle cx="185.08" cy="298.79" r="1.5" fill="#ffffff" opacity="0.9" />
  <circle cx="231.88" cy="328.04" r="1.5" fill="#ffffff" opacity="0.9" />
  <circle cx="250.56" cy="356.14" r="1.5" fill="#ffffff" opacity="0.9" />
  <circle cx="255.99" cy="395.80" r="1.5" fill="#ffffff" opacity="0.9" />
  <circle cx="204.06" cy="400.37" r="1.5" fill="#ffffff" opacity="0.9" />
  <circle cx="174.38" cy="419.91" r="1.5" fill="#ffffff" opacity="0.9" />
  <circle cx="40.00" cy="522.34" r="1.5" fill="#ffffff" opacity="0.9" />
  <circle cx="120.17" cy="350.29" r="1.5" fill="#ffffff" opacity="0.9" />
  <circle cx="45.42" cy="331.32" r="1.5" fill="#ffffff" opacity="0.9" />
  <circle cx="80.52" cy="237.45" r="1.5" fill="#ffffff" opacity="0.9" />
  <circle cx="167.25" cy="158.27" r="1.5" fill="#ffffff" opacity="0.9" />
  <circle cx="220.61" cy="174.82" r="1.5" fill="#ffffff" opacity="0.9" />
  <circle cx="222.32" cy="172.25" r="1.5" fill="#ffffff" opacity="0.9" />
  <circle cx="246.71" cy="163.98" r="1.5" fill="#ffffff" opacity="0.9" />
  <circle cx="255.41" cy="128.46" r="1.5" fill="#ffffff" opacity="0.9" />
  <circle cx="277.81" cy="122.18" r="1.5" fill="#ffffff" opacity="0.9" />
  <circle cx="298.93" cy="152.99" r="1.5" fill="#ffffff" opacity="0.9" />
  <circle cx="299.64" cy="157.84" r="1.5" fill="#ffffff" opacity="0.9" />
  <circle cx="299.64" cy="165.26" r="1.5" fill="#ffffff" opacity="0.9" />
  <circle cx="305.77" cy="160.13" r="1.5" fill="#ffffff" opacity="0.9" />
  <circle cx="308.20" cy="166.55" r="1.5" fill="#ffffff" opacity="0.9" />
  <circle cx="310.91" cy="166.12" r="1.5" fill="#ffffff" opacity="0.9" />
  <circle cx="312.19" cy="162.12" r="1.5" fill="#ffffff" opacity="0.9" />
  <circle cx="311.62" cy="158.84" r="1.5" fill="#ffffff" opacity="0.9" />
</svg>