<svg xmlns="http://www.w3.org/2000/svg" viewBox="0 0 800 600" width="100%" height="100%" style="background-color: #111827;">
  <path d="M 471.9215,256.808 L 478.6969,256.808 L 478.6969,260.19553 L 486.09314,257.37253 L 487.1658,255.11407 L 487.1658,253.42014 L 492.86853,259.91327 L 500.54706,263.30075 L 503.93454,263.49844 L 506.7861,263.2444 L 510.37128,262.87756 L 510.62537,263.86526 L 514.2669,261.88947 L 514.2669,263.583 L 515.9608,266.9709 L 517.17444,271.43103 L 520.16693,268.24124 L 521.0423,268.66443 L 522.73584,270.35837 L 521.43726,272.02414 L 519.3484,273.74588 L 517.6544,273.74588 L 519.3484,277.13376 L 515.9608,275.43982 L 514.5774,276.87967 L 508.39508,275.6093 L 505.65668,278.15005 L 498.7122,279.2227 L 493.9412,272.0523 L 478.6969,268.66443 L 478.6687,277.55695 L 483.52426,281.8198 L 477.00296,287.29663 L 463.4526,288.99017 L 458.37115,292.37805 L 438.04544,297.45947 L 427.88257,300.847 L 426.18863,317.78522 L 432.964,319.47876 L 436.3515,321.1727 L 419.41367,331.33557 L 414.3322,331.33557 L 387.2311,319.47876 L 380.45575,329.6416 L 378.7622,324.56018 L 373.68076,322.86664 L 366.9054,324.56018 L 366.9054,322.86664 L 349.96716,316.09125 L 331.33536,307.62234 L 338.11075,300.847 L 339.8043,288.99017 L 343.19217,287.29663 L 356.74252,283.90872 L 339.8043,266.9709 L 336.4168,236.4823 L 333.0293,236.4823 L 317.785,238.17584 L 312.70358,233.09442 L 314.39713,241.56372 L 311.00964,243.25726 L 292.37766,236.4823 L 278.8273,250.03265 L 273.74585,250.03265 L 272.05194,251.7266 L 272.05194,268.66443 L 277.13336,268.66443 L 294.0716,250.03265 L 314.39713,266.9709 L 321.17252,272.0523 L 321.17252,277.13376 L 317.785,294.0716 L 309.3157,295.76553 L 311.00964,305.9284 L 292.37766,302.54092 L 280.52106,282.21518 L 275.43964,282.21518 L 263.583,288.99017 L 256.80762,295.76553 L 263.583,297.45947 L 265.27673,302.54092 L 255.11389,311.00983 L 253.42014,312.7038 L 251.7262,326.25415 L 238.17584,321.1727 L 233.0944,319.47876 L 228.01299,317.78522 L 233.0944,307.62234 L 246.64476,290.6841 L 251.7262,283.90872 L 248.33871,278.8273 L 244.95102,273.74588 L 236.4819,250.03265 L 253.42014,234.78836 L 255.11389,233.09442 L 265.27673,229.70691 L 268.66443,216.15659 L 270.3582,212.76868 L 294.0716,209.3812 L 287.2962,195.83084 L 299.153,195.83084 L 319.47855,204.29977 L 311.00964,178.89261 L 324.56,172.11722 L 334.72284,183.97403 L 351.6611,205.99371 L 353.35504,216.15659 L 365.21146,238.17584 L 368.59933,236.4823 L 373.31354,234.732 L 370.29288,243.25726 L 361.82394,250.03265 L 380.45575,270.35837 L 383.84363,244.95123 L 380.45575,236.4823 L 392.31256,250.03265 L 405.8629,251.7266 L 407.55685,238.17584 L 421.1072,239.86978 L 416.02576,255.11407 L 426.18863,260.19553 L 438.04544,265.27695 L 442.6751,263.83707 L 439.73938,255.11407 L 439.73938,246.64517 L 446.51434,244.95123 L 452.18887,251.10532 L 453.28973,263.583 L 461.75867,263.583 L 462.49268,246.08026 L 471.86514,230.55371 L 473.61545,231.40088 L 499.0226,224.62549 L 497.32867,222.67749 L 499.0226,212.76868 L 502.4101,211.07513 L 499.0226,209.3812 L 492.30402,214.51901 L 485.7827,204.4125 L 482.08438,199.21832 L 471.9215,207.68726 L 465.4006,203.76343 L 465.14655,204.29977 L 467.26367,213.07953 L 468.53403,219.54407 L 458.37115,216.15659 L 449.90225,216.15659 L 427.88257,209.3812 L 422.80115,200.91226 L 417.7197,195.83084 L 419.41367,183.97403 L 417.7197,182.28009 L 429.5765,173.81119 L 453.28973,173.81119 L 454.98367,183.97403 L 453.28973,185.66797 L 448.2083,189.05548 L 456.67722,197.52438 L 461.75867,192.44296 L 465.14655,183.97403 L 470.22797,178.89261 L 470.22797,177.19867 L 473.61545,167.0358 L 466.8401,160.26083 L 465.14655,161.95438 L 463.4526,160.26083 L 468.53403,153.48544 L 475.3094,155.17938 L 473.61545,150.09796 L 477.00296,141.62863 L 468.53403,139.93509 L 465.14655,148.40402 L 460.0651,138.24115 L 441.43292,145.01651 L 439.73938,148.40402 L 421.1072,145.01651 L 421.1072,143.32257 L 426.18863,136.54721 L 419.41367,131.46576 L 414.3322,128.07828 L 407.55685,134.85367 L 397.39398,129.77222 L 400.78146,126.38434 L 407.55685,121.30292 L 405.8629,99.28363 L 392.31256,84.03931 L 390.6186,73.876465 L 404.16934,73.876465 L 427.88257,92.50827 L 431.27005,92.50827 L 436.3515,99.28363 L 424.4951,104.36508 L 417.7197,114.52792 L 421.1072,116.221466 L 419.41367,121.30292 L 434.65796,117.915436 L 439.73938,111.140045 L 453.28973,104.36508 L 463.4526,109.4465 L 466.8401,111.140045 L 461.75867,121.30292 L 470.22797,126.38434 L 478.6969,122.99686 L 473.61545,116.221466 L 475.3094,109.4465 L 477.00296,111.140045 L 480.39084,111.140045 L 480.39084,97.58969 L 477.00296,94.20221 L 473.61545,94.20221 L 468.53403,97.58969 L 453.28973,95.89575 L 451.5958,89.12076 L 448.43417,81.07507 L 443.12686,82.3454 L 448.51874,64.39087 L 436.3515,68.795044 L 431.27005,67.101074 L 426.18863,65.407166 L 427.88257,58.632202 L 431.27005,56.938232 L 432.964,56.938232 L 431.86316,53.32483 L 429.5765,53.55078 L 421.1072,40 L 409.2508,46.77539 L 412.63828,56.938232 L 404.16934,55.244263 L 394.0065,53.55078 L 386.63843,62.30194 L 371.98682,50.16284 L 344.80115,52.308594 L 329.64142,77.26398 L 357.33524,80.39734 L 365.21146,87.42682 L 383.84363,99.28363 L 377.06824,109.4465 L 394.0065,119.609375 L 390.6186,124.690796 L 370.29288,128.07828 L 390.6186,153.48544 L 392.31256,170.42368 L 385.53717,190.74942 L 385.53717,194.1369 L 387.2311,194.1369 L 386.10208,195.29453 L 382.1497,197.52438 L 382.1497,209.3812 L 365.21146,190.74942 L 373.68076,177.19867 L 355.04858,170.42368 L 344.8857,168.72974 L 356.74252,150.09796 L 339.8043,139.93509 L 349.96716,136.54721 L 348.2736,124.690796 L 341.49823,119.609375 L 341.49823,109.4465 L 324.56,117.915436 L 322.86646,109.4465 L 316.09106,114.52792 L 314.39713,111.140045 L 307.62195,104.36508 L 305.9282,107.75256 L 299.153,119.609375 L 302.54053,136.54721 L 287.2962,134.85367 L 287.2962,146.71008 L 272.05194,145.01651 L 268.66443,133.15973 L 272.05194,124.690796 L 268.66443,122.99686 L 263.583,102.67111 L 266.9705,97.58969 L 278.8273,107.75256 L 282.21478,107.75256 L 307.62195,94.20221 L 299.153,68.795044 L 272.05194,67.101074 L 263.583,68.795044 L 262.36902,74.66687 L 258.5016,77.26398 L 266.9705,84.03931 L 263.583,89.12076 L 250.03246,82.3454 L 238.17584,90.81433 L 239.86958,100.97717 L 224.62529,94.20221 L 221.23761,111.140045 L 229.70673,124.690796 L 241.56334,126.38434 L 226.31905,131.46576 L 217.85011,131.46576 L 217.85011,134.85367 L 231.40047,136.54721 L 228.01299,141.62863 L 229.70673,153.48544 L 231.40047,150.09796 L 239.86958,141.62863 L 255.11389,153.48544 L 265.27673,163.64832 L 283.90875,170.42368 L 263.583,178.89261 L 270.3582,194.1369 L 238.17584,197.52438 L 229.70673,167.0358 L 221.23761,158.56686 L 217.85011,150.09796 L 216.15617,155.17938 L 212.76869,158.56686 L 192.44296,192.44296 L 194.1367,200.91226 L 190.74901,202.60583 L 195.83044,221.238 L 189.05527,209.3812 L 175.50471,200.91226 L 170.4233,216.15659 L 163.6481,221.238 L 153.48524,200.91226 L 146.71007,190.74942 L 145.01613,183.97403 L 151.7915,172.11722 L 158.56668,170.42368 L 158.56668,173.81119 L 158.56668,177.19867 L 178.89241,172.11722 L 158.56668,168.72974 L 158.56668,163.64832 L 153.48524,167.0358 L 153.48524,163.64832 L 148.40381,160.26083 L 145.01613,175.50513 L 138.24095,182.28009 L 136.54721,182.28009 L 131.46577,195.83084 L 131.46577,224.62549 L 122.99666,219.54407 L 111.140045,209.3812 L 102.67093,209.3812 L 100.97719,211.07513 L 99.28324,224.62549 L 77.26376,217.85013 L 84.03894,195.83084 L 89.12038,194.1369 L 95.89575,180.58655 L 100.97719,151.7915 L 124.6904,129.77222 L 136.54721,131.46576 L 136.54721,122.99686 L 180.58615,129.77222 L 180.58615,124.690796 L 187.36153,121.30292 L 197.52438,114.52792 L 195.83044,90.81433 L 183.97385,87.42682 L 167.0358,85.73291 L 163.6481,84.03931 L 161.95438,94.20221 L 161.95438,99.28363 L 161.95438,102.67111 L 163.6481,102.67111 L 163.6481,104.36508 L 168.72954,104.36508 L 158.56668,112.833984 L 136.54721,99.28363 L 106.05862,104.36508 L 82.3452,95.89575 L 87.426636,114.52792 L 95.89575,131.46576 L 70.488594,139.93509 L 51.85661,124.690796 L 50.162865,124.690796 L 40,119.609375 L 43.38749,173.81119 L 56.93804,187.36151 L 51.85661,189.05548 L 51.85661,199.21832 L 58.631783,202.60583 L 67.10091,205.99371 L 73.87608,229.70691 L 75.57002,233.09442 L 67.10091,238.17584 L 77.26376,239.86978 L 90.814316,268.66443 L 119.60897,255.11407 L 114.527534,248.33871 L 129.77184,228.01297 L 136.54721,233.09442 L 139.9347,238.17584 L 128.0781,260.19553 L 136.54721,283.90872 L 138.24095,287.29663 L 128.0781,317.78522 L 121.30291,331.33557 L 117.91522,334.72305 L 121.30291,338.11093 L 124.6904,331.33557 L 138.24095,319.47876 L 145.01613,311.00983 L 148.40381,311.00983 L 150.09756,319.47876 L 151.7915,322.86664 L 165.34186,319.47876 L 163.6481,348.2738 L 153.48524,353.35522 L 160.26042,366.90558 L 165.34186,378.7624 L 175.50471,370.2931 L 178.89241,370.2931 L 172.11723,363.5181 L 173.81097,344.88593 L 187.36153,339.8045 L 183.97385,331.33557 L 182.28009,327.94806 L 180.58615,309.3159 L 167.0358,299.153 L 165.34186,300.847 L 158.56668,299.153 L 151.7915,297.45947 L 153.48524,290.6841 L 158.56668,283.90872 L 146.71007,256.808 L 150.09756,253.42014 L 156.87292,241.56372 L 168.72954,248.33871 L 173.81097,246.64517 L 182.28009,280.52124 L 178.89241,282.21518 L 180.58615,288.99017 L 182.28009,302.54092 L 189.05527,300.847 L 197.52438,290.6841 L 202.60582,287.29663 L 204.29956,278.8273 L 199.21814,275.43982 L 197.52438,272.0523 L 195.83044,268.66443 L 205.99332,260.19553 L 207.68726,260.19553 L 209.381,272.0523 L 205.99332,283.90872 L 211.07474,294.0716 L 212.76869,292.37805 L 211.07474,288.99017 L 212.76869,287.29663 L 214.46243,285.60266 L 217.85011,285.60266 L 221.23761,283.90872 L 217.85011,288.99017 L 221.23761,292.37805 L 219.54387,297.45947 L 212.76869,309.3159 L 209.381,316.09125 L 204.29956,339.8045 L 197.52438,343.19238 L 200.91188,353.35522 L 207.68726,371.987 L 204.29956,385.53735 L 192.44296,387.23132 L 180.58615,390.6188 L 170.4233,395.70026 L 177.19867,404.16956 L 178.89241,416.02594 L 185.66759,432.9642 L 197.52438,422.80133 L 197.52438,410.94452 L 205.99332,407.55704 L 219.54387,409.25098 L 207.68726,412.6385 L 209.381,416.02594 L 211.07474,421.1074 L 202.60582,446.51456 L 207.68726,454.9839 L 216.15617,468.53424 L 212.76869,471.92172 L 219.54387,473.61566 L 228.01299,471.92172 L 229.70673,475.3096 L 241.56334,482.0846 L 250.03246,482.0846 L 246.64476,477.00314 L 244.95102,468.53424 L 233.0944,470.22815 L 231.40047,468.53424 L 238.17584,463.4528 L 233.0944,431.27026 L 234.78816,424.4953 L 221.23761,414.3324 L 234.78816,400.78168 L 239.86958,400.78168 L 244.95102,399.08813 L 256.80762,395.70026 L 253.42014,388.92526 L 248.33871,383.8438 L 244.95102,382.1499 L 246.64476,385.53735 L 244.95102,392.31274 L 231.40047,380.45593 L 226.31905,382.1499 L 219.54387,373.68097 L 211.07474,368.59955 L 211.07474,365.21164 L 209.381,353.35522 L 211.07474,336.417 L 217.85011,343.19238 L 219.54387,339.8045 L 229.70673,338.11093 L 234.78816,348.2738 L 248.33871,358.43665 L 260.1953,353.35522 L 270.3582,351.6613 L 268.66443,380.45593 L 275.43964,383.8438 L 266.9705,410.94452 L 268.66443,421.1074 L 282.21478,419.41385 L 282.21478,429.57672 L 283.90875,431.27026 L 282.21478,434.65814 L 280.52106,446.51456 L 295.76532,443.12708 L 305.9282,448.2085 L 295.76532,463.4528 L 277.13336,456.67743 L 268.66443,453.28992 L 266.9705,470.22815 L 265.27673,475.3096 L 280.52106,487.16602 L 265.27673,505.7982 L 236.4819,512.5732 L 239.86958,514.2671 L 246.64476,514.2671 L 278.8273,517.6546 L 278.8273,537.98035 L 282.21478,541.3682 L 287.2962,548.1432 L 288.99017,551.53107 L 294.0716,560 L 305.9282,541.3682 L 297.45908,527.81744 L 305.9282,515.96106 L 309.3157,505.7982 L 294.0716,499.02283 L 300.84677,492.24744 L 324.56,493.94138 L 333.0293,493.94138 L 333.0293,519.3485 L 331.33536,526.1239 L 368.59933,522.736 L 358.43646,510.87964 L 351.6611,509.18567 L 355.04858,504.10425 L 349.96716,499.02283 L 356.74252,499.02283 L 356.74252,497.32886 L 360.13,495.6353 L 356.74252,487.16602 L 346.57965,473.61566 L 336.4168,482.0846 L 336.4168,473.61566 L 326.25394,466.84027 L 324.56,461.75885 L 356.74252,454.9839 L 353.35504,449.90244 L 355.04858,449.90244 L 358.43646,446.51456 L 378.7622,468.53424 L 399.08792,468.53424 L 412.63828,488.85995 L 388.92505,504.10425 L 383.84363,510.87964 L 397.39398,509.18567 L 394.0065,517.6546 L 400.78146,534.59283 L 400.78146,544.7557 L 421.1072,539.67426 L 451.5958,510.87964 L 449.90225,505.7982 L 449.90225,504.10425 L 470.22797,512.5732 L 473.61545,510.87964 L 470.22797,505.7982 L 460.0651,495.6353 L 453.28973,495.6353 L 444.8208,493.94138 L 439.73938,495.6353 L 431.27005,490.5539 L 436.3515,460.0653 L 460.0651,456.67743 L 470.22797,482.0846 L 500.71655,471.92172 L 482.08438,454.9839 L 493.9412,432.9642 L 514.2669,395.70026 L 521.0423,400.78168 L 524.4298,392.31274 L 531.20514,392.31274 L 524.4298,358.43665 L 514.2669,349.96735 L 505.798,344.88593 L 509.1855,353.35522 L 514.2669,363.5181 L 507.49155,360.13022 L 500.71655,360.13022 L 499.0226,363.5181 L 485.47226,361.82416 L 470.5666,364.36487 L 461.75867,363.5181 L 470.22797,370.2931 L 461.75867,388.92526 L 453.28973,412.6385 L 449.90225,421.1074 L 439.73938,438.04562 L 438.04544,409.25098 L 421.1072,416.02594 L 405.8629,412.6385 L 400.78146,422.80133 L 404.16934,434.65814 L 392.31256,456.67743 L 385.53717,444.821 L 377.06824,434.65814 L 385.53717,427.88275 L 378.7622,422.80133 L 378.7622,421.1074 L 371.98682,419.41385 L 365.21146,409.25098 L 383.84363,395.70026 L 348.2736,390.6188 L 344.8857,394.00668 L 343.19217,404.16956 L 343.19217,405.8631 L 351.6611,412.6385 L 329.64142,429.57672 L 292.37766,427.88275 L 299.153,424.4953 L 314.39713,410.94452 L 322.86646,390.6188 L 333.0293,382.1499 L 294.0716,375.3745 L 277.13336,363.5181 L 283.90875,336.417 L 290.6839,327.94806 L 305.9282,321.1727 L 307.62195,322.86664 L 302.54053,326.25415 L 297.45908,341.4984 L 307.62195,343.19238 L 314.39713,338.11093 L 319.47855,334.72305 L 324.56,334.72305 L 319.47855,344.88593 L 327.94788,346.57986 L 321.17252,363.5181 L 331.33536,373.68097 L 341.49823,373.68097 L 358.43646,375.3745 L 358.43646,377.06845 L 370.29288,378.7624 L 378.7622,375.3745 L 380.45575,371.987 L 378.7622,366.90558 L 382.1497,365.21164 L 392.31256,353.35522 L 407.55685,358.43665 L 417.7197,370.2931 L 422.80115,371.987 L 426.18863,360.13022 L 466.8401,341.4984 L 470.22797,334.72305 L 466.8401,321.1727 L 451.5958,312.7038 L 456.67722,312.7038 L 468.53403,309.3159 L 470.22797,307.62234 L 478.6969,307.62234 L 490.5537,316.09125 L 482.08438,321.1727 L 482.08438,322.86664 L 483.77832,327.94806 L 493.9412,338.11093 L 505.798,333.0295 L 497.32867,324.56018 L 502.4101,317.78522 L 509.1855,317.78522 L 507.49155,314.39734 L 510.87943,311.00983 L 504.10406,295.76553 L 499.0226,299.153 L 492.24725,302.54092 L 488.85974,297.45947 L 497.32867,288.99017 L 500.71655,285.60266 L 505.798,290.6841 L 507.5197,281.87616 L 510.45584,283.51373 L 512.34705,280.18262 L 515.5936,281.0576 L 520.3928,280.29535 L 522.115,282.582 L 522.93353,279.44858 L 524.4298,275.43982 L 524.4298,272.0523 L 524.4298,270.35837 L 525.41785,270.1325 L 526.7446,269.37027 L 524.9379,268.49533 L 522.73584,266.9709 L 522.73584,265.27695 L 524.4298,266.9709 L 524.96606,265.84146 L 525.27655,264.43018 L 522.73584,263.583 L 522.73584,261.88947 L 519.3484,263.583 L 517.6544,263.583 L 517.6544,261.88947 L 519.3484,261.88947 L 521.88904,259.29196 L 514.4364,251.64163 L 513.2788,250.03265 L 510.5404,246.44745 L 497.32867,251.7266 L 494.44934,249.38318 L 486.0086,245.60068 L 483.77832,246.64517 L 479.03552,245.91113 L 474.80127,244.72534 L 475.61984,242.66458 L 477.9065,240.51926 L 475.3094,238.17584 L 468.70355,245.12073 L 470.22797,244.95123 L 471.9215,246.64517 L 473.61545,251.7266 L 471.9215,256.808" fill="none" stroke="#10b981" stroke-width="1.8" stroke-linejoin="round" stroke-linecap="round" />
  <circle cx="471.92" cy="256.81" r="1.5" fill="#ffffff" opacity="0.9" />
  <circle cx="478.70" cy="256.81" r="1.5" fill="#ffffff" opacity="0.9" />
  <circle cx="478.70" cy="260.20" r="1.5" fill="#ffffff" opacity="0.9" />
  <circle cx="486.09" cy="257.37" r="1.5" fill="#ffffff" opacity="0.9" />
  <circle cx="487.17" cy="255.11" r="1.5" fill="#ffffff" opacity="0.9" />
  <circle cx="487.17" cy="253.42" r="1.5" fill="#ffffff" opacity="0.9" />
  <circle cx="492.87" cy="259.91" r="1.5" fill="#ffffff" opacity="0.9" />
  <circle cx="500.55" cy="263.30" r="1.5" fill="#ffffff" opacity="0.9" />
  <circle cx="503.93" cy="263.50" r="1.5" fill="#ffffff" opacity="0.9" />
  <circle cx="506.79" cy="263.24" r="1.5" fill="#ffffff" opacity="0.9" />
  <circle cx="510.37" cy="262.88" r="1.5" fill="#ffffff" opacity="0.9" />
  <circle cx="510.63" cy="263.87" r="1.5" fill="#ffffff" opacity="0.9" />
  <circle cx="514.27" cy="261.89" r="1.5" fill="#ffffff" opacity="0.9" />
  <circle cx="514.27" cy="263.58" r="1.5" fill="#ffffff" opacity="0.9" />
  <circle cx="515.96" cy="266.97" r="1.5" fill="#ffffff" opacity="0.9" />
  <circle cx="517.17" cy="271.43" r="1.5" fill="#ffffff" opacity="0.9" />
  <circle cx="520.17" cy="268.24" r="1.5" fill="#ffffff" opacity="0.9" />
  <circle cx="521.04" cy="268.66" r="1.5" fill="#ffffff" opacity="0.9" />
  <circle cx="522.74" cy="270.36" r="1.5" fill="#ffffff" opacity="0.9" />
  <circle cx="521.44" cy="272.02" r="1.5" fill="#ffffff" opacity="0.9" />
  <circle cx="519.35" cy="273.75" r="1.5" fill="#ffffff" opacity="0.9" />
  <circle cx="517.65" cy="273.75" r="1.5" fill="#ffffff" opacity="0.9" />
  <circle cx="519.35" cy="277.13" r="1.5" fill="#ffffff" opacity="0.9" />
  <circle cx="515.96" cy="275.44" r="1.5" fill="#ffffff" opacity="0.9" />
  <circle cx="514.58" cy="276.88" r="1.5" fill="#ffffff" opacity="0.9" />
  <circle cx="508.40" cy="275.61" r="1.5" fill="#ffffff" opacity="0.9" />
  <circle cx="505.66" cy="278.15" r="1.5" fill="#ffffff" opacity="0.9" />
  <circle cx="498.71" cy="279.22" r="1.5" fill="#ffffff" opacity="0.9" />
  <circle cx="493.94" cy="272.05" r="1.5" fill="#ffffff" opacity="0.9" />
  <circle cx="478.70" cy="268.66" r="1.5" fill="#ffffff" opacity="0.9" />
  <circle cx="478.67" cy="277.56" r="1.5" fill="#ffffff" opacity="0.9" />
  <circle cx="483.52" cy="281.82" r="1.5" fill="#ffffff" opacity="0.9" />
  <circle cx="477.00" cy="287.30" r="1.5" fill="#ffffff" opacity="0.9" />
  <circle cx="463.45" cy="288.99" r="1.5" fill="#ffffff" opacity="0.9" />
  <circle cx="458.37" cy="292.38" r="1.5" fill="#ffffff" opacity="0.9" />
  <circle cx="438.05" cy="297.46" r="1.5" fill="#ffffff" opacity="0.9" />
  <circle cx="427.88" cy="300.85" r="1.5" fill="#ffffff" opacity="0.9" />
  <circle cx="426.19" cy="317.79" r="1.5" fill="#ffffff" opacity="0.9" />
  <circle cx="432.96" cy="319.48" r="1.5" fill="#ffffff" opacity="0.9" />
  <circle cx="436.35" cy="321.17" r="1.5" fill="#ffffff" opacity="0.9" />
  <circle cx="419.41" cy="331.34" r="1.5" fill="#ffffff" opacity="0.9" />
  <circle cx="414.33" cy="331.34" r="1.5" fill="#ffffff" opacity="0.9" />
  <circle cx="387.23" cy="319.48" r="1.5" fill="#ffffff" opacity="0.9" />
  <circle cx="380.46" cy="329.64" r="1.5" fill="#ffffff" opacity="0.9" />
  <circle cx="378.76" cy="324.56" r="1.5" fill="#ffffff" opacity="0.9" />
  <circle cx="373.68" cy="322.87" r="1.5" fill="#ffffff" opacity="0.9" />
  <circle cx="366.91" cy="324.56" r="1.5" fill="#ffffff" opacity="0.9" />
  <circle cx="366.91" cy="322.87" r="1.5" fill="#ffffff" opacity="0.9" />
  <circle cx="349.97" cy="316.09" r="1.5" fill="#ffffff" opacity="0.9" />
  <circle cx="331.34" cy="307.62" r="1.5" fill="#ffffff" opacity="0.9" />
  <circle cx="338.11" cy="300.85" r="1.5" fill="#ffffff" opacity="0.9" />
  <circle cx="339.80" cy="288.99" r="1.5" fill="#ffffff" opacity="0.9" />
  <circle cx="343.19" cy="287.30" r="1.5" fill="#ffffff" opacity="0.9" />
  <circle cx="356.74" cy="283.91" r="1.5" fill="#ffffff" opacity="0.9" />
  <circle cx="339.80" cy="266.97" r="1.5" fill="#ffffff" opacity="0.9" />
  <circle cx="336.42" cy="236.48" r="1.5" fill="#ffffff" opacity="0.9" />
  <circle cx="333.03" cy="236.48" r="1.5" fill="#ffffff" opacity="0.9" />
  <circle cx="317.79" cy="238.18" r="1.5" fill="#ffffff" opacity="0.9" />
  <circle cx="312.70" cy="233.09" r="1.5" fill="#ffffff" opacity="0.9" />
  <circle cx="314.40" cy="241.56" r="1.5" fill="#ffffff" opacity="0.9" />
  <circle cx="311.01" cy="243.26" r="1.5" fill="#ffffff" opacity="0.9" />
  <circle cx="292.38" cy="236.48" r="1.5" fill="#ffffff" opacity="0.9" />
  <circle cx="278.83" cy="250.03" r="1.5" fill="#ffffff" opacity="0.9" />
  <circle cx="273.75" cy="250.03" r="1.5" fill="#ffffff" opacity="0.9" />
  <circle cx="272.05" cy="251.73" r="1.5" fill="#ffffff" opacity="0.9" />
  <circle cx="272.05" cy="268.66" r="1.5" fill="#ffffff" opacity="0.9" />
  <circle cx="277.13" cy="268.66" r="1.5" fill="#ffffff" opacity="0.9" />
  <circle cx="294.07" cy="250.03" r="1.5" fill="#ffffff" opacity="0.9" />
  <circle cx="314.40" cy="266.97" r="1.5" fill="#ffffff" opacity="0.9" />
  <circle cx="321.17" cy="272.05" r="1.5" fill="#ffffff" opacity="0.9" />
  <circle cx="321.17" cy="277.13" r="1.5" fill="#ffffff" opacity="0.9" />
  <circle cx="317.79" cy="294.07" r="1.5" fill="#ffffff" opacity="0.9" />
  <circle cx="309.32" cy="295.77" r="1.5" fill="#ffffff" opacity="0.9" />
  <circle cx="311.01" cy="305.93" r="1.5" fill="#ffffff" opacity="0.9" />
  <circle cx="292.38" cy="302.54" r="1.5" fill="#ffffff" opacity="0.9" />
  <circle cx="280.52" cy="282.22" r="1.5" fill="#ffffff" opacity="0.9" />
  <circle cx="275.44" cy="282.22" r="1.5" fill="#ffffff" opacity="0.9" />
  <circle cx="263.58" cy="288.99" r="1.5" fill="#ffffff" opacity="0.9" />
  <circle cx="256.81" cy="295.77" r="1.5" fill="#ffffff" opacity="0.9" />
  <circle cx="263.58" cy="297.46" r="1.5" fill="#ffffff" opacity="0.9" />
  <circle cx="265.28" cy="302.54" r="1.5" fill="#ffffff" opacity="0.9" />
  <circle cx="255.11" cy="311.01" r="1.5" fill="#ffffff" opacity="0.9" />
  <circle cx="253.42" cy="312.70" r="1.5" fill="#ffffff" opacity="0.9" />
  <circle cx="251.73" cy="326.25" r="1.5" fill="#ffffff" opacity="0.9" />
  <circle cx="238.18" cy="321.17" r="1.5" fill="#ffffff" opacity="0.9" />
  <circle cx="233.09" cy="319.48" r="1.5" fill="#ffffff" opacity="0.9" />
  <circle cx="228.01" cy="317.79" r="1.5" fill="#ffffff" opacity="0.9" />
  <circle cx="233.09" cy="307.62" r="1.5" fill="#ffffff" opacity="0.9" />
  <circle cx="246.64" cy="290.68" r="1.5" fill="#ffffff" opacity="0.9" />
  <circle cx="251.73" cy="283.91" r="1.5" fill="#ffffff" opacity="0.9" />
  <circle cx="248.34" cy="278.83" r="1.5" fill="#ffffff" opacity="0.9" />
  <circle cx="244.95" cy="273.75" r="1.5" fill="#ffffff" opacity="0.9" />
  <circle cx="236.48" cy="250.03" r="1.5" fill="#ffffff" opacity="0.9" />
  <circle cx="253.42" cy="234.79" r="1.5" fill="#ffffff" opacity="0.9" />
  <circle cx="255.11" cy="233.09" r="1.5" fill="#ffffff" opacity="0.9" />
  <circle cx="265.28" cy="229.71" r="1.5" fill="#ffffff" opacity="0.9" />
  <circle cx="268.66" cy="216.16" r="1.5" fill="#ffffff" opacity="0.9" />
  <circle cx="270.36" cy="212.77" r="1.5" fill="#ffffff" opacity="0.9" />
  <circle cx="294.07" cy="209.38" r="1.5" fill="#ffffff" opacity="0.9" />
  <circle cx="287.30" cy="195.83" r="1.5" fill="#ffffff" opacity="0.9" />
  <circle cx="299.15" cy="195.83" r="1.5" fill="#ffffff" opacity="0.9" />
  <circle cx="319.48" cy="204.30" r="1.5" fill="#ffffff" opacity="0.9" />
  <circle cx="311.01" cy="178.89" r="1.5" fill="#ffffff" opacity="0.9" />
  <circle cx="324.56" cy="172.12" r="1.5" fill="#ffffff" opacity="0.9" />
  <circle cx="334.72" cy="183.97" r="1.5" fill="#ffffff" opacity="0.9" />
  <circle cx="351.66" cy="205.99" r="1.5" fill="#ffffff" opacity="0.9" />
  <circle cx="353.36" cy="216.16" r="1.5" fill="#ffffff" opacity="0.9" />
  <circle cx="365.21" cy="238.18" r="1.5" fill="#ffffff" opacity="0.9" />
  <circle cx="368.60" cy="236.48" r="1.5" fill="#ffffff" opacity="0.9" />
  <circle cx="373.31" cy="234.73" r="1.5" fill="#ffffff" opacity="0.9" />
  <circle cx="370.29" cy="243.26" r="1.5" fill="#ffffff" opacity="0.9" />
  <circle cx="361.82" cy="250.03" r="1.5" fill="#ffffff" opacity="0.9" />
  <circle cx="380.46" cy="270.36" r="1.5" fill="#ffffff" opacity="0.9" />
  <circle cx="383.84" cy="244.95" r="1.5" fill="#ffffff" opacity="0.9" />
  <circle cx="380.46" cy="236.48" r="1.5" fill="#ffffff" opacity="0.9" />
  <circle cx="392.31" cy="250.03" r="1.5" fill="#ffffff" opacity="0.9" />
  <circle cx="405.86" cy="251.73" r="1.5" fill="#ffffff" opacity="0.9" />
  <circle cx="407.56" cy="238.18" r="1.5" fill="#ffffff" opacity="0.9" />
  <circle cx="421.11" cy="239.87" r="1.5" fill="#ffffff" opacity="0.9" />
  <circle cx="416.03" cy="255.11" r="1.5" fill="#ffffff" opacity="0.9" />
  <circle cx="426.19" cy="260.20" r="1.5" fill="#ffffff" opacity="0.9" />
  <circle cx="438.05" cy="265.28" r="1.5" fill="#ffffff" opacity="0.9" />
  <circle cx="442.68" cy="263.84" r="1.5" fill="#ffffff" opacity="0.9" />
  <circle cx="439.74" cy="255.11" r="1.5" fill="#ffffff" opacity="0.9" />
  <circle cx="439.74" cy="246.65" r="1.5" fill="#ffffff" opacity="0.9" />
  <circle cx="446.51" cy="244.95" r="1.5" fill="#ffffff" opacity="0.9" />
  <circle cx="452.19" cy="251.11" r="1.5" fill="#ffffff" opacity="0.9" />
  <circle cx="453.29" cy="263.58" r="1.5" fill="#ffffff" opacity="0.9" />
  <circle cx="461.76" cy="263.58" r="1.5" fill="#ffffff" opacity="0.9" />
  <circle cx="462.49" cy="246.08" r="1.5" fill="#ffffff" opacity="0.9" />
  <circle cx="471.87" cy="230.55" r="1.5" fill="#ffffff" opacity="0.9" />
  <circle cx="473.62" cy="231.40" r="1.5" fill="#ffffff" opacity="0.9" />
  <circle cx="499.02" cy="224.63" r="1.5" fill="#ffffff" opacity="0.9" />
  <circle cx="497.33" cy="222.68" r="1.5" fill="#ffffff" opacity="0.9" />
  <circle cx="499.02" cy="212.77" r="1.5" fill="#ffffff" opacity="0.9" />
  <circle cx="502.41" cy="211.08" r="1.5" fill="#ffffff" opacity="0.9" />
  <circle cx="499.02" cy="209.38" r="1.5" fill="#ffffff" opacity="0.9" />
  <circle cx="492.30" cy="214.52" r="1.5" fill="#ffffff" opacity="0.9" />
  <circle cx="485.78" cy="204.41" r="1.5" fill="#ffffff" opacity="0.9" />
  <circle cx="482.08" cy="199.22" r="1.5" fill="#ffffff" opacity="0.9" />
  <circle cx="471.92" cy="207.69" r="1.5" fill="#ffffff" opacity="0.9" />
  <circle cx="465.40" cy="203.76" r="1.5" fill="#ffffff" opacity="0.9" />
  <circle cx="465.15" cy="204.30" r="1.5" fill="#ffffff" opacity="0.9" />
  <circle cx="467.26" cy="213.08" r="1.5" fill="#ffffff" opacity="0.9" />
  <circle cx="468.53" cy="219.54" r="1.5" fill="#ffffff" opacity="0.9" />
  <circle cx="458.37" cy="216.16" r="1.5" fill="#ffffff" opacity="0.9" />
  <circle cx="449.90" cy="216.16" r="1.5" fill="#ffffff" opacity="0.9" />
  <circle cx="427.88" cy="209.38" r="1.5" fill="#ffffff" opacity="0.9" />
  <circle cx="422.80" cy="200.91" r="1.5" fill="#ffffff" opacity="0.9" />
  <circle cx="417.72" cy="195.83" r="1.5" fill="#ffffff" opacity="0.9" />
  <circle cx="419.41" cy="183.97" r="1.5" fill="#ffffff" opacity="0.9" />
  <circle cx="417.72" cy="182.28" r="1.5" fill="#ffffff" opacity="0.9" />
  <circle cx="429.58" cy="173.81" r="1.5" fill="#ffffff" opacity="0.9" />
  <circle cx="453.29" cy="173.81" r="1.5" fill="#ffffff" opacity="0.9" />
  <circle cx="454.98" cy="183.97" r="1.5" fill="#ffffff" opacity="0.9" />
  <circle cx="453.29" cy="185.67" r="1.5" fill="#ffffff" opacity="0.9" />
  <circle cx="448.21" cy="189.06" r="1.5" fill="#ffffff" opacity="0.9" />
  <circle cx="456.68" cy="197.52" r="1.5" fill="#ffffff" opacity="0.9" />
  <circle cx="461.76" cy="192.44" r="1.5" fill="#ffffff" opacity="0.9" />
  <circle cx="465.15" cy="183.97" r="1.5" fill="#ffffff" opacity="0.9" />
  <circle cx="470.23" cy="178.89" r="1.5" fill="#ffffff" opacity="0.9" />
  <circle cx="470.23" cy="177.20" r="1.5" fill="#ffffff" opacity="0.9" />
  <circle cx="473.62" cy="167.04" r="1.5" fill="#ffffff" opacity="0.9" />
  <circle cx="466.84" cy="160.26" r="1.5" fill="#ffffff" opacity="0.9" />
  <circle cx="465.15" cy="161.95" r="1.5" fill="#ffffff" opacity="0.9" />
  <circle cx="463.45" cy="160.26" r="1.5" fill="#ffffff" opacity="0.9" />
  <circle cx="468.53" cy="153.49" r="1.5" fill="#ffffff" opacity="0.9" />
  <circle cx="475.31" cy="155.18" r="1.5" fill="#ffffff" opacity="0.9" />
  <circle cx="473.62" cy="150.10" r="1.5" fill="#ffffff" opacity="0.9" />
  <circle cx="477.00" cy="141.63" r="1.5" fill="#ffffff" opacity="0.9" />
  <circle cx="468.53" cy="139.94" r="1.5" fill="#ffffff" opacity="0.9" />
  <circle cx="465.15" cy="148.40" r="1.5" fill="#ffffff" opacity="0.9" />
  <circle cx="460.07" cy="138.24" r="1.5" fill="#ffffff" opacity="0.9" />
  <circle cx="441.43" cy="145.02" r="1.5" fill="#ffffff" opacity="0.9" />
  <circle cx="439.74" cy="148.40" r="1.5" fill="#ffffff" opacity="0.9" />
  <circle cx="421.11" cy="145.02" r="1.5" fill="#ffffff" opacity="0.9" />
  <circle cx="421.11" cy="143.32" r="1.5" fill="#ffffff" opacity="0.9" />
  <circle cx="426.19" cy="136.55" r="1.5" fill="#ffffff" opacity="0.9" />
  <circle cx="419.41" cy="131.47" r="1.5" fill="#ffffff" opacity="0.9" />
  <circle cx="414.33" cy="128.08" r="1.5" fill="#ffffff" opacity="0.9" />
  <circle cx="407.56" cy="134.85" r="1.5" fill="#ffffff" opacity="0.9" />
  <circle cx="397.39" cy="129.77" r="1.5" fill="#ffffff" opacity="0.9" />
  <circle cx="400.78" cy="126.38" r="1.5" fill="#ffffff" opacity="0.9" />
  <circle cx="407.56" cy="121.30" r="1.5" fill="#ffffff" opacity="0.9" />
  <circle cx="405.86" cy="99.28" r="1.5" fill="#ffffff" opacity="0.9" />
  <circle cx="392.31" cy="84.04" r="1.5" fill="#ffffff" opacity="0.9" />
  <circle cx="390.62" cy="73.88" r="1.5" fill="#ffffff" opacity="0.9" />
  <circle cx="404.17" cy="73.88" r="1.5" fill="#ffffff" opacity="0.9" />
  <circle cx="427.88" cy="92.51" r="1.5" fill="#ffffff" opacity="0.9" />
  <circle cx="431.27" cy="92.51" r="1.5" fill="#ffffff" opacity="0.9" />
  <circle cx="436.35" cy="99.28" r="1.5" fill="#ffffff" opacity="0.9" />
  <circle cx="424.50" cy="104.37" r="1.5" fill="#ffffff" opacity="0.9" />
  <circle cx="417.72" cy="114.53" r="1.5" fill="#ffffff" opacity="0.9" />
  <circle cx="421.11" cy="116.22" r="1.5" fill="#ffffff" opacity="0.9" />
  <circle cx="419.41" cy="121.30" r="1.5" fill="#ffffff" opacity="0.9" />
  <circle cx="434.66" cy="117.92" r="1.5" fill="#ffffff" opacity="0.9" />
  <circle cx="439.74" cy="111.14" r="1.5" fill="#ffffff" opacity="0.9" />
  <circle cx="453.29" cy="104.37" r="1.5" fill="#ffffff" opacity="0.9" />
  <circle cx="463.45" cy="109.45" r="1.5" fill="#ffffff" opacity="0.9" />
  <circle cx="466.84" cy="111.14" r="1.5" fill="#ffffff" opacity="0.9" />
  <circle cx="461.76" cy="121.30" r="1.5" fill="#ffffff" opacity="0.9" />
  <circle cx="470.23" cy="126.38" r="1.5" fill="#ffffff" opacity="0.9" />
  <circle cx="478.70" cy="123.00" r="1.5" fill="#ffffff" opacity="0.9" />
  <circle cx="473.62" cy="116.22" r="1.5" fill="#ffffff" opacity="0.9" />
  <circle cx="475.31" cy="109.45" r="1.5" fill="#ffffff" opacity="0.9" />
  <circle cx="477.00" cy="111.14" r="1.5" fill="#ffffff" opacity="0.9" />
  <circle cx="480.39" cy="111.14" r="1.5" fill="#ffffff" opacity="0.9" />
  <circle cx="480.39" cy="97.59" r="1.5" fill="#ffffff" opacity="0.9" />
  <circle cx="477.00" cy="94.20" r="1.5" fill="#ffffff" opacity="0.9" />
  <circle cx="473.62" cy="94.20" r="1.5" fill="#ffffff" opacity="0.9" />
  <circle cx="468.53" cy="97.59" r="1.5" fill="#ffffff" opacity="0.9" />
  <circle cx="453.29" cy="95.90" r="1.5" fill="#ffffff" opacity="0.9" />
  <circle cx="451.60" cy="89.12" r="1.5" fill="#ffffff" opacity="0.9" />
  <circle cx="448.43" cy="81.08" r="1.5" fill="#ffffff" opacity="0.9" />
  <circle cx="443.13" cy="82.35" r="1.5" fill="#ffffff" opacity="0.9" />
  <circle cx="448.52" cy="64.39" r="1.5" fill="#ffffff" opacity="0.9" />
  <circle cx="436.35" cy="68.80" r="1.5" fill="#ffffff" opacity="0.9" />
  <circle cx="431.27" cy="67.10" r="1.5" fill="#ffffff" opacity="0.9" />
  <circle cx="426.19" cy="65.41" r="1.5" fill="#ffffff" opacity="0.9" />
  <circle cx="427.88" cy="58.63" r="1.5" fill="#ffffff" opacity="0.9" />
  <circle cx="431.27" cy="56.94" r="1.5" fill="#ffffff" opacity="0.9" />
  <circle cx="432.96" cy="56.94" r="1.5" fill="#ffffff" opacity="0.9" />
  <circle cx="431.86" cy="53.32" r="1.5" fill="#ffffff" opacity="0.9" />
  <circle cx="429.58" cy="53.55" r="1.5" fill="#ffffff" opacity="0.9" />
  <circle cx="421.11" cy="40.00" r="1.5" fill="#ffffff" opacity="0.9" />
  <circle cx="409.25" cy="46.78" r="1.5" fill="#ffffff" opacity="0.9" />
  <circle cx="412.64" cy="56.94" r="1.5" fill="#ffffff" opacity="0.9" />
  <circle cx="404.17" cy="55.24" r="1.5" fill="#ffffff" opacity="0.9" />
  <circle cx="394.01" cy="53.55" r="1.5" fill="#ffffff" opacity="0.9" />
  <circle cx="386.64" cy="62.30" r="1.5" fill="#ffffff" opacity="0.9" />
  <circle cx="371.99" cy="50.16" r="1.5" fill="#ffffff" opacity="0.9" />
  <circle cx="344.80" cy="52.31" r="1.5" fill="#ffffff" opacity="0.9" />
  <circle cx="329.64" cy="77.26" r="1.5" fill="#ffffff" opacity="0.9" />
  <circle cx="357.34" cy="80.40" r="1.5" fill="#ffffff" opacity="0.9" />
  <circle cx="365.21" cy="87.43" r="1.5" fill="#ffffff" opacity="0.9" />
  <circle cx="383.84" cy="99.28" r="1.5" fill="#ffffff" opacity="0.9" />
  <circle cx="377.07" cy="109.45" r="1.5" fill="#ffffff" opacity="0.9" />
  <circle cx="394.01" cy="119.61" r="1.5" fill="#ffffff" opacity="0.9" />
  <circle cx="390.62" cy="124.69" r="1.5" fill="#ffffff" opacity="0.9" />
  <circle cx="370.29" cy="128.08" r="1.5" fill="#ffffff" opacity="0.9" />
  <circle cx="390.62" cy="153.49" r="1.5" fill="#ffffff" opacity="0.9" />
  <circle cx="392.31" cy="170.42" r="1.5" fill="#ffffff" opacity="0.9" />
  <circle cx="385.54" cy="190.75" r="1.5" fill="#ffffff" opacity="0.9" />
  <circle cx="385.54" cy="194.14" r="1.5" fill="#ffffff" opacity="0.9" />
  <circle cx="387.23" cy="194.14" r="1.5" fill="#ffffff" opacity="0.9" />
  <circle cx="386.10" cy="195.29" r="1.5" fill="#ffffff" opacity="0.9" />
  <circle cx="382.15" cy="197.52" r="1.5" fill="#ffffff" opacity="0.9" />
  <circle cx="382.15" cy="209.38" r="1.5" fill="#ffffff" opacity="0.9" />
  <circle cx="365.21" cy="190.75" r="1.5" fill="#ffffff" opacity="0.9" />
  <circle cx="373.68" cy="177.20" r="1.5" fill="#ffffff" opacity="0.9" />
  <circle cx="355.05" cy="170.42" r="1.5" fill="#ffffff" opacity="0.9" />
  <circle cx="344.89" cy="168.73" r="1.5" fill="#ffffff" opacity="0.9" />
  <circle cx="356.74" cy="150.10" r="1.5" fill="#ffffff" opacity="0.9" />
  <circle cx="339.80" cy="139.94" r="1.5" fill="#ffffff" opacity="0.9" />
  <circle cx="349.97" cy="136.55" r="1.5" fill="#ffffff" opacity="0.9" />
  <circle cx="348.27" cy="124.69" r="1.5" fill="#ffffff" opacity="0.9" />
  <circle cx="341.50" cy="119.61" r="1.5" fill="#ffffff" opacity="0.9" />
  <circle cx="341.50" cy="109.45" r="1.5" fill="#ffffff" opacity="0.9" />
  <circle cx="324.56" cy="117.92" r="1.5" fill="#ffffff" opacity="0.9" />
  <circle cx="322.87" cy="109.45" r="1.5" fill="#ffffff" opacity="0.9" />
  <circle cx="316.09" cy="114.53" r="1.5" fill="#ffffff" opacity="0.9" />
  <circle cx="314.40" cy="111.14" r="1.5" fill="#ffffff" opacity="0.9" />
  <circle cx="307.62" cy="104.37" r="1.5" fill="#ffffff" opacity="0.9" />
  <circle cx="305.93" cy="107.75" r="1.5" fill="#ffffff" opacity="0.9" />
  <circle cx="299.15" cy="119.61" r="1.5" fill="#ffffff" opacity="0.9" />
  <circle cx="302.54" cy="136.55" r="1.5" fill="#ffffff" opacity="0.9" />
  <circle cx="287.30" cy="134.85" r="1.5" fill="#ffffff" opacity="0.9" />
  <circle cx="287.30" cy="146.71" r="1.5" fill="#ffffff" opacity="0.9" />
  <circle cx="272.05" cy="145.02" r="1.5" fill="#ffffff" opacity="0.9" />
  <circle cx="268.66" cy="133.16" r="1.5" fill="#ffffff" opacity="0.9" />
  <circle cx="272.05" cy="124.69" r="1.5" fill="#ffffff" opacity="0.9" />
  <circle cx="268.66" cy="123.00" r="1.5" fill="#ffffff" opacity="0.9" />
  <circle cx="263.58" cy="102.67" r="1.5" fill="#ffffff" opacity="0.9" />
  <circle cx="266.97" cy="97.59" r="1.5" fill="#ffffff" opacity="0.9" />
  <circle cx="278.83" cy="107.75" r="1.5" fill="#ffffff" opacity="0.9" />
  <circle cx="282.21" cy="107.75" r="1.5" fill="#ffffff" opacity="0.9" />
  <circle cx="307.62" cy="94.20" r="1.5" fill="#ffffff" opacity="0.9" />
  <circle cx="299.15" cy="68.80" r="1.5" fill="#ffffff" opacity="0.9" />
  <circle cx="272.05" cy="67.10" r="1.5" fill="#ffffff" opacity="0.9" />
  <circle cx="263.58" cy="68.80" r="1.5" fill="#ffffff" opacity="0.9" />
  <circle cx="262.37" cy="74.67" r="1.5" fill="#ffffff" opacity="0.9" />
  <circle cx="258.50" cy="77.26" r="1.5" fill="#ffffff" opacity="0.9" />
  <circle cx="266.97" cy="84.04" r="1.5" fill="#ffffff" opacity="0.9" />
  <circle cx="263.58" cy="89.12" r="1.5" fill="#ffffff" opacity="0.9" />
  <circle cx="250.03" cy="82.35" r="1.5" fill="#ffffff" opacity="0.9" />
  <circle cx="238.18" cy="90.81" r="1.5" fill="#ffffff" opacity="0.9" />
  <circle cx="239.87" cy="100.98" r="1.5" fill="#ffffff" opacity="0.9" />
  <circle cx="224.63" cy="94.20" r="1.5" fill="#ffffff" opacity="0.9" />
  <circle cx="221.24" cy="111.14" r="1.5" fill="#ffffff" opacity="0.9" />
  <circle cx="229.71" cy="124.69" r="1.5" fill="#ffffff" opacity="0.9" />
  <circle cx="241.56" cy="126.38" r="1.5" fill="#ffffff" opacity="0.9" />
  <circle cx="226.32" cy="131.47" r="1.5" fill="#ffffff" opacity="0.9" />
  <circle cx="217.85" cy="131.47" r="1.5" fill="#ffffff" opacity="0.9" />
  <circle cx="217.85" cy="134.85" r="1.5" fill="#ffffff" opacity="0.9" />
  <circle cx="231.40" cy="136.55" r="1.5" fill="#ffffff" opacity="0.9" />
  <circle cx="228.01" cy="141.63" r="1.5" fill="#ffffff" opacity="0.9" />
  <circle cx="229.71" cy="153.49" r="1.5" fill="#ffffff" opacity="0.9" />
  <circle cx="231.40" cy="150.10" r="1.5" fill="#ffffff" opacity="0.9" />
  <circle cx="239.87" cy="141.63" r="1.5" fill="#ffffff" opacity="0.9" />
  <circle cx="255.11" cy="153.49" r="1.5" fill="#ffffff" opacity="0.9" />
  <circle cx="265.28" cy="163.65" r="1.5" fill="#ffffff" opacity="0.9" />
  <circle cx="283.91" cy="170.42" r="1.5" fill="#ffffff" opacity="0.9" />
  <circle cx="263.58" cy="178.89" r="1.5" fill="#ffffff" opacity="0.9" />
  <circle cx="270.36" cy="194.14" r="1.5" fill="#ffffff" opacity="0.9" />
  <circle cx="238.18" cy="197.52" r="1.5" fill="#ffffff" opacity="0.9" />
  <circle cx="229.71" cy="167.04" r="1.5" fill="#ffffff" opacity="0.9" />
  <circle cx="221.24" cy="158.57" r="1.5" fill="#ffffff" opacity="0.9" />
  <circle cx="217.85" cy="150.10" r="1.5" fill="#ffffff" opacity="0.9" />
  <circle cx="216.16" cy="155.18" r="1.5" fill="#ffffff" opacity="0.9" />
  <circle cx="212.77" cy="158.57" r="1.5" fill="#ffffff" opacity="0.9" />
  <circle cx="192.44" cy="192.44" r="1.5" fill="#ffffff" opacity="0.9" />
  <circle cx="194.14" cy="200.91" r="1.5" fill="#ffffff" opacity="0.9" />
  <circle cx="190.75" cy="202.61" r="1.5" fill="#ffffff" opacity="0.9" />
  <circle cx="195.83" cy="221.24" r="1.5" fill="#ffffff" opacity="0.9" />
  <circle cx="189.06" cy="209.38" r="1.5" fill="#ffffff" opacity="0.9" />
  <circle cx="175.50" cy="200.91" r="1.5" fill="#ffffff" opacity="0.9" />
  <circle cx="170.42" cy="216.16" r="1.5" fill="#ffffff" opacity="0.9" />
  <circle cx="163.65" cy="221.24" r="1.5" fill="#ffffff" opacity="0.9" />
  <circle cx="153.49" cy="200.91" r="1.5" fill="#ffffff" opacity="0.9" />
  <circle cx="146.71" cy="190.75" r="1.5" fill="#ffffff" opacity="0.9" />
  <circle cx="145.02" cy="183.97" r="1.5" fill="#ffffff" opacity="0.9" />
  <circle cx="151.79" cy="172.12" r="1.5" fill="#ffffff" opacity="0.9" />
  <circle cx="158.57" cy="170.42" r="1.5" fill="#ffffff" opacity="0.9" />
  <circle cx="158.57" cy="173.81" r="1.5" fill="#ffffff" opacity="0.9" />
  <circle cx="158.57" cy="177.20" r="1.5" fill="#ffffff" opacity="0.9" />
  <circle cx="178.89" cy="172.12" r="1.5" fill="#ffffff" opacity="0.9" />
  <circle cx="158.57" cy="168.73" r="1.5" fill="#ffffff" opacity="0.9" />
  <circle cx="158.57" cy="163.65" r="1.5" fill="#ffffff" opacity="0.9" />
  <circle cx="153.49" cy="167.04" r="1.5" fill="#ffffff" opacity="0.9" />
  <circle cx="153.49" cy="163.65" r="1.5" fill="#ffffff" opacity="0.9" />
  <circle cx="148.40" cy="160.26" r="1.5" fill="#ffffff" opacity="0.9" />
  <circle cx="145.02" cy="175.51" r="1.5" fill="#ffffff" opacity="0.9" />
  <circle cx="138.24" cy="182.28" r="1.5" fill="#ffffff" opacity="0.9" />
  <circle cx="136.55" cy="182.28" r="1.5" fill="#ffffff" opacity="0.9" />
  <circle cx="131.47" cy="195.83" r="1.5" fill="#ffffff" opacity="0.9" />
  <circle cx="131.47" cy="224.63" r="1.5" fill="#ffffff" opacity="0.9" />
  <circle cx="123.00" cy="219.54" r="1.5" fill="#ffffff" opacity="0.9" />
  <circle cx="111.14" cy="209.38" r="1.5" fill="#ffffff" opacity="0.9" />
  <circle cx="102.67" cy="209.38" r="1.5" fill="#ffffff" opacity="0.9" />
  <circle cx="100.98" cy="211.08" r="1.5" fill="#ffffff" opacity="0.9" />
  <circle cx="99.28" cy="224.63" r="1.5" fill="#ffffff" opacity="0.9" />
  <circle cx="77.26" cy="217.85" r="1.5" fill="#ffffff" opacity="0.9" />
  <circle cx="84.04" cy="195.83" r="1.5" fill="#ffffff" opacity="0.9" />
  <circle cx="89.12" cy="194.14" r="1.5" fill="#ffffff" opacity="0.9" />
  <circle cx="95.90" cy="180.59" r="1.5" fill="#ffffff" opacity="0.9" />
  <circle cx="100.98" cy="151.79" r="1.5" fill="#ffffff" opacity="0.9" />
  <circle cx="124.69" cy="129.77" r="1.5" fill="#ffffff" opacity="0.9" />
  <circle cx="136.55" cy="131.47" r="1.5" fill="#ffffff" opacity="0.9" />
  <circle cx="136.55" cy="123.00" r="1.5" fill="#ffffff" opacity="0.9" />
  <circle cx="180.59" cy="129.77" r="1.5" fill="#ffffff" opacity="0.9" />
  <circle cx="180.59" cy="124.69" r="1.5" fill="#ffffff" opacity="0.9" />
  <circle cx="187.36" cy="121.30" r="1.5" fill="#ffffff" opacity="0.9" />
  <circle cx="197.52" cy="114.53" r="1.5" fill="#ffffff" opacity="0.9" />
  <circle cx="195.83" cy="90.81" r="1.5" fill="#ffffff" opacity="0.9" />
  <circle cx="183.97" cy="87.43" r="1.5" fill="#ffffff" opacity="0.9" />
  <circle cx="167.04" cy="85.73" r="1.5" fill="#ffffff" opacity="0.9" />
  <circle cx="163.65" cy="84.04" r="1.5" fill="#ffffff" opacity="0.9" />
  <circle cx="161.95" cy="94.20" r="1.5" fill="#ffffff" opacity="0.9" />
  <circle cx="161.95" cy="99.28" r="1.5" fill="#ffffff" opacity="0.9" />
  <circle cx="161.95" cy="102.67" r="1.5" fill="#ffffff" opacity="0.9" />
  <circle cx="163.65" cy="102.67" r="1.5" fill="#ffffff" opacity="0.9" />
  <circle cx="163.65" cy="104.37" r="1.5" fill="#ffffff" opacity="0.9" />
  <circle cx="168.73" cy="104.37" r="1.5" fill="#ffffff" opacity="0.9" />
  <circle cx="158.57" cy="112.83" r="1.5" fill="#ffffff" opacity="0.9" />
  <circle cx="136.55" cy="99.28" r="1.5" fill="#ffffff" opacity="0.9" />
  <circle cx="106.06" cy="104.37" r="1.5" fill="#ffffff" opacity="0.9" />
  <circle cx="82.35" cy="95.90" r="1.5" fill="#ffffff" opacity="0.9" />
  <circle cx="87.43" cy="114.53" r="1.5" fill="#ffffff" opacity="0.9" />
  <circle cx="95.90" cy="131.47" r="1.5" fill="#ffffff" opacity="0.9" />
  <circle cx="70.49" cy="139.94" r="1.5" fill="#ffffff" opacity="0.9" />
  <circle cx="51.86" cy="124.69" r="1.5" fill="#ffffff" opacity="0.9" />
  <circle cx="50.16" cy="124.69" r="1.5" fill="#ffffff" opacity="0.9" />
  <circle cx="40.00" cy="119.61" r="1.5" fill="#ffffff" opacity="0.9" />
  <circle cx="43.39" cy="173.81" r="1.5" fill="#ffffff" opacity="0.9" />
  <circle cx="56.94" cy="187.36" r="1.5" fill="#ffffff" opacity="0.9" />
  <circle cx="51.86" cy="189.06" r="1.5" fill="#ffffff" opacity="0.9" />
  <circle cx="51.86" cy="199.22" r="1.5" fill="#ffffff" opacity="0.9" />
  <circle cx="58.63" cy="202.61" r="1.5" fill="#ffffff" opacity="0.9" />
  <circle cx="67.10" cy="205.99" r="1.5" fill="#ffffff" opacity="0.9" />
  <circle cx="73.88" cy="229.71" r="1.5" fill="#ffffff" opacity="0.9" />
  <circle cx="75.57" cy="233.09" r="1.5" fill="#ffffff" opacity="0.9" />
  <circle cx="67.10" cy="238.18" r="1.5" fill="#ffffff" opacity="0.9" />
  <circle cx="77.26" cy="239.87" r="1.5" fill="#ffffff" opacity="0.9" />
  <circle cx="90.81" cy="268.66" r="1.5" fill="#ffffff" opacity="0.9" />
  <circle cx="119.61" cy="255.11" r="1.5" fill="#ffffff" opacity="0.9" />
  <circle cx="114.53" cy="248.34" r="1.5" fill="#ffffff" opacity="0.9" />
  <circle cx="129.77" cy="228.01" r="1.5" fill="#ffffff" opacity="0.9" />
  <circle cx="136.55" cy="233.09" r="1.5" fill="#ffffff" opacity="0.9" />
  <circle cx="139.93" cy="238.18" r="1.5" fill="#ffffff" opacity="0.9" />
  <circle cx="128.08" cy="260.20" r="1.5" fill="#ffffff" opacity="0.9" />
  <circle cx="136.55" cy="283.91" r="1.5" fill="#ffffff" opacity="0.9" />
  <circle cx="138.24" cy="287.30" r="1.5" fill="#ffffff" opacity="0.9" />
  <circle cx="128.08" cy="317.79" r="1.5" fill="#ffffff" opacity="0.9" />
  <circle cx="121.30" cy="331.34" r="1.5" fill="#ffffff" opacity="0.9" />
  <circle cx="117.92" cy="334.72" r="1.5" fill="#ffffff" opacity="0.9" />
  <circle cx="121.30" cy="338.11" r="1.5" fill="#ffffff" opacity="0.9" />
  <circle cx="124.69" cy="331.34" r="1.5" fill="#ffffff" opacity="0.9" />
  <circle cx="138.24" cy="319.48" r="1.5" fill="#ffffff" opacity="0.9" />
  <circle cx="145.02" cy="311.01" r="1.5" fill="#ffffff" opacity="0.9" />
  <circle cx="148.40" cy="311.01" r="1.5" fill="#ffffff" opacity="0.9" />
  <circle cx="150.10" cy="319.48" r="1.5" fill="#ffffff" opacity="0.9" />
  <circle cx="151.79" cy="322.87" r="1.5" fill="#ffffff" opacity="0.9" />
  <circle cx="165.34" cy="319.48" r="1.5" fill="#ffffff" opacity="0.9" />
  <circle cx="163.65" cy="348.27" r="1.5" fill="#ffffff" opacity="0.9" />
  <circle cx="153.49" cy="353.36" r="1.5" fill="#ffffff" opacity="0.9" />
  <circle cx="160.26" cy="366.91" r="1.5" fill="#ffffff" opacity="0.9" />
  <circle cx="165.34" cy="378.76" r="1.5" fill="#ffffff" opacity="0.9" />
  <circle cx="175.50" cy="370.29" r="1.5" fill="#ffffff" opacity="0.9" />
  <circle cx="178.89" cy="370.29" r="1.5" fill="#ffffff" opacity="0.9" />
  <circle cx="172.12" cy="363.52" r="1.5" fill="#ffffff" opacity="0.9" />
  <circle cx="173.81" cy="344.89" r="1.5" fill="#ffffff" opacity="0.9" />
  <circle cx="187.36" cy="339.80" r="1.5" fill="#ffffff" opacity="0.9" />
  <circle cx="183.97" cy="331.34" r="1.5" fill="#ffffff" opacity="0.9" />
  <circle cx="182.28" cy="327.95" r="1.5" fill="#ffffff" opacity="0.9" />
  <circle cx="180.59" cy="309.32" r="1.5" fill="#ffffff" opacity="0.9" />
  <circle cx="167.04" cy="299.15" r="1.5" fill="#ffffff" opacity="0.9" />
  <circle cx="165.34" cy="300.85" r="1.5" fill="#ffffff" opacity="0.9" />
  <circle cx="158.57" cy="299.15" r="1.5" fill="#ffffff" opacity="0.9" />
  <circle cx="151.79" cy="297.46" r="1.5" fill="#ffffff" opacity="0.9" />
  <circle cx="153.49" cy="290.68" r="1.5" fill="#ffffff" opacity="0.9" />
  <circle cx="158.57" cy="283.91" r="1.5" fill="#ffffff" opacity="0.9" />
  <circle cx="146.71" cy="256.81" r="1.5" fill="#ffffff" opacity="0.9" />
  <circle cx="150.10" cy="253.42" r="1.5" fill="#ffffff" opacity="0.9" />
  <circle cx="156.87" cy="241.56" r="1.5" fill="#ffffff" opacity="0.9" />
  <circle cx="168.73" cy="248.34" r="1.5" fill="#ffffff" opacity="0.9" />
  <circle cx="173.81" cy="246.65" r="1.5" fill="#ffffff" opacity="0.9" />
  <circle cx="182.28" cy="280.52" r="1.5" fill="#ffffff" opacity="0.9" />
  <circle cx="178.89" cy="282.22" r="1.5" fill="#ffffff" opacity="0.9" />
  <circle cx="180.59" cy="288.99" r="1.5" fill="#ffffff" opacity="0.9" />
  <circle cx="182.28" cy="302.54" r="1.5" fill="#ffffff" opacity="0.9" />
  <circle cx="189.06" cy="300.85" r="1.5" fill="#ffffff" opacity="0.9" />
  <circle cx="197.52" cy="290.68" r="1.5" fill="#ffffff" opacity="0.9" />
  <circle cx="202.61" cy="287.30" r="1.5" fill="#ffffff" opacity="0.9" />
  <circle cx="204.30" cy="278.83" r="1.5" fill="#ffffff" opacity="0.9" />
  <circle cx="199.22" cy="275.44" r="1.5" fill="#ffffff" opacity="0.9" />
  <circle cx="197.52" cy="272.05" r="1.5" fill="#ffffff" opacity="0.9" />
  <circle cx="195.83" cy="268.66" r="1.5" fill="#ffffff" opacity="0.9" />
  <circle cx="205.99" cy="260.20" r="1.5" fill="#ffffff" opacity="0.9" />
  <circle cx="207.69" cy="260.20" r="1.5" fill="#ffffff" opacity="0.9" />
  <circle cx="209.38" cy="272.05" r="1.5" fill="#ffffff" opacity="0.9" />
  <circle cx="205.99" cy="283.91" r="1.5" fill="#ffffff" opacity="0.9" />
  <circle cx="211.07" cy="294.07" r="1.5" fill="#ffffff" opacity="0.9" />
  <circle cx="212.77" cy="292.38" r="1.5" fill="#ffffff" opacity="0.9" />
  <circle cx="211.07" cy="288.99" r="1.5" fill="#ffffff" opacity="0.9" />
  <circle cx="212.77" cy="287.30" r="1.5" fill="#ffffff" opacity="0.9" />
  <circle cx="214.46" cy="285.60" r="1.5" fill="#ffffff" opacity="0.9" />
  <circle cx="217.85" cy="285.60" r="1.5" fill="#ffffff" opacity="0.9" />
  <circle cx="221.24" cy="283.91" r="1.5" fill="#ffffff" opacity="0.9" />
  <circle cx="217.85" cy="288.99" r="1.5" fill="#ffffff" opacity="0.9" />
  <circle cx="221.24" cy="292.38" r="1.5" fill="#ffffff" opacity="0.9" />
  <circle cx="219.54" cy="297.46" r="1.5" fill="#ffffff" opacity="0.9" />
  <circle cx="212.77" cy="309.32" r="1.5" fill="#ffffff" opacity="0.9" />
  <circle cx="209.38" cy="316.09" r="1.5" fill="#ffffff" opacity="0.9" />
  <circle cx="204.30" cy="339.80" r="1.5" fill="#ffffff" opacity="0.9" />
  <circle cx="197.52" cy="343.19" r="1.5" fill="#ffffff" opacity="0.9" />
  <circle cx="200.91" cy="353.36" r="1.5" fill="#ffffff" opacity="0.9" />
  <circle cx="207.69" cy="371.99" r="1.5" fill="#ffffff" opacity="0.9" />
  <circle cx="204.30" cy="385.54" r="1.5" fill="#ffffff" opacity="0.9" />
  <circle cx="192.44" cy="387.23" r="1.5" fill="#ffffff" opacity="0.9" />
  <circle cx="180.59" cy="390.62" r="1.5" fill="#ffffff" opacity="0.9" />
  <circle cx="170.42" cy="395.70" r="1.5" fill="#ffffff" opacity="0.9" />
  <circle cx="177.20" cy="404.17" r="1.5" fill="#ffffff" opacity="0.9" />
  <circle cx="178.89" cy="416.03" r="1.5" fill="#ffffff" opacity="0.9" />
  <circle cx="185.67" cy="432.96" r="1.5" fill="#ffffff" opacity="0.9" />
  <circle cx="197.52" cy="422.80" r="1.5" fill="#ffffff" opacity="0.9" />
  <circle cx="197.52" cy="410.94" r="1.5" fill="#ffffff" opacity="0.9" />
  <circle cx="205.99" cy="407.56" r="1.5" fill="#ffffff" opacity="0.9" />
  <circle cx="219.54" cy="409.25" r="1.5" fill="#ffffff" opacity="0.9" />
  <circle cx="207.69" cy="412.64" r="1.5" fill="#ffffff" opacity="0.9" />
  <circle cx="209.38" cy="416.03" r="1.5" fill="#ffffff" opacity="0.9" />
  <circle cx="211.07" cy="421.11" r="1.5" fill="#ffffff" opacity="0.9" />
  <circle cx="202.61" cy="446.51" r="1.5" fill="#ffffff" opacity="0.9" />
  <circle cx="207.69" cy="454.98" r="1.5" fill="#ffffff" opacity="0.9" />
  <circle cx="216.16" cy="468.53" r="1.5" fill="#ffffff" opacity="0.9" />
  <circle cx="212.77" cy="471.92" r="1.5" fill="#ffffff" opacity="0.9" />
  <circle cx="219.54" cy="473.62" r="1.5" fill="#ffffff" opacity="0.9" />
  <circle cx="228.01" cy="471.92" r="1.5" fill="#ffffff" opacity="0.9" />
  <circle cx="229.71" cy="475.31" r="1.5" fill="#ffffff" opacity="0.9" />
  <circle cx="241.56" cy="482.08" r="1.5" fill="#ffffff" opacity="0.9" />
  <circle cx="250.03" cy="482.08" r="1.5" fill="#ffffff" opacity="0.9" />
  <circle cx="246.64" cy="477.00" r="1.5" fill="#ffffff" opacity="0.9" />
  <circle cx="244.95" cy="468.53" r="1.5" fill="#ffffff" opacity="0.9" />
  <circle cx="233.09" cy="470.23" r="1.5" fill="#ffffff" opacity="0.9" />
  <circle cx="231.40" cy="468.53" r="1.5" fill="#ffffff" opacity="0.9" />
  <circle cx="238.18" cy="463.45" r="1.5" fill="#ffffff" opacity="0.9" />
  <circle cx="233.09" cy="431.27" r="1.5" fill="#ffffff" opacity="0.9" />
  <circle cx="234.79" cy="424.50" r="1.5" fill="#ffffff" opacity="0.9" />
  <circle cx="221.24" cy="414.33" r="1.5" fill="#ffffff" opacity="0.9" />
  <circle cx="234.79" cy="400.78" r="1.5" fill="#ffffff" opacity="0.9" />
  <circle cx="239.87" cy="400.78" r="1.5" fill="#ffffff" opacity="0.9" />
  <circle cx="244.95" cy="399.09" r="1.5" fill="#ffffff" opacity="0.9" />
  <circle cx="256.81" cy="395.70" r="1.5" fill="#ffffff" opacity="0.9" />
  <circle cx="253.42" cy="388.93" r="1.5" fill="#ffffff" opacity="0.9" />
  <circle cx="248.34" cy="383.84" r="1.5" fill="#ffffff" opacity="0.9" />
  <circle cx="244.95" cy="382.15" r="1.5" fill="#ffffff" opacity="0.9" />
  <circle cx="246.64" cy="385.54" r="1.5" fill="#ffffff" opacity="0.9" />
  <circle cx="244.95" cy="392.31" r="1.5" fill="#ffffff" opacity="0.9" />
  <circle cx="231.40" cy="380.46" r="1.5" fill="#ffffff" opacity="0.9" />
  <circle cx="226.32" cy="382.15" r="1.5" fill="#ffffff" opacity="0.9" />
  <circle cx="219.54" cy="373.68" r="1.5" fill="#ffffff" opacity="0.9" />
  <circle cx="211.07" cy="368.60" r="1.5" fill="#ffffff" opacity="0.9" />
  <circle cx="211.07" cy="365.21" r="1.5" fill="#ffffff" opacity="0.9" />
  <circle cx="209.38" cy="353.36" r="1.5" fill="#ffffff" opacity="0.9" />
  <circle cx="211.07" cy="336.42" r="1.5" fill="#ffffff" opacity="0.9" />
  <circle cx="217.85" cy="343.19" r="1.5" fill="#ffffff" opacity="0.9" />
  <circle cx="219.54" cy="339.80" r="1.5" fill="#ffffff" opacity="0.9" />
  <circle cx="229.71" cy="338.11" r="1.5" fill="#ffffff" opacity="0.9" />
  <circle cx="234.79" cy="348.27" r="1.5" fill="#ffffff" opacity="0.9" />
  <circle cx="248.34" cy="358.44" r="1.5" fill="#ffffff" opacity="0.9" />
  <circle cx="260.20" cy="353.36" r="1.5" fill="#ffffff" opacity="0.9" />
  <circle cx="270.36" cy="351.66" r="1.5" fill="#ffffff" opacity="0.9" />
  <circle cx="268.66" cy="380.46" r="1.5" fill="#ffffff" opacity="0.9" />
  <circle cx="275.44" cy="383.84" r="1.5" fill="#ffffff" opacity="0.9" />
  <circle cx="266.97" cy="410.94" r="1.5" fill="#ffffff" opacity="0.9" />
  <circle cx="268.66" cy="421.11" r="1.5" fill="#ffffff" opacity="0.9" />
  <circle cx="282.21" cy="419.41" r="1.5" fill="#ffffff" opacity="0.9" />
  <circle cx="282.21" cy="429.58" r="1.5" fill="#ffffff" opacity="0.9" />
  <circle cx="283.91" cy="431.27" r="1.5" fill="#ffffff" opacity="0.9" />
  <circle cx="282.21" cy="434.66" r="1.5" fill="#ffffff" opacity="0.9" />
  <circle cx="280.52" cy="446.51" r="1.5" fill="#ffffff" opacity="0.9" />
  <circle cx="295.77" cy="443.13" r="1.5" fill="#ffffff" opacity="0.9" />
  <circle cx="305.93" cy="448.21" r="1.5" fill="#ffffff" opacity="0.9" />
  <circle cx="295.77" cy="463.45" r="1.5" fill="#ffffff" opacity="0.9" />
  <circle cx="277.13" cy="456.68" r="1.5" fill="#ffffff" opacity="0.9" />
  <circle cx="268.66" cy="453.29" r="1.5" fill="#ffffff" opacity="0.9" />
  <circle cx="266.97" cy="470.23" r="1.5" fill="#ffffff" opacity="0.9" />
  <circle cx="265.28" cy="475.31" r="1.5" fill="#ffffff" opacity="0.9" />
  <circle cx="280.52" cy="487.17" r="1.5" fill="#ffffff" opacity="0.9" />
  <circle cx="265.28" cy="505.80" r="1.5" fill="#ffffff" opacity="0.9" />
  <circle cx="236.48" cy="512.57" r="1.5" fill="#ffffff" opacity="0.9" />
  <circle cx="239.87" cy="514.27" r="1.5" fill="#ffffff" opacity="0.9" />
  <circle cx="246.64" cy="514.27" r="1.5" fill="#ffffff" opacity="0.9" />
  <circle cx="278.83" cy="517.65" r="1.5" fill="#ffffff" opacity="0.9" />
  <circle cx="278.83" cy="537.98" r="1.5" fill="#ffffff" opacity="0.9" />
  <circle cx="282.21" cy="541.37" r="1.5" fill="#ffffff" opacity="0.9" />
  <circle cx="287.30" cy="548.14" r="1.5" fill="#ffffff" opacity="0.9" />
  <circle cx="288.99" cy="551.53" r="1.5" fill="#ffffff" opacity="0.9" />
  <circle cx="294.07" cy="560.00" r="1.5" fill="#ffffff" opacity="0.9" />
  <circle cx="305.93" cy="541.37" r="1.5" fill="#ffffff" opacity="0.9" />
  <circle cx="297.46" cy="527.82" r="1.5" fill="#ffffff" opacity="0.9" />
  <circle cx="305.93" cy="515.96" r="1.5" fill="#ffffff" opacity="0.9" />
  <circle cx="309.32" cy="505.80" r="1.5" fill="#ffffff" opacity="0.9" />
  <circle cx="294.07" cy="499.02" r="1.5" fill="#ffffff" opacity="0.9" />
  <circle cx="300.85" cy="492.25" r="1.5" fill="#ffffff" opacity="0.9" />
  <circle cx="324.56" cy="493.94" r="1.5" fill="#ffffff" opacity="0.9" />
  <circle cx="333.03" cy="493.94" r="1.5" fill="#ffffff" opacity="0.9" />
  <circle cx="333.03" cy="519.35" r="1.5" fill="#ffffff" opacity="0.9" />
  <circle cx="331.34" cy="526.12" r="1.5" fill="#ffffff" opacity="0.9" />
  <circle cx="368.60" cy="522.74" r="1.5" fill="#ffffff" opacity="0.9" />
  <circle cx="358.44" cy="510.88" r="1.5" fill="#ffffff" opacity="0.9" />
  <circle cx="351.66" cy="509.19" r="1.5" fill="#ffffff" opacity="0.9" />
  <circle cx="355.05" cy="504.10" r="1.5" fill="#ffffff" opacity="0.9" />
  <circle cx="349.97" cy="499.02" r="1.5" fill="#ffffff" opacity="0.9" />
  <circle cx="356.74" cy="499.02" r="1.5" fill="#ffffff" opacity="0.9" />
  <circle cx="356.74" cy="497.33" r="1.5" fill="#ffffff" opacity="0.9" />
  <circle cx="360.13" cy="495.64" r="1.5" fill="#ffffff" opacity="0.9" />
  <circle cx="356.74" cy="487.17" r="1.5" fill="#ffffff" opacity="0.9" />
  <circle cx="346.58" cy="473.62" r="1.5" fill="#ffffff" opacity="0.9" />
  <circle cx="336.42" cy="482.08" r="1.5" fill="#ffffff" opacity="0.9" />
  <circle cx="336.42" cy="473.62" r="1.5" fill="#ffffff" opacity="0.9" />
  <circle cx="326.25" cy="466.84" r="1.5" fill="#ffffff" opacity="0.9" />
  <circle cx="324.56" cy="461.76" r="1.5" fill="#ffffff" opacity="0.9" />
  <circle cx="356.74" cy="454.98" r="1.5" fill="#ffffff" opacity="0.9" />
  <circle cx="353.36" cy="449.90" r="1.5" fill="#ffffff" opacity="0.9" />
  <circle cx="355.05" cy="449.90" r="1.5" fill="#ffffff" opacity="0.9" />
  <circle cx="358.44" cy="446.51" r="1.5" fill="#ffffff" opacity="0.9" />
  <circle cx="378.76" cy="468.53" r="1.5" fill="#ffffff" opacity="0.9" />
  <circle cx="399.09" cy="468.53" r="1.5" fill="#ffffff" opacity="0.9" />
  <circle cx="412.64" cy="488.86" r="1.5" fill="#ffffff" opacity="0.9" />
  <circle cx="388.93" cy="504.10" r="1.5" fill="#ffffff" opacity="0.9" />
  <circle cx="383.84" cy="510.88" r="1.5" fill="#ffffff" opacity="0.9" />
  <circle cx="397.39" cy="509.19" r="1.5" fill="#ffffff" opacity="0.9" />
  <circle cx="394.01" cy="517.65" r="1.5" fill="#ffffff" opacity="0.9" />
  <circle cx="400.78" cy="534.59" r="1.5" fill="#ffffff" opacity="0.9" />
  <circle cx="400.78" cy="544.76" r="1.5" fill="#ffffff" opacity="0.9" />
  <circle cx="421.11" cy="539.67" r="1.5" fill="#ffffff" opacity="0.9" />
  <circle cx="451.60" cy="510.88" r="1.5" fill="#ffffff" opacity="0.9" />
  <circle cx="449.90" cy="505.80" r="1.5" fill="#ffffff" opacity="0.9" />
  <circle cx="449.90" cy="504.10" r="1.5" fill="#ffffff" opacity="0.9" />
  <circle cx="470.23" cy="512.57" r="1.5" fill="#ffffff" opacity="0.9" />
  <circle cx="473.62" cy="510.88" r="1.5" fill="#ffffff" opacity="0.9" />
  <circle cx="470.23" cy="505.80" r="1.5" fill="#ffffff" opacity="0.9" />
  <circle cx="460.07" cy="495.64" r="1.5" fill="#ffffff" opacity="0.9" />
  <circle cx="453.29" cy="495.64" r="1.5" fill="#ffffff" opacity="0.9" />
  <circle cx="444.82" cy="493.94" r="1.5" fill="#ffffff" opacity="0.9" />
  <circle cx="439.74" cy="495.64" r="1.5" fill="#ffffff" opacity="0.9" />
  <circle cx="431.27" cy="490.55" r="1.5" fill="#ffffff" opacity="0.9" />
  <circle cx="436.35" cy="460.07" r="1.5" fill="#ffffff" opacity="0.9" />
  <circle cx="460.07" cy="456.68" r="1.5" fill="#ffffff" opacity="0.9" />
  <circle cx="470.23" cy="482.08" r="1.5" fill="#ffffff" opacity="0.9" />
  <circle cx="500.72" cy="471.92" r="1.5" fill="#ffffff" opacity="0.9" />
  <circle cx="482.08" cy="454.98" r="1.5" fill="#ffffff" opacity="0.9" />
  <circle cx="493.94" cy="432.96" r="1.5" fill="#ffffff" opacity="0.9" />
  <circle cx="514.27" cy="395.70" r="1.5" fill="#ffffff" opacity="0.9" />
  <circle cx="521.04" cy="400.78" r="1.5" fill="#ffffff" opacity="0.9" />
  <circle cx="524.43" cy="392.31" r="1.5" fill="#ffffff" opacity="0.9" />
  <circle cx="531.21" cy="392.31" r="1.5" fill="#ffffff" opacity="0.9" />
  <circle cx="524.43" cy="358.44" r="1.5" fill="#ffffff" opacity="0.9" />
  <circle cx="514.27" cy="349.97" r="1.5" fill="#ffffff" opacity="0.9" />
  <circle cx="505.80" cy="344.89" r="1.5" fill="#ffffff" opacity="0.9" />
  <circle cx="509.19" cy="353.36" r="1.5" fill="#ffffff" opacity="0.9" />
  <circle cx="514.27" cy="363.52" r="1.5" fill="#ffffff" opacity="0.9" />
  <circle cx="507.49" cy="360.13" r="1.5" fill="#ffffff" opacity="0.9" />
  <circle cx="500.72" cy="360.13" r="1.5" fill="#ffffff" opacity="0.9" />
  <circle cx="499.02" cy="363.52" r="1.5" fill="#ffffff" opacity="0.9" />
  <circle cx="485.47" cy="361.82" r="1.5" fill="#ffffff" opacity="0.9" />
  <circle cx="470.57" cy="364.36" r="1.5" fill="#ffffff" opacity="0.9" />
  <circle cx="461.76" cy="363.52" r="1.5" fill="#ffffff" opacity="0.9" />
  <circle cx="470.23" cy="370.29" r="1.5" fill="#ffffff" opacity="0.9" />
  <circle cx="461.76" cy="388.93" r="1.5" fill="#ffffff" opacity="0.9" />
  <circle cx="453.29" cy="412.64" r="1.5" fill="#ffffff" opacity="0.9" />
  <circle cx="449.90" cy="421.11" r="1.5" fill="#ffffff" opacity="0.9" />
  <circle cx="439.74" cy="438.05" r="1.5" fill="#ffffff" opacity="0.9" />
  <circle cx="438.05" cy="409.25" r="1.5" fill="#ffffff" opacity="0.9" />
  <circle cx="421.11" cy="416.03" r="1.5" fill="#ffffff" opacity="0.9" />
  <circle cx="405.86" cy="412.64" r="1.5" fill="#ffffff" opacity="0.9" />
  <circle cx="400.78" cy="422.80" r="1.5" fill="#ffffff" opacity="0.9" />
  <circle cx="404.17" cy="434.66" r="1.5" fill="#ffffff" opacity="0.9" />
  <circle cx="392.31" cy="456.68" r="1.5" fill="#ffffff" opacity="0.9" />
  <circle cx="385.54" cy="444.82" r="1.5" fill="#ffffff" opacity="0.9" />
  <circle cx="377.07" cy="434.66" r="1.5" fill="#ffffff" opacity="0.9" />
  <circle cx="385.54" cy="427.88" r="1.5" fill="#ffffff" opacity="0.9" />
  <circle cx="378.76" cy="422.80" r="1.5" fill="#ffffff" opacity="0.9" />
  <circle cx="378.76" cy="421.11" r="1.5" fill="#ffffff" opacity="0.9" />
  <circle cx="371.99" cy="419.41" r="1.5" fill="#ffffff" opacity="0.9" />
  <circle cx="365.21" cy="409.25" r="1.5" fill="#ffffff" opacity="0.9" />
  <circle cx="383.84" cy="395.70" r="1.5" fill="#ffffff" opacity="0.9" />
  <circle cx="348.27" cy="390.62" r="1.5" fill="#ffffff" opacity="0.9" />
  <circle cx="344.89" cy="394.01" r="1.5" fill="#ffffff" opacity="0.9" />
  <circle cx="343.19" cy="404.17" r="1.5" fill="#ffffff" opacity="0.9" />
  <circle cx="343.19" cy="405.86" r="1.5" fill="#ffffff" opacity="0.9" />
  <circle cx="351.66" cy="412.64" r="1.5" fill="#ffffff" opacity="0.9" />
  <circle cx="329.64" cy="429.58" r="1.5" fill="#ffffff" opacity="0.9" />
  <circle cx="292.38" cy="427.88" r="1.5" fill="#ffffff" opacity="0.9" />
  <circle cx="299.15" cy="424.50" r="1.5" fill="#ffffff" opacity="0.9" />
  <circle cx="314.40" cy="410.94" r="1.5" fill="#ffffff" opacity="0.9" />
  <circle cx="322.87" cy="390.62" r="1.5" fill="#ffffff" opacity="0.9" />
  <circle cx="333.03" cy="382.15" r="1.5" fill="#ffffff" opacity="0.9" />
  <circle cx="294.07" cy="375.37" r="1.5" fill="#ffffff" opacity="0.9" />
  <circle cx="277.13" cy="363.52" r="1.5" fill="#ffffff" opacity="0.9" />
  <circle cx="283.91" cy="336.42" r="1.5" fill="#ffffff" opacity="0.9" />
  <circle cx="290.68" cy="327.95" r="1.5" fill="#ffffff" opacity="0.9" />
  <circle cx="305.93" cy="321.17" r="1.5" fill="#ffffff" opacity="0.9" />
  <circle cx="307.62" cy="322.87" r="1.5" fill="#ffffff" opacity="0.9" />
  <circle cx="302.54" cy="326.25" r="1.5" fill="#ffffff" opacity="0.9" />
  <circle cx="297.46" cy="341.50" r="1.5" fill="#ffffff" opacity="0.9" />
  <circle cx="307.62" cy="343.19" r="1.5" fill="#ffffff" opacity="0.9" />
  <circle cx="314.40" cy="338.11" r="1.5" fill="#ffffff" opacity="0.9" />
  <circle cx="319.48" cy="334.72" r="1.5" fill="#ffffff" opacity="0.9" />
  <circle cx="324.56" cy="334.72" r="1.5" fill="#ffffff" opacity="0.9" />
  <circle cx="319.48" cy="344.89" r="1.5" fill="#ffffff" opacity="0.9" />
  <circle cx="327.95" cy="346.58" r="1.5" fill="#ffffff" opacity="0.9" />
  <circle cx="321.17" cy="363.52" r="1.5" fill="#ffffff" opacity="0.9" />
  <circle cx="331.34" cy="373.68" r="1.5" fill="#ffffff" opacity="0.9" />
  <circle cx="341.50" cy="373.68" r="1.5" fill="#ffffff" opacity="0.9" />
  <circle cx="358.44" cy="375.37" r="1.5" fill="#ffffff" opacity="0.9" />
  <circle cx="358.44" cy="377.07" r="1.5" fill="#ffffff" opacity="0.9" />
  <circle cx="370.29" cy="378.76" r="1.5" fill="#ffffff" opacity="0.9" />
  <circle cx="378.76" cy="375.37" r="1.5" fill="#ffffff" opacity="0.9" />
  <circle cx="380.46" cy="371.99" r="1.5" fill="#ffffff" opacity="0.9" />
  <circle cx="378.76" cy="366.91" r="1.5" fill="#ffffff" opacity="0.9" />
  <circle cx="382.15" cy="365.21" r="1.5" fill="#ffffff" opacity="0.9" />
  <circle cx="392.31" cy="353.36" r="1.5" fill="#ffffff" opacity="0.9" />
  <circle cx="407.56" cy="358.44" r="1.5" fill="#ffffff" opacity="0.9" />
  <circle cx="417.72" cy="370.29" r="1.5" fill="#ffffff" opacity="0.9" />
  <circle cx="422.80" cy="371.99" r="1.5" fill="#ffffff" opacity="0.9" />
  <circle cx="426.19" cy="360.13" r="1.5" fill="#ffffff" opacity="0.9" />
  <circle cx="466.84" cy="341.50" r="1.5" fill="#ffffff" opacity="0.9" />
  <circle cx="470.23" cy="334.72" r="1.5" fill="#ffffff" opacity="0.9" />
  <circle cx="466.84" cy="321.17" r="1.5" fill="#ffffff" opacity="0.9" />
  <circle cx="451.60" cy="312.70" r="1.5" fill="#ffffff" opacity="0.9" />
  <circle cx="456.68" cy="312.70" r="1.5" fill="#ffffff" opacity="0.9" />
  <circle cx="468.53" cy="309.32" r="1.5" fill="#ffffff" opacity="0.9" />
  <circle cx="470.23" cy="307.62" r="1.5" fill="#ffffff" opacity="0.9" />
  <circle cx="478.70" cy="307.62" r="1.5" fill="#ffffff" opacity="0.9" />
  <circle cx="490.55" cy="316.09" r="1.5" fill="#ffffff" opacity="0.9" />
  <circle cx="482.08" cy="321.17" r="1.5" fill="#ffffff" opacity="0.9" />
  <circle cx="482.08" cy="322.87" r="1.5" fill="#ffffff" opacity="0.9" />
  <circle cx="483.78" cy="327.95" r="1.5" fill="#ffffff" opacity="0.9" />
  <circle cx="493.94" cy="338.11" r="1.5" fill="#ffffff" opacity="0.9" />
  <circle cx="505.80" cy="333.03" r="1.5" fill="#ffffff" opacity="0.9" />
  <circle cx="497.33" cy="324.56" r="1.5" fill="#ffffff" opacity="0.9" />
  <circle cx="502.41" cy="317.79" r="1.5" fill="#ffffff" opacity="0.9" />
  <circle cx="509.19" cy="317.79" r="1.5" fill="#ffffff" opacity="0.9" />
  <circle cx="507.49" cy="314.40" r="1.5" fill="#ffffff" opacity="0.9" />
  <circle cx="510.88" cy="311.01" r="1.5" fill="#ffffff" opacity="0.9" />
  <circle cx="504.10" cy="295.77" r="1.5" fill="#ffffff" opacity="0.9" />
  <circle cx="499.02" cy="299.15" r="1.5" fill="#ffffff" opacity="0.9" />
  <circle cx="492.25" cy="302.54" r="1.5" fill="#ffffff" opacity="0.9" />
  <circle cx="488.86" cy="297.46" r="1.5" fill="#ffffff" opacity="0.9" />
  <circle cx="497.33" cy="288.99" r="1.5" fill="#ffffff" opacity="0.9" />
  <circle cx="500.72" cy="285.60" r="1.5" fill="#ffffff" opacity="0.9" />
  <circle cx="505.80" cy="290.68" r="1.5" fill="#ffffff" opacity="0.9" />
  <circle cx="507.52" cy="281.88" r="1.5" fill="#ffffff" opacity="0.9" />
  <circle cx="510.46" cy="283.51" r="1.5" fill="#ffffff" opacity="0.9" />
  <circle cx="512.35" cy="280.18" r="1.5" fill="#ffffff" opacity="0.9" />
  <circle cx="515.59" cy="281.06" r="1.5" fill="#ffffff" opacity="0.9" />
  <circle cx="520.39" cy="280.30" r="1.5" fill="#ffffff" opacity="0.9" />
  <circle cx="522.11" cy="282.58" r="1.5" fill="#ffffff" opacity="0.9" />
  <circle cx="522.93" cy="279.45" r="1.5" fill="#ffffff" opacity="0.9" />
  <circle cx="524.43" cy="275.44" r="1.5" fill="#ffffff" opacity="0.9" />
  <circle cx="524.43" cy="272.05" r="1.5" fill="#ffffff" opacity="0.9" />
  <circle cx="524.43" cy="270.36" r="1.5" fill="#ffffff" opacity="0.9" />
  <circle cx="525.42" cy="270.13" r="1.5" fill="#ffffff" opacity="0.9" />
  <circle cx="526.74" cy="269.37" r="1.5" fill="#ffffff" opacity="0.9" />
  <circle cx="524.94" cy="268.50" r="1.5" fill="#ffffff" opacity="0.9" />
  <circle cx="522.74" cy="266.97" r="1.5" fill="#ffffff" opacity="0.9" />
  <circle cx="522.74" cy="265.28" r="1.5" fill="#ffffff" opacity="0.9" />
  <circle cx="524.43" cy="266.97" r="1.5" fill="#ffffff" opacity="0.9" />
  <circle cx="524.97" cy="265.84" r="1.5" fill="#ffffff" opacity="0.9" />
  <circle cx="525.28" cy="264.43" r="1.5" fill="#ffffff" opacity="0.9" />
  <circle cx="522.74" cy="263.58" r="1.5" fill="#ffffff" opacity="0.9" />
  <circle cx="522.74" cy="261.89" r="1.5" fill="#ffffff" opacity="0.9" />
  <circle cx="519.35" cy="263.58" r="1.5" fill="#ffffff" opacity="0.9" />
  <circle cx="517.65" cy="263.58" r="1.5" fill="#ffffff" opacity="0.9" />
  <circle cx="517.65" cy="261.89" r="1.5" fill="#ffffff" opacity="0.9" />
  <circle cx="519.35" cy="261.89" r="1.5" fill="#ffffff" opacity="0.9" />
  <circle cx="521.89" cy="259.29" r="1.5" fill="#ffffff" opacity="0.9" />
  <circle cx="514.44" cy="251.64" r="1.5" fill="#ffffff" opacity="0.9" />
  <circle cx="513.28" cy="250.03" r="1.5" fill="#ffffff" opacity="0.9" />
  <circle cx="510.54" cy="246.45" r="1.5" fill="#ffffff" opacity="0.9" />
  <circle cx="497.33" cy="251.73" r="1.5" fill="#ffffff" opacity="0.9" />
  <circle cx="494.45" cy="249.38" r="1.5" fill="#ffffff" opacity="0.9" />
  <circle cx="486.01" cy="245.60" r="1.5" fill="#ffffff" opacity="0.9" />
  <circle cx="483.78" cy="246.65" r="1.5" fill="#ffffff" opacity="0.9" />
  <circle cx="479.04" cy="245.91" r="1.5" fill="#ffffff" opacity="0.9" />
  <circle cx="474.80" cy="244.73" r="1.5" fill="#ffffff" opacity="0.9" />
  <circle cx="475.62" cy="242.66" r="1.5" fill="#ffffff" opacity="0.9" />
  <circle cx="477.91" cy="240.52" r="1.5" fill="#ffffff" opacity="0.9" />
  <circle cx="475.31" cy="238.18" r="1.5" fill="#ffffff" opacity="0.9" />
  <circle cx="468.70" cy="245.12" r="1.5" fill="#ffffff" opacity="0.9" />
  <circle cx="470.23" cy="244.95" r="1.5" fill="#ffffff" opacity="0.9" />
  <circle cx="471.92" cy="246.65" r="1.5" fill="#ffffff" opacity="0.9" />
  <circle cx="473.62" cy="251.73" r="1.5" fill="#ffffff" opacity="0.9" />
</svg>