<svg xmlns="http://www.w3.org/2000/svg" viewBox="0 0 800 600" width="100%" height="100%" style="background-color: #111827;">
  <path d="M 312.72736,470.3031 L 313.93942,470.3031 L 315.15164,471.51517 L 316.3637,470.3031 L 316.3637,467.8788 L 318.788,465.45453 L 320.0001,463.03036 L 318.788,459.394 L 317.57578,458.1818 L 315.15164,458.1818 L 313.93942,460.60608 L 315.15164,461.81815 L 313.93942,464.24243 L 311.51526,465.45453 L 310.30307,463.03036 L 309.09097,460.60608 L 311.51526,458.1818 L 312.72736,456.96973 L 312.72736,454.5454 L 315.15164,454.5454 L 318.788,454.5454 L 313.93942,452.12128 L 310.30307,450.90906 L 309.09097,454.5454 L 303.03033,450.90906 L 300.60617,450.90906 L 299.39395,448.48492 L 299.39395,446.0606 L 299.39395,443.63632 L 300.60617,442.42426 L 301.81827,444.84854 L 303.03033,448.48492 L 305.45462,447.2727 L 305.45462,446.0606 L 306.6667,443.63632 L 307.8789,441.2122 L 311.51526,438.7879 L 311.51526,437.5758 L 311.51526,435.15152 L 312.72736,437.5758 L 317.57578,439.99997 L 313.93942,441.2122 L 315.15164,442.42426 L 315.15164,443.63632 L 311.51526,446.0606 L 313.93942,448.48492 L 315.15164,448.48492 L 316.3637,446.0606 L 320.0001,444.84854 L 322.42438,441.2122 L 324.8485,437.5758 L 323.63644,433.93945 L 317.57578,436.3636 L 315.15164,435.15152 L 315.15164,430.3031 L 317.57578,427.87878 L 322.42438,426.66672 L 326.06073,425.45453 L 327.2728,427.87878 L 328.4849,430.3031 L 330.90918,427.87878 L 330.90918,425.45453 L 328.4849,424.24243 L 326.06073,423.03036 L 323.63644,419.39398 L 322.42438,421.81815 L 320.0001,420.60608 L 317.57578,420.60608 L 316.3637,421.81815 L 316.3637,423.03036 L 310.30307,423.03036 L 311.51526,424.24243 L 312.72736,424.24243 L 313.93942,426.66672 L 311.51526,429.09088 L 310.30307,429.09088 L 309.09097,426.66672 L 307.8789,429.09088 L 305.45462,427.87878 L 304.24255,427.87878 L 304.24255,429.09088 L 305.45462,429.09088 L 305.45462,431.51517 L 304.24255,436.3636 L 304.24255,438.7879 L 301.81827,437.5758 L 301.81827,436.3636 L 299.39395,435.15152 L 299.39395,437.5758 L 295.7576,436.3636 L 295.7576,437.5758 L 295.7576,439.99997 L 293.33344,441.2122 L 293.33344,437.5758 L 292.12122,437.5758 L 289.69708,436.3636 L 276.3637,437.5758 L 277.57578,444.84854 L 271.51526,444.84854 L 270.30304,443.63632 L 272.72736,441.2122 L 259.39395,435.15152 L 275.1516,419.39398 L 288.48486,425.45453 L 289.69708,427.87878 L 292.12122,432.72723 L 293.33344,431.51517 L 294.54553,430.3031 L 295.7576,433.93945 L 296.96982,431.51517 L 299.39395,431.51517 L 298.1819,429.09088 L 294.54553,426.66672 L 293.33344,425.45453 L 295.7576,424.24243 L 300.60617,429.09088 L 301.81827,429.09088 L 300.60617,427.87878 L 300.60617,426.66672 L 303.03033,425.45453 L 298.1819,423.03036 L 287.2728,404.84854 L 265.4546,378.18176 L 265.4546,368.4849 L 263.03033,366.0606 L 266.6667,355.1515 L 264.24255,353.93945 L 255.75758,352.72723 L 260.60617,343.03033 L 280.00006,336.96967 L 278.788,307.87878 L 242.42435,299.39395 L 240.00006,296.96967 L 223.0303,334.5454 L 196.36368,336.96967 L 218.18187,374.5454 L 237.57576,401.21216 L 229.09096,403.63632 L 223.0303,406.0606 L 212.12122,414.5454 L 207.27277,433.93945 L 204.84848,438.7879 L 215.75758,442.42426 L 223.0303,446.0606 L 252.12122,463.03036 L 266.6667,463.03036 L 252.12122,484.84857 L 233.9394,512.7273 L 249.69707,524.8486 L 202.42433,560 L 230.30304,470.3031 L 208.48485,465.45453 L 200.00005,453.33334 L 179.39394,450.90906 L 179.39394,423.03036 L 173.33342,409.69696 L 169.69705,410.90906 L 169.69705,406.0606 L 169.69705,403.63632 L 168.48483,398.7879 L 147.87888,397.5758 L 145.45457,393.93945 L 167.27277,383.03033 L 164.84848,370.90906 L 174.54549,358.78787 L 141.8182,373.3333 L 140.60614,373.3333 L 121.2121,376.9697 L 99.393906,344.24243 L 64.24241,340.60605 L 83.636375,311.51514 L 139.39392,344.24243 L 158.78796,334.5454 L 184.24251,328.48486 L 144.2425,315.1515 L 130.90912,307.87878 L 127.27275,299.39395 L 123.63638,299.39395 L 121.2121,279.9999 L 127.27275,275.1515 L 115.15158,265.45447 L 110.303,273.93942 L 98.18184,261.81808 L 99.393906,258.18173 L 40,233.93939 L 116.363655,239.99991 L 130.90912,220.60602 L 136.96977,225.45447 L 127.27275,246.06058 L 153.93938,254.54538 L 164.84848,244.84848 L 161.2121,242.4242 L 160.00003,239.99991 L 162.42432,227.87875 L 173.33342,224.24237 L 157.57574,219.39395 L 145.45457,208.48483 L 128.48483,206.06055 L 110.303,206.06055 L 113.93937,191.5151 L 136.96977,195.15146 L 136.96977,193.93939 L 144.2425,191.5151 L 130.90912,159.99988 L 120.00002,175.75757 L 99.393906,170.909 L 80.000015,146.66666 L 78.787865,145.45444 L 76.36365,141.81805 L 103.03027,141.81805 L 118.78795,141.81805 L 115.15158,127.27261 L 112.727295,113.93936 L 129.69705,106.666626 L 129.69705,132.12119 L 128.48483,145.45444 L 135.75755,151.51508 L 157.57574,143.03027 L 156.36368,159.99988 L 161.2121,176.96964 L 155.1516,179.39392 L 153.93938,179.39392 L 153.93938,180.60602 L 151.51523,184.24237 L 155.1516,180.60602 L 157.57574,181.81808 L 158.78796,181.81808 L 160.00003,179.39392 L 161.2121,181.81808 L 162.42432,181.81808 L 161.2121,187.87872 L 162.42432,187.87872 L 168.48483,190.30301 L 172.1212,186.66666 L 180.60614,187.87872 L 183.03029,198.78784 L 188.02022,190.40402 L 188.80814,189.91907 L 191.51524,191.5151 L 193.17177,189.67676 L 195.51524,190.36353 L 197.51524,191.13129 L 197.55559,189.53528 L 197.47476,188.48483 L 196.98996,187.87872 L 196.10104,188.20203 L 196.74748,186.62619 L 195.91922,185.75757 L 194.56567,185.47476 L 192.56567,186.7475 L 189.35359,188.84848 L 188.76765,189.23227 L 188.04037,187.49493 L 189.09096,184.80798 L 189.65657,185.49493 L 190.5455,185.59592 L 192.66666,185.15146 L 192.88896,183.99991 L 192.30302,183.57574 L 193.21211,183.2121 L 193.77788,182.44437 L 193.93939,183.0303 L 195.15161,183.0303 L 196.2222,183.15146 L 196.84848,184.68683 L 197.77788,185.13129 L 198.96979,184.82816 L 198.3435,184.08072 L 198.86879,183.57574 L 200.76765,184.80798 L 201.21211,185.45444 L 198.88896,189.99991 L 202.36368,189.35345 L 202.82831,187.27261 L 202.4445,186.10089 L 203.21211,185.87872 L 202.62633,184.06055 L 202.50516,183.47476 L 202.00005,183.61609 L 201.11113,183.83838 L 200.9293,183.43427 L 199.53542,182.80798 L 198.50516,183.0303 L 198.74748,181.17163 L 199.47476,179.05048 L 198.42433,177.63626 L 197.75757,176.06055 L 199.37376,175.75757 L 198.50516,175.1918 L 197.07079,175.31311 L 196.28285,174.86865 L 195.13129,174.54535 L 194.9293,175.31311 L 195.7374,175.83838 L 195.31311,176.2222 L 194.96979,177.05048 L 196.88896,177.31311 L 196.56567,178.08072 L 196.38385,178.14136 L 197.57576,179.39392 L 197.09096,179.81808 L 197.41425,180.12122 L 197.37376,182.08072 L 197.0303,182.56567 L 196.36368,181.81808 L 195.15161,180.60602 L 196.40402,180.505 L 196.0607,180.26254 L 195.77788,179.83838 L 196.36368,179.39392 L 196.38385,179.11111 L 195.61624,179.09079 L 194.90913,178.74747 L 194.24251,178.56567 L 193.31311,178.30301 L 191.8384,177.5151 L 191.31311,176.82816 L 191.37376,175.97974 L 190.32333,175.99991 L 189.31311,175.4141 L 189.57574,176.10089 L 189.59607,176.78781 L 189.13129,176.96964 L 189.11111,177.2121 L 188.72731,177.45444 L 189.0303,177.57574 L 189.55559,177.47476 L 189.61624,178.26254 L 189.59607,178.84848 L 191.51524,179.39392 L 191.0303,180.707 L 190.42433,180.34335 L 190.40402,180.78781 L 190.4445,181.07065 L 190.66666,181.55545 L 190.48485,182.0202 L 190.90913,181.97974 L 191.45459,181.2121 L 191.97987,180.72717 L 193.07079,181.0303 L 192.84848,181.99991 L 192.46468,182.0202 L 192.26268,182.60602 L 191.45459,182.48483 L 191.27277,182.88882 L 191.51524,183.0303 L 191.9597,183.57574 L 191.6364,184.10089 L 190.84848,183.77774 L 189.7374,183.47476 L 188.96979,182.28271 L 189.57574,181.1918 L 189.27277,180.48483 L 188.98996,180.88882 L 187.85857,180.74747 L 184.24251,178.1817 L 178.18185,174.54535 L 187.87888,175.75757 L 188.04037,174.84848 L 187.87888,174.54535 L 188.4445,174.34335 L 189.8384,174.30301 L 191.0303,173.85855 L 191.41425,173.17163 L 192.58583,173.97974 L 192.26268,174.04037 L 191.55559,175.39392 L 192.10104,175.65656 L 193.35359,177.00998 L 194.0607,177.45444 L 193.8384,176.94946 L 193.63641,175.29294 L 194.24251,174.78781 L 194.18185,173.67673 L 196.36368,170.909 L 200.00005,166.06055 L 191.51524,161.2121 L 196.36368,156.36353 L 184.24251,143.03027 L 181.81822,127.27261 L 174.54549,124.84845 L 179.39394,110.30301 L 163.6364,95.75754 L 155.1516,77.57568 L 155.1516,66.666626 L 150.30301,59.39392 L 145.45457,83.63623 L 141.8182,86.06055 L 113.93937,55.75757 L 132.12119,48.48462 L 158.78796,40 L 161.2121,40 L 163.6364,43.636353 L 166.0607,40 L 193.93939,55.75757 L 223.0303,56.969604 L 233.9394,63.030273 L 233.9394,67.87866 L 254.54552,66.666626 L 256.9698,65.45441 L 260.60617,53.333252 L 271.51526,61.818054 L 277.57578,63.030273 L 278.788,66.666626 L 275.1516,69.09076 L 259.39395,99.39392 L 277.57578,83.63623 L 280.00006,69.09076 L 292.12122,66.666626 L 317.57578,71.515076 L 327.2728,77.57568 L 335.7576,81.2121 L 320.0001,63.030273 L 320.0001,54.54547 L 323.63644,53.333252 L 338.18192,48.48462 L 364.84854,54.54547 L 367.27283,66.666626 L 375.75763,58.18164 L 375.75763,64.24231 L 374.54553,66.666626 L 379.39398,67.87866 L 376.96985,75.15143 L 384.24255,76.363525 L 392.72736,82.424194 L 401.21216,92.121185 L 410.90918,94.54532 L 456.96985,109.09079 L 471.51532,104.24234 L 459.394,141.81805 L 464.24258,149.09079 L 467.87897,166.06055 L 475.15167,161.2121 L 484.74756,142.72717 L 494.16177,138.58582 L 503.0304,153.93936 L 515.15173,189.09082 L 512.7274,199.99991 L 507.87897,208.48483 L 504.2426,209.69693 L 509.09103,210.909 L 512.7274,231.5151 L 513.93945,256.96967 L 506.66675,252.12122 L 504.2426,246.06058 L 499.394,244.84848 L 492.16177,254.98984 L 478.78806,266.6667 L 456.96985,264.2424 L 463.03036,290.90903 L 487.27286,304.2424 L 487.27286,300.60605 L 495.75766,287.27264 L 499.394,303.03033 L 495.75766,303.03033 L 492.12128,303.03033 L 492.12128,315.1515 L 476.36377,315.1515 L 473.95978,320.62622 L 472.7274,334.5454 L 463.03036,339.39398 L 456.96985,340.2021 L 430.3031,303.03033 L 420.2021,297.57578 L 425.45465,313.93942 L 424.24258,327.27264 L 420.6062,329.69696 L 419.39398,333.3333 L 399.93945,318.68686 L 391.5153,309.09082 L 390.30307,306.6667 L 393.93945,305.45447 L 410.90918,290.90903 L 407.2122,278.68686 L 384.24255,279.9999 L 363.63644,290.90903 L 368.4849,307.87878 L 353.93942,310.30304 L 336.96982,315.1515 L 336.96982,303.03033 L 332.12125,293.3333 L 330.90918,281.21213 L 346.26273,279.39395 L 355.11118,265.3535 L 373.13135,265.3535 L 376.96985,254.54538 L 387.87894,263.0303 L 397.5758,253.33328 L 414.54556,242.4242 L 423.03036,237.57578 L 410.90918,198.78784 L 418.14157,199.79791 L 443.63647,203.63626 L 455.75763,203.63626 L 456.28293,203.95956 L 453.3335,183.0303 L 436.36374,163.63626 L 421.8183,157.57574 L 427.87894,151.51508 L 426.66672,145.45444 L 437.5758,144.24237 L 429.091,135.75757 L 423.03036,130.90897 L 403.53546,138.78781 L 396.56573,155.35345 L 392.72736,161.2121 L 397.3738,175.95956 L 384.24255,203.63626 L 392.72736,218.18173 L 393.93945,227.87875 L 375.75763,219.39395 L 361.21216,230.30304 L 346.66672,253.33328 L 328.4849,256.96967 L 318.788,261.81808 L 306.6667,255.7576 L 304.24255,243.63629 L 278.788,249.69693 L 275.1516,253.33328 L 276.3637,236.36356 L 300.60617,218.18173 L 311.51526,196.36353 L 315.15164,199.99991 L 322.42438,202.4242 L 326.06073,196.36353 L 333.33347,208.48483 L 345.05066,201.81808 L 353.93942,219.39395 L 356.3637,221.81808 L 358.78802,218.18173 L 356.3637,198.78784 L 358.78802,197.57574 L 358.78802,196.36353 L 365.65662,196.16156 L 372.12125,190.30301 L 364.84854,178.1817 L 356.3637,164.84848 L 366.06073,159.99988 L 368.4849,153.93936 L 378.18192,151.51508 L 381.81827,151.51508 L 386.66672,121.2121 L 383.23248,114.14136 L 383.03036,104.24234 L 380.6062,93.33325 L 379.39398,82.424194 L 350.30307,87.27258 L 332.12125,123.63623 L 348.0809,137.9797 L 358.78802,139.39392 L 353.93942,150.30301 L 350.30307,152.72717 L 327.2728,172.12119 L 313.93942,168.48483 L 304.24255,152.72717 L 284.8485,129.6969 L 259.39395,112.72714 L 247.27278,103.03027 L 246.06071,103.03027 L 227.87889,107.87872 L 218.18187,122.424164 L 219.39394,134.54535 L 220.60616,144.24237 L 220.60616,155.15146 L 213.33344,159.99988 L 209.69707,161.2121 L 213.33344,168.48483 L 214.5455,172.12119 L 219.39394,167.27261 L 230.30304,169.6969 L 230.30304,174.54535 L 226.66667,176.96964 L 209.69707,176.96964 L 208.48485,176.96964 L 206.0607,179.39392 L 214.5455,191.5151 L 220.60616,206.06055 L 226.66667,193.93939 L 223.0303,189.09082 L 248.48486,180.60602 L 229.09096,157.57574 L 235.15161,158.78781 L 244.8485,155.15146 L 241.21213,146.66666 L 236.3637,128.48483 L 252.12122,143.03027 L 272.72736,163.63626 L 286.06073,172.12119 L 280.00006,181.81808 L 281.21216,191.5151 L 259.39395,197.57574 L 246.06071,218.18173 L 241.21213,206.06055 L 235.15161,207.27264 L 229.09096,207.27264 L 231.51526,213.33328 L 230.30304,213.33328 L 230.30304,214.54535 L 226.66667,215.75757 L 213.33344,224.24237 L 204.84848,225.45447 L 198.78796,206.06055 L 186.66666,216.96964 L 181.81822,221.81808 L 190.30302,227.87875 L 190.30302,244.84848 L 209.69707,246.06058 L 216.96979,247.27264 L 216.96979,246.06058 L 229.09096,241.21213 L 233.9394,250.909 L 230.30304,258.18173 L 221.81824,263.0303 L 216.96979,263.0303 L 214.5455,261.81808 L 214.5455,264.2424 L 212.12122,267.87875 L 215.75758,267.87875 L 216.96979,286.06058 L 223.0303,271.5151 L 232.72733,263.0303 L 232.72733,265.45447 L 235.15161,266.6667 L 240.00006,270.30304 L 250.90915,269.09082 L 254.54552,272.7272 L 273.9394,269.09082 L 273.9394,270.30304 L 281.21216,276.36356 L 282.42438,272.7272 L 290.90918,271.5151 L 294.54553,270.30304 L 312.72736,270.30304 L 313.93942,273.93942 L 316.3637,275.1515 L 313.93942,275.1515 L 300.60617,284.8485 L 307.8789,286.06058 L 306.6667,288.48486 L 296.96982,311.51514 L 311.51526,333.3333 L 316.3637,347.87878 L 315.15164,361.21216 L 290.90918,353.93945 L 286.06073,350.30307 L 282.42438,358.78787 L 281.21216,362.42426 L 281.21216,363.6363 L 305.45462,368.4849 L 309.09097,369.69696 L 309.09097,373.3333 L 322.42438,399.99994 L 343.03033,383.03033 L 358.24255,372.8485 L 358.38388,371.19183 L 360.24255,367.87878 L 360.0001,366.0606 L 360.6062,366.14142 L 361.63644,366.3839 L 362.30307,366.4444 L 362.687,365.6363 L 362.62637,364.80804 L 361.4748,365.2525 L 360.30307,364.78787 L 361.01016,364.04044 L 361.5758,363.9798 L 362.62637,363.69696 L 363.091,363.75763 L 361.83844,362.8687 L 360.0001,362.42426 L 358.90918,362.28278 L 359.49496,362.14142 L 359.91925,361.77777 L 359.4748,360.6464 L 359.5153,359.79797 L 359.31317,360.08075 L 358.62637,361.0505 L 358.18192,359.8586 L 358.78802,359.4748 L 359.53546,358.94952 L 360.02026,359.0505 L 360.54553,359.37366 L 360.14157,360.3839 L 361.4143,359.55548 L 361.4143,359.9596 L 362.02026,360.3434 L 362.30307,359.43433 L 363.33347,359.1717 L 362.99,358.78787 L 362.26273,358.5657 L 361.6768,358.58588 L 361.6768,358.08075 L 361.192,357.6768 L 360.99,358.4444 L 360.8082,359.01 L 360.46472,358.3636 L 360.24255,358.30307 L 360.06073,358.0404 L 359.8991,357.93945 L 359.63644,357.8586 L 359.7173,357.13135 L 360.24255,357.19183 L 360.0001,355.99994 L 360.10107,355.49496 L 360.46472,354.94952 L 360.04044,354.94952 L 358.54553,354.5454 L 359.83844,352.90903 L 361.01016,352.5657 L 364.74753,353.01 L 364.96985,353.59595 L 365.43448,354.22223 L 366.34357,353.8586 L 365.87894,355.21216 L 364.64655,354.96967 L 362.46472,355.11115 L 362.06073,356.5252 L 363.07083,357.13135 L 363.15164,357.61615 L 363.63644,357.5758 L 364.46472,358.0606 L 364.24255,358.70703 L 363.5961,359.13135 L 363.81827,359.89896 L 363.63644,359.99994 L 363.05066,360.58588 L 362.10107,360.9697 L 362.58588,361.0505 L 362.92935,361.37366 L 363.43448,361.37366 L 362.7677,362.24243 L 363.27283,363.09085 L 363.81827,363.39398 L 363.5758,363.91913 L 363.5153,364.5252 L 363.97992,364.22223 L 364.66672,364.24243 L 364.54553,363.23233 L 365.293,362.94952 L 365.73746,363.5758 L 366.22226,361.75763 L 364.90918,361.9596 L 364.04044,362.14142 L 364.30307,361.69696 L 364.5657,361.07068 L 365.21216,360.8687 L 365.25266,360.3434 L 366.66672,361.09085 L 367.13135,361.79797 L 367.33347,361.1515 L 367.4143,360.4444 L 366.86884,360.12125 L 366.14157,359.79797 L 366.3839,359.23233 L 366.18192,358.70703 L 367.192,357.3333 L 366.54553,357.29297 L 365.77792,358.08075 L 365.15164,357.4748 L 365.31317,356.58588 L 366.06073,356.3636 L 366.7677,356.1616 L 367.23248,356.46457 L 368.3234,354.96967 L 368.42438,354.08075 L 368.16174,352.8485 L 367.5758,350.4444 L 367.8991,349.9596 L 366.24255,348.92935 L 363.5758,348.80804 L 358.78802,345.45447 L 353.93942,340.60605 L 338.18192,347.87878 L 335.7576,346.6667 L 332.12125,344.24243 L 329.69708,340.60605 L 352.72736,334.5454 L 369.6971,335.75763 L 374.54553,334.5454 L 379.39398,330.90903 L 385.45465,326.0606 L 390.2829,325.65662 L 381.81827,336.96967 L 369.97992,348.1616 L 369.7173,348.12125 L 369.7173,350.08075 L 368.889,350.70703 L 369.05066,351.3333 L 369.31317,354.46457 L 370.18192,355.7373 L 369.293,356.02026 L 369.31317,356.6464 L 369.35364,357.45447 L 369.4143,357.97977 L 368.54553,357.65662 L 367.77792,358.08075 L 367.21216,358.78787 L 367.63644,359.1515 L 367.73746,360.10095 L 368.34357,359.13135 L 368.62637,359.5758 L 368.889,359.97977 L 368.72736,360.3434 L 368.84854,360.6869 L 368.30307,361.8181 L 367.27283,362.42426 L 367.39398,363.55548 L 367.091,363.7373 L 366.18192,364.82822 L 366.2021,366.42426 L 364.40405,365.4748 L 363.4143,366.62622 L 362.72736,367.09085 L 363.23248,367.99994 L 362.66672,369.19183 L 369.13135,382.14142 L 380.6062,386.66672 L 379.39398,378.18176 L 383.03036,367.27267 L 383.03036,358.78787 L 396.36374,374.5454 L 397.5758,373.3333 L 402.42438,372.12128 L 419.39398,368.4849 L 429.091,369.69696 L 455.75763,363.6363 L 461.8183,396.3636 L 440.00012,413.33334 L 431.51532,423.03036 L 403.63647,397.5758 L 396.36374,413.33334 L 387.87894,415.75763 L 368.4849,419.39398 L 367.27283,419.39398 L 363.63644,424.24243 L 360.0001,426.66672 L 361.21216,427.87878 L 364.84854,431.51517 L 369.6971,453.33334 L 368.4849,454.5454 L 363.63644,453.33334 L 360.0001,439.99997 L 347.8789,427.87878 L 347.8789,424.24243 L 346.66672,418.18176 L 355.15164,419.39398 L 356.3637,419.39398 L 361.21216,409.69696 L 360.0001,406.0606 L 355.15164,407.2727 L 341.81827,412.12128 L 341.81827,418.18176 L 340.6062,418.18176 L 338.18192,414.5454 L 335.7576,416.96973 L 336.96982,418.18176 L 335.7576,420.60608 L 334.54553,419.39398 L 334.54553,418.18176 L 332.12125,419.39398 L 333.33347,423.03036 L 336.96982,425.45453 L 339.39398,425.45453 L 341.81827,423.03036 L 341.81827,427.87878 L 344.24255,430.3031 L 340.6062,429.09088 L 338.18192,427.87878 L 338.18192,430.3031 L 335.7576,430.3031 L 333.33347,431.51517 L 332.12125,432.72723 L 328.4849,433.93945 L 327.2728,435.15152 L 330.90918,438.7879 L 330.90918,441.2122 L 329.69708,443.63632 L 328.4849,444.84854 L 329.69708,447.2727 L 328.4849,450.90906 L 335.7576,452.12128 L 335.7576,446.0606 L 340.6062,441.2122 L 340.6062,446.0606 L 341.81827,447.2727 L 341.81827,444.84854 L 350.30307,444.84854 L 350.30307,446.0606 L 346.66672,448.48492 L 349.091,450.90906 L 347.8789,455.75763 L 347.8789,458.1818 L 340.6062,459.394 L 335.7576,459.394 L 328.4849,456.96973 L 326.06073,461.81815 L 323.63644,463.03036 L 322.42438,465.45453 L 321.21216,465.45453 L 318.788,467.8788 L 318.788,469.09088 L 321.21216,470.3031 L 320.0001,471.51517 L 321.21216,472.72723 L 324.8485,472.72723 L 327.2728,471.51517 L 326.06073,470.3031 L 327.2728,469.09088 L 326.06073,467.8788 L 324.8485,466.66675 L 327.2728,464.24243 L 328.4849,465.45453 L 330.90918,469.09088 L 330.90918,470.3031 L 330.90918,472.72723 L 329.69708,473.93945 L 328.4849,477.57584 L 318.788,481.2122 L 307.8789,481.2122 L 309.09097,477.57584 L 306.6667,476.36362 L 305.45462,473.93945 L 307.8789,473.93945 L 306.6667,471.51517 L 309.09097,469.09088 L 309.09097,470.3031 L 310.30307,472.72723 L 312.72736,473.93945 L 313.93942,472.72723 L 312.72736,470.3031" fill="none" stroke="#10b981" stroke-width="1.8" stroke-linejoin="round" stroke-linecap="round" />
  <circle cx="312.73" cy="470.30" r="1.5" fill="#ffffff" opacity="0.9" />
  <circle cx="313.94" cy="470.30" r="1.5" fill="#ffffff" opacity="0.9" />
  <circle cx="315.15" cy="471.52" r="1.5" fill="#ffffff" opacity="0.9" />
  <circle cx="316.36" cy="470.30" r="1.5" fill="#ffffff" opacity="0.9" />
  <circle cx="316.36" cy="467.88" r="1.5" fill="#ffffff" opacity="0.9" />
  <circle cx="318.79" cy="465.45" r="1.5" fill="#ffffff" opacity="0.9" />
  <circle cx="320.00" cy="463.03" r="1.5" fill="#ffffff" opacity="0.9" />
  <circle cx="318.79" cy="459.39" r="1.5" fill="#ffffff" opacity="0.9" />
  <circle cx="317.58" cy="458.18" r="1.5" fill="#ffffff" opacity="0.9" />
  <circle cx="315.15" cy="458.18" r="1.5" fill="#ffffff" opacity="0.9" />
  <circle cx="313.94" cy="460.61" r="1.5" fill="#ffffff" opacity="0.9" />
  <circle cx="315.15" cy="461.82" r="1.5" fill="#ffffff" opacity="0.9" />
  <circle cx="313.94" cy="464.24" r="1.5" fill="#ffffff" opacity="0.9" />
  <circle cx="311.52" cy="465.45" r="1.5" fill="#ffffff" opacity="0.9" />
  <circle cx="310.30" cy="463.03" r="1.5" fill="#ffffff" opacity="0.9" />
  <circle cx="309.09" cy="460.61" r="1.5" fill="#ffffff" opacity="0.9" />
  <circle cx="311.52" cy="458.18" r="1.5" fill="#ffffff" opacity="0.9" />
  <circle cx="312.73" cy="456.97" r="1.5" fill="#ffffff" opacity="0.9" />
  <circle cx="312.73" cy="454.55" r="1.5" fill="#ffffff" opacity="0.9" />
  <circle cx="315.15" cy="454.55" r="1.5" fill="#ffffff" opacity="0.9" />
  <circle cx="318.79" cy="454.55" r="1.5" fill="#ffffff" opacity="0.9" />
  <circle cx="313.94" cy="452.12" r="1.5" fill="#ffffff" opacity="0.9" />
  <circle cx="310.30" cy="450.91" r="1.5" fill="#ffffff" opacity="0.9" />
  <circle cx="309.09" cy="454.55" r="1.5" fill="#ffffff" opacity="0.9" />
  <circle cx="303.03" cy="450.91" r="1.5" fill="#ffffff" opacity="0.9" />
  <circle cx="300.61" cy="450.91" r="1.5" fill="#ffffff" opacity="0.9" />
  <circle cx="299.39" cy="448.48" r="1.5" fill="#ffffff" opacity="0.9" />
  <circle cx="299.39" cy="446.06" r="1.5" fill="#ffffff" opacity="0.9" />
  <circle cx="299.39" cy="443.64" r="1.5" fill="#ffffff" opacity="0.9" />
  <circle cx="300.61" cy="442.42" r="1.5" fill="#ffffff" opacity="0.9" />
  <circle cx="301.82" cy="444.85" r="1.5" fill="#ffffff" opacity="0.9" />
  <circle cx="303.03" cy="448.48" r="1.5" fill="#ffffff" opacity="0.9" />
  <circle cx="305.45" cy="447.27" r="1.5" fill="#ffffff" opacity="0.9" />
  <circle cx="305.45" cy="446.06" r="1.5" fill="#ffffff" opacity="0.9" />
  <circle cx="306.67" cy="443.64" r="1.5" fill="#ffffff" opacity="0.9" />
  <circle cx="307.88" cy="441.21" r="1.5" fill="#ffffff" opacity="0.9" />
  <circle cx="311.52" cy="438.79" r="1.5" fill="#ffffff" opacity="0.9" />
  <circle cx="311.52" cy="437.58" r="1.5" fill="#ffffff" opacity="0.9" />
  <circle cx="311.52" cy="435.15" r="1.5" fill="#ffffff" opacity="0.9" />
  <circle cx="312.73" cy="437.58" r="1.5" fill="#ffffff" opacity="0.9" />
  <circle cx="317.58" cy="440.00" r="1.5" fill="#ffffff" opacity="0.9" />
  <circle cx="313.94" cy="441.21" r="1.5" fill="#ffffff" opacity="0.9" />
  <circle cx="315.15" cy="442.42" r="1.5" fill="#ffffff" opacity="0.9" />
  <circle cx="315.15" cy="443.64" r="1.5" fill="#ffffff" opacity="0.9" />
  <circle cx="311.52" cy="446.06" r="1.5" fill="#ffffff" opacity="0.9" />
  <circle cx="313.94" cy="448.48" r="1.5" fill="#ffffff" opacity="0.9" />
  <circle cx="315.15" cy="448.48" r="1.5" fill="#ffffff" opacity="0.9" />
  <circle cx="316.36" cy="446.06" r="1.5" fill="#ffffff" opacity="0.9" />
  <circle cx="320.00" cy="444.85" r="1.5" fill="#ffffff" opacity="0.9" />
  <circle cx="322.42" cy="441.21" r="1.5" fill="#ffffff" opacity="0.9" />
  <circle cx="324.85" cy="437.58" r="1.5" fill="#ffffff" opacity="0.9" />
  <circle cx="323.64" cy="433.94" r="1.5" fill="#ffffff" opacity="0.9" />
  <circle cx="317.58" cy="436.36" r="1.5" fill="#ffffff" opacity="0.9" />
  <circle cx="315.15" cy="435.15" r="1.5" fill="#ffffff" opacity="0.9" />
  <circle cx="315.15" cy="430.30" r="1.5" fill="#ffffff" opacity="0.9" />
  <circle cx="317.58" cy="427.88" r="1.5" fill="#ffffff" opacity="0.9" />
  <circle cx="322.42" cy="426.67" r="1.5" fill="#ffffff" opacity="0.9" />
  <circle cx="326.06" cy="425.45" r="1.5" fill="#ffffff" opacity="0.9" />
  <circle cx="327.27" cy="427.88" r="1.5" fill="#ffffff" opacity="0.9" />
  <circle cx="328.48" cy="430.30" r="1.5" fill="#ffffff" opacity="0.9" />
  <circle cx="330.91" cy="427.88" r="1.5" fill="#ffffff" opacity="0.9" />
  <circle cx="330.91" cy="425.45" r="1.5" fill="#ffffff" opacity="0.9" />
  <circle cx="328.48" cy="424.24" r="1.5" fill="#ffffff" opacity="0.9" />
  <circle cx="326.06" cy="423.03" r="1.5" fill="#ffffff" opacity="0.9" />
  <circle cx="323.64" cy="419.39" r="1.5" fill="#ffffff" opacity="0.9" />
  <circle cx="322.42" cy="421.82" r="1.5" fill="#ffffff" opacity="0.9" />
  <circle cx="320.00" cy="420.61" r="1.5" fill="#ffffff" opacity="0.9" />
  <circle cx="317.58" cy="420.61" r="1.5" fill="#ffffff" opacity="0.9" />
  <circle cx="316.36" cy="421.82" r="1.5" fill="#ffffff" opacity="0.9" />
  <circle cx="316.36" cy="423.03" r="1.5" fill="#ffffff" opacity="0.9" />
  <circle cx="310.30" cy="423.03" r="1.5" fill="#ffffff" opacity="0.9" />
  <circle cx="311.52" cy="424.24" r="1.5" fill="#ffffff" opacity="0.9" />
  <circle cx="312.73" cy="424.24" r="1.5" fill="#ffffff" opacity="0.9" />
  <circle cx="313.94" cy="426.67" r="1.5" fill="#ffffff" opacity="0.9" />
  <circle cx="311.52" cy="429.09" r="1.5" fill="#ffffff" opacity="0.9" />
  <circle cx="310.30" cy="429.09" r="1.5" fill="#ffffff" opacity="0.9" />
  <circle cx="309.09" cy="426.67" r="1.5" fill="#ffffff" opacity="0.9" />
  <circle cx="307.88" cy="429.09" r="1.5" fill="#ffffff" opacity="0.9" />
  <circle cx="305.45" cy="427.88" r="1.5" fill="#ffffff" opacity="0.9" />
  <circle cx="304.24" cy="427.88" r="1.5" fill="#ffffff" opacity="0.9" />
  <circle cx="304.24" cy="429.09" r="1.5" fill="#ffffff" opacity="0.9" />
  <circle cx="305.45" cy="429.09" r="1.5" fill="#ffffff" opacity="0.9" />
  <circle cx="305.45" cy="431.52" r="1.5" fill="#ffffff" opacity="0.9" />
  <circle cx="304.24" cy="436.36" r="1.5" fill="#ffffff" opacity="0.9" />
  <circle cx="304.24" cy="438.79" r="1.5" fill="#ffffff" opacity="0.9" />
  <circle cx="301.82" cy="437.58" r="1.5" fill="#ffffff" opacity="0.9" />
  <circle cx="301.82" cy="436.36" r="1.5" fill="#ffffff" opacity="0.9" />
  <circle cx="299.39" cy="435.15" r="1.5" fill="#ffffff" opacity="0.9" />
  <circle cx="299.39" cy="437.58" r="1.5" fill="#ffffff" opacity="0.9" />
  <circle cx="295.76" cy="436.36" r="1.5" fill="#ffffff" opacity="0.9" />
  <circle cx="295.76" cy="437.58" r="1.5" fill="#ffffff" opacity="0.9" />
  <circle cx="295.76" cy="440.00" r="1.5" fill="#ffffff" opacity="0.9" />
  <circle cx="293.33" cy="441.21" r="1.5" fill="#ffffff" opacity="0.9" />
  <circle cx="293.33" cy="437.58" r="1.5" fill="#ffffff" opacity="0.9" />
  <circle cx="292.12" cy="437.58" r="1.5" fill="#ffffff" opacity="0.9" />
  <circle cx="289.70" cy="436.36" r="1.5" fill="#ffffff" opacity="0.9" />
  <circle cx="276.36" cy="437.58" r="1.5" fill="#ffffff" opacity="0.9" />
  <circle cx="277.58" cy="444.85" r="1.5" fill="#ffffff" opacity="0.9" />
  <circle cx="271.52" cy="444.85" r="1.5" fill="#ffffff" opacity="0.9" />
  <circle cx="270.30" cy="443.64" r="1.5" fill="#ffffff" opacity="0.9" />
  <circle cx="272.73" cy="441.21" r="1.5" fill="#ffffff" opacity="0.9" />
  <circle cx="259.39" cy="435.15" r="1.5" fill="#ffffff" opacity="0.9" />
  <circle cx="275.15" cy="419.39" r="1.5" fill="#ffffff" opacity="0.9" />
  <circle cx="288.48" cy="425.45" r="1.5" fill="#ffffff" opacity="0.9" />
  <circle cx="289.70" cy="427.88" r="1.5" fill="#ffffff" opacity="0.9" />
  <circle cx="292.12" cy="432.73" r="1.5" fill="#ffffff" opacity="0.9" />
  <circle cx="293.33" cy="431.52" r="1.5" fill="#ffffff" opacity="0.9" />
  <circle cx="294.55" cy="430.30" r="1.5" fill="#ffffff" opacity="0.9" />
  <circle cx="295.76" cy="433.94" r="1.5" fill="#ffffff" opacity="0.9" />
  <circle cx="296.97" cy="431.52" r="1.5" fill="#ffffff" opacity="0.9" />
  <circle cx="299.39" cy="431.52" r="1.5" fill="#ffffff" opacity="0.9" />
  <circle cx="298.18" cy="429.09" r="1.5" fill="#ffffff" opacity="0.9" />
  <circle cx="294.55" cy="426.67" r="1.5" fill="#ffffff" opacity="0.9" />
  <circle cx="293.33" cy="425.45" r="1.5" fill="#ffffff" opacity="0.9" />
  <circle cx="295.76" cy="424.24" r="1.5" fill="#ffffff" opacity="0.9" />
  <circle cx="300.61" cy="429.09" r="1.5" fill="#ffffff" opacity="0.9" />
  <circle cx="301.82" cy="429.09" r="1.5" fill="#ffffff" opacity="0.9" />
  <circle cx="300.61" cy="427.88" r="1.5" fill="#ffffff" opacity="0.9" />
  <circle cx="300.61" cy="426.67" r="1.5" fill="#ffffff" opacity="0.9" />
  <circle cx="303.03" cy="425.45" r="1.5" fill="#ffffff" opacity="0.9" />
  <circle cx="298.18" cy="423.03" r="1.5" fill="#ffffff" opacity="0.9" />
  <circle cx="287.27" cy="404.85" r="1.5" fill="#ffffff" opacity="0.9" />
  <circle cx="265.45" cy="378.18" r="1.5" fill="#ffffff" opacity="0.9" />
  <circle cx="265.45" cy="368.48" r="1.5" fill="#ffffff" opacity="0.9" />
  <circle cx="263.03" cy="366.06" r="1.5" fill="#ffffff" opacity="0.9" />
  <circle cx="266.67" cy="355.15" r="1.5" fill="#ffffff" opacity="0.9" />
  <circle cx="264.24" cy="353.94" r="1.5" fill="#ffffff" opacity="0.9" />
  <circle cx="255.76" cy="352.73" r="1.5" fill="#ffffff" opacity="0.9" />
  <circle cx="260.61" cy="343.03" r="1.5" fill="#ffffff" opacity="0.9" />
  <circle cx="280.00" cy="336.97" r="1.5" fill="#ffffff" opacity="0.9" />
  <circle cx="278.79" cy="307.88" r="1.5" fill="#ffffff" opacity="0.9" />
  <circle cx="242.42" cy="299.39" r="1.5" fill="#ffffff" opacity="0.9" />
  <circle cx="240.00" cy="296.97" r="1.5" fill="#ffffff" opacity="0.9" />
  <circle cx="223.03" cy="334.55" r="1.5" fill="#ffffff" opacity="0.9" />
  <circle cx="196.36" cy="336.97" r="1.5" fill="#ffffff" opacity="0.9" />
  <circle cx="218.18" cy="374.55" r="1.5" fill="#ffffff" opacity="0.9" />
  <circle cx="237.58" cy="401.21" r="1.5" fill="#ffffff" opacity="0.9" />
  <circle cx="229.09" cy="403.64" r="1.5" fill="#ffffff" opacity="0.9" />
  <circle cx="223.03" cy="406.06" r="1.5" fill="#ffffff" opacity="0.9" />
  <circle cx="212.12" cy="414.55" r="1.5" fill="#ffffff" opacity="0.9" />
  <circle cx="207.27" cy="433.94" r="1.5" fill="#ffffff" opacity="0.9" />
  <circle cx="204.85" cy="438.79" r="1.5" fill="#ffffff" opacity="0.9" />
  <circle cx="215.76" cy="442.42" r="1.5" fill="#ffffff" opacity="0.9" />
  <circle cx="223.03" cy="446.06" r="1.5" fill="#ffffff" opacity="0.9" />
  <circle cx="252.12" cy="463.03" r="1.5" fill="#ffffff" opacity="0.9" />
  <circle cx="266.67" cy="463.03" r="1.5" fill="#ffffff" opacity="0.9" />
  <circle cx="252.12" cy="484.85" r="1.5" fill="#ffffff" opacity="0.9" />
  <circle cx="233.94" cy="512.73" r="1.5" fill="#ffffff" opacity="0.9" />
  <circle cx="249.70" cy="524.85" r="1.5" fill="#ffffff" opacity="0.9" />
  <circle cx="202.42" cy="560.00" r="1.5" fill="#ffffff" opacity="0.9" />
  <circle cx="230.30" cy="470.30" r="1.5" fill="#ffffff" opacity="0.9" />
  <circle cx="208.48" cy="465.45" r="1.5" fill="#ffffff" opacity="0.9" />
  <circle cx="200.00" cy="453.33" r="1.5" fill="#ffffff" opacity="0.9" />
  <circle cx="179.39" cy="450.91" r="1.5" fill="#ffffff" opacity="0.9" />
  <circle cx="179.39" cy="423.03" r="1.5" fill="#ffffff" opacity="0.9" />
  <circle cx="173.33" cy="409.70" r="1.5" fill="#ffffff" opacity="0.9" />
  <circle cx="169.70" cy="410.91" r="1.5" fill="#ffffff" opacity="0.9" />
  <circle cx="169.70" cy="406.06" r="1.5" fill="#ffffff" opacity="0.9" />
  <circle cx="169.70" cy="403.64" r="1.5" fill="#ffffff" opacity="0.9" />
  <circle cx="168.48" cy="398.79" r="1.5" fill="#ffffff" opacity="0.9" />
  <circle cx="147.88" cy="397.58" r="1.5" fill="#ffffff" opacity="0.9" />
  <circle cx="145.45" cy="393.94" r="1.5" fill="#ffffff" opacity="0.9" />
  <circle cx="167.27" cy="383.03" r="1.5" fill="#ffffff" opacity="0.9" />
  <circle cx="164.85" cy="370.91" r="1.5" fill="#ffffff" opacity="0.9" />
  <circle cx="174.55" cy="358.79" r="1.5" fill="#ffffff" opacity="0.9" />
  <circle cx="141.82" cy="373.33" r="1.5" fill="#ffffff" opacity="0.9" />
  <circle cx="140.61" cy="373.33" r="1.5" fill="#ffffff" opacity="0.9" />
  <circle cx="121.21" cy="376.97" r="1.5" fill="#ffffff" opacity="0.9" />
  <circle cx="99.39" cy="344.24" r="1.5" fill="#ffffff" opacity="0.9" />
  <circle cx="64.24" cy="340.61" r="1.5" fill="#ffffff" opacity="0.9" />
  <circle cx="83.64" cy="311.52" r="1.5" fill="#ffffff" opacity="0.9" />
  <circle cx="139.39" cy="344.24" r="1.5" fill="#ffffff" opacity="0.9" />
  <circle cx="158.79" cy="334.55" r="1.5" fill="#ffffff" opacity="0.9" />
  <circle cx="184.24" cy="328.48" r="1.5" fill="#ffffff" opacity="0.9" />
  <circle cx="144.24" cy="315.15" r="1.5" fill="#ffffff" opacity="0.9" />
  <circle cx="130.91" cy="307.88" r="1.5" fill="#ffffff" opacity="0.9" />
  <circle cx="127.27" cy="299.39" r="1.5" fill="#ffffff" opacity="0.9" />
  <circle cx="123.64" cy="299.39" r="1.5" fill="#ffffff" opacity="0.9" />
  <circle cx="121.21" cy="280.00" r="1.5" fill="#ffffff" opacity="0.9" />
  <circle cx="127.27" cy="275.15" r="1.5" fill="#ffffff" opacity="0.9" />
  <circle cx="115.15" cy="265.45" r="1.5" fill="#ffffff" opacity="0.9" />
  <circle cx="110.30" cy="273.94" r="1.5" fill="#ffffff" opacity="0.9" />
  <circle cx="98.18" cy="261.82" r="1.5" fill="#ffffff" opacity="0.9" />
  <circle cx="99.39" cy="258.18" r="1.5" fill="#ffffff" opacity="0.9" />
  <circle cx="40.00" cy="233.94" r="1.5" fill="#ffffff" opacity="0.9" />
  <circle cx="116.36" cy="240.00" r="1.5" fill="#ffffff" opacity="0.9" />
  <circle cx="130.91" cy="220.61" r="1.5" fill="#ffffff" opacity="0.9" />
  <circle cx="136.97" cy="225.45" r="1.5" fill="#ffffff" opacity="0.9" />
  <circle cx="127.27" cy="246.06" r="1.5" fill="#ffffff" opacity="0.9" />
  <circle cx="153.94" cy="254.55" r="1.5" fill="#ffffff" opacity="0.9" />
  <circle cx="164.85" cy="244.85" r="1.5" fill="#ffffff" opacity="0.9" />
  <circle cx="161.21" cy="242.42" r="1.5" fill="#ffffff" opacity="0.9" />
  <circle cx="160.00" cy="240.00" r="1.5" fill="#ffffff" opacity="0.9" />
  <circle cx="162.42" cy="227.88" r="1.5" fill="#ffffff" opacity="0.9" />
  <circle cx="173.33" cy="224.24" r="1.5" fill="#ffffff" opacity="0.9" />
  <circle cx="157.58" cy="219.39" r="1.5" fill="#ffffff" opacity="0.9" />
  <circle cx="145.45" cy="208.48" r="1.5" fill="#ffffff" opacity="0.9" />
  <circle cx="128.48" cy="206.06" r="1.5" fill="#ffffff" opacity="0.9" />
  <circle cx="110.30" cy="206.06" r="1.5" fill="#ffffff" opacity="0.9" />
  <circle cx="113.94" cy="191.52" r="1.5" fill="#ffffff" opacity="0.9" />
  <circle cx="136.97" cy="195.15" r="1.5" fill="#ffffff" opacity="0.9" />
  <circle cx="136.97" cy="193.94" r="1.5" fill="#ffffff" opacity="0.9" />
  <circle cx="144.24" cy="191.52" r="1.5" fill="#ffffff" opacity="0.9" />
  <circle cx="130.91" cy="160.00" r="1.5" fill="#ffffff" opacity="0.9" />
  <circle cx="120.00" cy="175.76" r="1.5" fill="#ffffff" opacity="0.9" />
  <circle cx="99.39" cy="170.91" r="1.5" fill="#ffffff" opacity="0.9" />
  <circle cx="80.00" cy="146.67" r="1.5" fill="#ffffff" opacity="0.9" />
  <circle cx="78.79" cy="145.45" r="1.5" fill="#ffffff" opacity="0.9" />
  <circle cx="76.36" cy="141.82" r="1.5" fill="#ffffff" opacity="0.9" />
  <circle cx="103.03" cy="141.82" r="1.5" fill="#ffffff" opacity="0.9" />
  <circle cx="118.79" cy="141.82" r="1.5" fill="#ffffff" opacity="0.9" />
  <circle cx="115.15" cy="127.27" r="1.5" fill="#ffffff" opacity="0.9" />
  <circle cx="112.73" cy="113.94" r="1.5" fill="#ffffff" opacity="0.9" />
  <circle cx="129.70" cy="106.67" r="1.5" fill="#ffffff" opacity="0.9" />
  <circle cx="129.70" cy="132.12" r="1.5" fill="#ffffff" opacity="0.9" />
  <circle cx="128.48" cy="145.45" r="1.5" fill="#ffffff" opacity="0.9" />
  <circle cx="135.76" cy="151.52" r="1.5" fill="#ffffff" opacity="0.9" />
  <circle cx="157.58" cy="143.03" r="1.5" fill="#ffffff" opacity="0.9" />
  <circle cx="156.36" cy="160.00" r="1.5" fill="#ffffff" opacity="0.9" />
  <circle cx="161.21" cy="176.97" r="1.5" fill="#ffffff" opacity="0.9" />
  <circle cx="155.15" cy="179.39" r="1.5" fill="#ffffff" opacity="0.9" />
  <circle cx="153.94" cy="179.39" r="1.5" fill="#ffffff" opacity="0.9" />
  <circle cx="153.94" cy="180.61" r="1.5" fill="#ffffff" opacity="0.9" />
  <circle cx="151.52" cy="184.24" r="1.5" fill="#ffffff" opacity="0.9" />
  <circle cx="155.15" cy="180.61" r="1.5" fill="#ffffff" opacity="0.9" />
  <circle cx="157.58" cy="181.82" r="1.5" fill="#ffffff" opacity="0.9" />
  <circle cx="158.79" cy="181.82" r="1.5" fill="#ffffff" opacity="0.9" />
  <circle cx="160.00" cy="179.39" r="1.5" fill="#ffffff" opacity="0.9" />
  <circle cx="161.21" cy="181.82" r="1.5" fill="#ffffff" opacity="0.9" />
  <circle cx="162.42" cy="181.82" r="1.5" fill="#ffffff" opacity="0.9" />
  <circle cx="161.21" cy="187.88" r="1.5" fill="#ffffff" opacity="0.9" />
  <circle cx="162.42" cy="187.88" r="1.5" fill="#ffffff" opacity="0.9" />
  <circle cx="168.48" cy="190.30" r="1.5" fill="#ffffff" opacity="0.9" />
  <circle cx="172.12" cy="186.67" r="1.5" fill="#ffffff" opacity="0.9" />
  <circle cx="180.61" cy="187.88" r="1.5" fill="#ffffff" opacity="0.9" />
  <circle cx="183.03" cy="198.79" r="1.5" fill="#ffffff" opacity="0.9" />
  <circle cx="188.02" cy="190.40" r="1.5" fill="#ffffff" opacity="0.9" />
  <circle cx="188.81" cy="189.92" r="1.5" fill="#ffffff" opacity="0.9" />
  <circle cx="191.52" cy="191.52" r="1.5" fill="#ffffff" opacity="0.9" />
  <circle cx="193.17" cy="189.68" r="1.5" fill="#ffffff" opacity="0.9" />
  <circle cx="195.52" cy="190.36" r="1.5" fill="#ffffff" opacity="0.9" />
  <circle cx="197.52" cy="191.13" r="1.5" fill="#ffffff" opacity="0.9" />
  <circle cx="197.56" cy="189.54" r="1.5" fill="#ffffff" opacity="0.9" />
  <circle cx="197.47" cy="188.48" r="1.5" fill="#ffffff" opacity="0.9" />
  <circle cx="196.99" cy="187.88" r="1.5" fill="#ffffff" opacity="0.9" />
  <circle cx="196.10" cy="188.20" r="1.5" fill="#ffffff" opacity="0.9" />
  <circle cx="196.75" cy="186.63" r="1.5" fill="#ffffff" opacity="0.9" />
  <circle cx="195.92" cy="185.76" r="1.5" fill="#ffffff" opacity="0.9" />
  <circle cx="194.57" cy="185.47" r="1.5" fill="#ffffff" opacity="0.9" />
  <circle cx="192.57" cy="186.75" r="1.5" fill="#ffffff" opacity="0.9" />
  <circle cx="189.35" cy="188.85" r="1.5" fill="#ffffff" opacity="0.9" />
  <circle cx="188.77" cy="189.23" r="1.5" fill="#ffffff" opacity="0.9" />
  <circle cx="188.04" cy="187.49" r="1.5" fill="#ffffff" opacity="0.9" />
  <circle cx="189.09" cy="184.81" r="1.5" fill="#ffffff" opacity="0.9" />
  <circle cx="189.66" cy="185.49" r="1.5" fill="#ffffff" opacity="0.9" />
  <circle cx="190.55" cy="185.60" r="1.5" fill="#ffffff" opacity="0.9" />
  <circle cx="192.67" cy="185.15" r="1.5" fill="#ffffff" opacity="0.9" />
  <circle cx="192.89" cy="184.00" r="1.5" fill="#ffffff" opacity="0.9" />
  <circle cx="192.30" cy="183.58" r="1.5" fill="#ffffff" opacity="0.9" />
  <circle cx="193.21" cy="183.21" r="1.5" fill="#ffffff" opacity="0.9" />
  <circle cx="193.78" cy="182.44" r="1.5" fill="#ffffff" opacity="0.9" />
  <circle cx="193.94" cy="183.03" r="1.5" fill="#ffffff" opacity="0.9" />
  <circle cx="195.15" cy="183.03" r="1.5" fill="#ffffff" opacity="0.9" />
  <circle cx="196.22" cy="183.15" r="1.5" fill="#ffffff" opacity="0.9" />
  <circle cx="196.85" cy="184.69" r="1.5" fill="#ffffff" opacity="0.9" />
  <circle cx="197.78" cy="185.13" r="1.5" fill="#ffffff" opacity="0.9" />
  <circle cx="198.97" cy="184.83" r="1.5" fill="#ffffff" opacity="0.9" />
  <circle cx="198.34" cy="184.08" r="1.5" fill="#ffffff" opacity="0.9" />
  <circle cx="198.87" cy="183.58" r="1.5" fill="#ffffff" opacity="0.9" />
  <circle cx="200.77" cy="184.81" r="1.5" fill="#ffffff" opacity="0.9" />
  <circle cx="201.21" cy="185.45" r="1.5" fill="#ffffff" opacity="0.9" />
  <circle cx="198.89" cy="190.00" r="1.5" fill="#ffffff" opacity="0.9" />
  <circle cx="202.36" cy="189.35" r="1.5" fill="#ffffff" opacity="0.9" />
  <circle cx="202.83" cy="187.27" r="1.5" fill="#ffffff" opacity="0.9" />
  <circle cx="202.44" cy="186.10" r="1.5" fill="#ffffff" opacity="0.9" />
  <circle cx="203.21" cy="185.88" r="1.5" fill="#ffffff" opacity="0.9" />
  <circle cx="202.63" cy="184.06" r="1.5" fill="#ffffff" opacity="0.9" />
  <circle cx="202.51" cy="183.47" r="1.5" fill="#ffffff" opacity="0.9" />
  <circle cx="202.00" cy="183.62" r="1.5" fill="#ffffff" opacity="0.9" />
  <circle cx="201.11" cy="183.84" r="1.5" fill="#ffffff" opacity="0.9" />
  <circle cx="200.93" cy="183.43" r="1.5" fill="#ffffff" opacity="0.9" />
  <circle cx="199.54" cy="182.81" r="1.5" fill="#ffffff" opacity="0.9" />
  <circle cx="198.51" cy="183.03" r="1.5" fill="#ffffff" opacity="0.9" />
  <circle cx="198.75" cy="181.17" r="1.5" fill="#ffffff" opacity="0.9" />
  <circle cx="199.47" cy="179.05" r="1.5" fill="#ffffff" opacity="0.9" />
  <circle cx="198.42" cy="177.64" r="1.5" fill="#ffffff" opacity="0.9" />
  <circle cx="197.76" cy="176.06" r="1.5" fill="#ffffff" opacity="0.9" />
  <circle cx="199.37" cy="175.76" r="1.5" fill="#ffffff" opacity="0.9" />
  <circle cx="198.51" cy="175.19" r="1.5" fill="#ffffff" opacity="0.9" />
  <circle cx="197.07" cy="175.31" r="1.5" fill="#ffffff" opacity="0.9" />
  <circle cx="196.28" cy="174.87" r="1.5" fill="#ffffff" opacity="0.9" />
  <circle cx="195.13" cy="174.55" r="1.5" fill="#ffffff" opacity="0.9" />
  <circle cx="194.93" cy="175.31" r="1.5" fill="#ffffff" opacity="0.9" />
  <circle cx="195.74" cy="175.84" r="1.5" fill="#ffffff" opacity="0.9" />
  <circle cx="195.31" cy="176.22" r="1.5" fill="#ffffff" opacity="0.9" />
  <circle cx="194.97" cy="177.05" r="1.5" fill="#ffffff" opacity="0.9" />
  <circle cx="196.89" cy="177.31" r="1.5" fill="#ffffff" opacity="0.9" />
  <circle cx="196.57" cy="178.08" r="1.5" fill="#ffffff" opacity="0.9" />
  <circle cx="196.38" cy="178.14" r="1.5" fill="#ffffff" opacity="0.9" />
  <circle cx="197.58" cy="179.39" r="1.5" fill="#ffffff" opacity="0.9" />
  <circle cx="197.09" cy="179.82" r="1.5" fill="#ffffff" opacity="0.9" />
  <circle cx="197.41" cy="180.12" r="1.5" fill="#ffffff" opacity="0.9" />
  <circle cx="197.37" cy="182.08" r="1.5" fill="#ffffff" opacity="0.9" />
  <circle cx="197.03" cy="182.57" r="1.5" fill="#ffffff" opacity="0.9" />
  <circle cx="196.36" cy="181.82" r="1.5" fill="#ffffff" opacity="0.9" />
  <circle cx="195.15" cy="180.61" r="1.5" fill="#ffffff" opacity="0.9" />
  <circle cx="196.40" cy="180.51" r="1.5" fill="#ffffff" opacity="0.9" />
  <circle cx="196.06" cy="180.26" r="1.5" fill="#ffffff" opacity="0.9" />
  <circle cx="195.78" cy="179.84" r="1.5" fill="#ffffff" opacity="0.9" />
  <circle cx="196.36" cy="179.39" r="1.5" fill="#ffffff" opacity="0.9" />
  <circle cx="196.38" cy="179.11" r="1.5" fill="#ffffff" opacity="0.9" />
  <circle cx="195.62" cy="179.09" r="1.5" fill="#ffffff" opacity="0.9" />
  <circle cx="194.91" cy="178.75" r="1.5" fill="#ffffff" opacity="0.9" />
  <circle cx="194.24" cy="178.57" r="1.5" fill="#ffffff" opacity="0.9" />
  <circle cx="193.31" cy="178.30" r="1.5" fill="#ffffff" opacity="0.9" />
  <circle cx="191.84" cy="177.52" r="1.5" fill="#ffffff" opacity="0.9" />
  <circle cx="191.31" cy="176.83" r="1.5" fill="#ffffff" opacity="0.9" />
  <circle cx="191.37" cy="175.98" r="1.5" fill="#ffffff" opacity="0.9" />
  <circle cx="190.32" cy="176.00" r="1.5" fill="#ffffff" opacity="0.9" />
  <circle cx="189.31" cy="175.41" r="1.5" fill="#ffffff" opacity="0.9" />
  <circle cx="189.58" cy="176.10" r="1.5" fill="#ffffff" opacity="0.9" />
  <circle cx="189.60" cy="176.79" r="1.5" fill="#ffffff" opacity="0.9" />
  <circle cx="189.13" cy="176.97" r="1.5" fill="#ffffff" opacity="0.9" />
  <circle cx="189.11" cy="177.21" r="1.5" fill="#ffffff" opacity="0.9" />
  <circle cx="188.73" cy="177.45" r="1.5" fill="#ffffff" opacity="0.9" />
  <circle cx="189.03" cy="177.58" r="1.5" fill="#ffffff" opacity="0.9" />
  <circle cx="189.56" cy="177.47" r="1.5" fill="#ffffff" opacity="0.9" />
  <circle cx="189.62" cy="178.26" r="1.5" fill="#ffffff" opacity="0.9" />
  <circle cx="189.60" cy="178.85" r="1.5" fill="#ffffff" opacity="0.9" />
  <circle cx="191.52" cy="179.39" r="1.5" fill="#ffffff" opacity="0.9" />
  <circle cx="191.03" cy="180.71" r="1.5" fill="#ffffff" opacity="0.9" />
  <circle cx="190.42" cy="180.34" r="1.5" fill="#ffffff" opacity="0.9" />
  <circle cx="190.40" cy="180.79" r="1.5" fill="#ffffff" opacity="0.9" />
  <circle cx="190.44" cy="181.07" r="1.5" fill="#ffffff" opacity="0.9" />
  <circle cx="190.67" cy="181.56" r="1.5" fill="#ffffff" opacity="0.9" />
  <circle cx="190.48" cy="182.02" r="1.5" fill="#ffffff" opacity="0.9" />
  <circle cx="190.91" cy="181.98" r="1.5" fill="#ffffff" opacity="0.9" />
  <circle cx="191.45" cy="181.21" r="1.5" fill="#ffffff" opacity="0.9" />
  <circle cx="191.98" cy="180.73" r="1.5" fill="#ffffff" opacity="0.9" />
  <circle cx="193.07" cy="181.03" r="1.5" fill="#ffffff" opacity="0.9" />
  <circle cx="192.85" cy="182.00" r="1.5" fill="#ffffff" opacity="0.9" />
  <circle cx="192.46" cy="182.02" r="1.5" fill="#ffffff" opacity="0.9" />
  <circle cx="192.26" cy="182.61" r="1.5" fill="#ffffff" opacity="0.9" />
  <circle cx="191.45" cy="182.48" r="1.5" fill="#ffffff" opacity="0.9" />
  <circle cx="191.27" cy="182.89" r="1.5" fill="#ffffff" opacity="0.9" />
  <circle cx="191.52" cy="183.03" r="1.5" fill="#ffffff" opacity="0.9" />
  <circle cx="191.96" cy="183.58" r="1.5" fill="#ffffff" opacity="0.9" />
  <circle cx="191.64" cy="184.10" r="1.5" fill="#ffffff" opacity="0.9" />
  <circle cx="190.85" cy="183.78" r="1.5" fill="#ffffff" opacity="0.9" />
  <circle cx="189.74" cy="183.47" r="1.5" fill="#ffffff" opacity="0.9" />
  <circle cx="188.97" cy="182.28" r="1.5" fill="#ffffff" opacity="0.9" />
  <circle cx="189.58" cy="181.19" r="1.5" fill="#ffffff" opacity="0.9" />
  <circle cx="189.27" cy="180.48" r="1.5" fill="#ffffff" opacity="0.9" />
  <circle cx="188.99" cy="180.89" r="1.5" fill="#ffffff" opacity="0.9" />
  <circle cx="187.86" cy="180.75" r="1.5" fill="#ffffff" opacity="0.9" />
  <circle cx="184.24" cy="178.18" r="1.5" fill="#ffffff" opacity="0.9" />
  <circle cx="178.18" cy="174.55" r="1.5" fill="#ffffff" opacity="0.9" />
  <circle cx="187.88" cy="175.76" r="1.5" fill="#ffffff" opacity="0.9" />
  <circle cx="188.04" cy="174.85" r="1.5" fill="#ffffff" opacity="0.9" />
  <circle cx="187.88" cy="174.55" r="1.5" fill="#ffffff" opacity="0.9" />
  <circle cx="188.44" cy="174.34" r="1.5" fill="#ffffff" opacity="0.9" />
  <circle cx="189.84" cy="174.30" r="1.5" fill="#ffffff" opacity="0.9" />
  <circle cx="191.03" cy="173.86" r="1.5" fill="#ffffff" opacity="0.9" />
  <circle cx="191.41" cy="173.17" r="1.5" fill="#ffffff" opacity="0.9" />
  <circle cx="192.59" cy="173.98" r="1.5" fill="#ffffff" opacity="0.9" />
  <circle cx="192.26" cy="174.04" r="1.5" fill="#ffffff" opacity="0.9" />
  <circle cx="191.56" cy="175.39" r="1.5" fill="#ffffff" opacity="0.9" />
  <circle cx="192.10" cy="175.66" r="1.5" fill="#ffffff" opacity="0.9" />
  <circle cx="193.35" cy="177.01" r="1.5" fill="#ffffff" opacity="0.9" />
  <circle cx="194.06" cy="177.45" r="1.5" fill="#ffffff" opacity="0.9" />
  <circle cx="193.84" cy="176.95" r="1.5" fill="#ffffff" opacity="0.9" />
  <circle cx="193.64" cy="175.29" r="1.5" fill="#ffffff" opacity="0.9" />
  <circle cx="194.24" cy="174.79" r="1.5" fill="#ffffff" opacity="0.9" />
  <circle cx="194.18" cy="173.68" r="1.5" fill="#ffffff" opacity="0.9" />
  <circle cx="196.36" cy="170.91" r="1.5" fill="#ffffff" opacity="0.9" />
  <circle cx="200.00" cy="166.06" r="1.5" fill="#ffffff" opacity="0.9" />
  <circle cx="191.52" cy="161.21" r="1.5" fill="#ffffff" opacity="0.9" />
  <circle cx="196.36" cy="156.36" r="1.5" fill="#ffffff" opacity="0.9" />
  <circle cx="184.24" cy="143.03" r="1.5" fill="#ffffff" opacity="0.9" />
  <circle cx="181.82" cy="127.27" r="1.5" fill="#ffffff" opacity="0.9" />
  <circle cx="174.55" cy="124.85" r="1.5" fill="#ffffff" opacity="0.9" />
  <circle cx="179.39" cy="110.30" r="1.5" fill="#ffffff" opacity="0.9" />
  <circle cx="163.64" cy="95.76" r="1.5" fill="#ffffff" opacity="0.9" />
  <circle cx="155.15" cy="77.58" r="1.5" fill="#ffffff" opacity="0.9" />
  <circle cx="155.15" cy="66.67" r="1.5" fill="#ffffff" opacity="0.9" />
  <circle cx="150.30" cy="59.39" r="1.5" fill="#ffffff" opacity="0.9" />
  <circle cx="145.45" cy="83.64" r="1.5" fill="#ffffff" opacity="0.9" />
  <circle cx="141.82" cy="86.06" r="1.5" fill="#ffffff" opacity="0.9" />
  <circle cx="113.94" cy="55.76" r="1.5" fill="#ffffff" opacity="0.9" />
  <circle cx="132.12" cy="48.48" r="1.5" fill="#ffffff" opacity="0.9" />
  <circle cx="158.79" cy="40.00" r="1.5" fill="#ffffff" opacity="0.9" />
  <circle cx="161.21" cy="40.00" r="1.5" fill="#ffffff" opacity="0.9" />
  <circle cx="163.64" cy="43.64" r="1.5" fill="#ffffff" opacity="0.9" />
  <circle cx="166.06" cy="40.00" r="1.5" fill="#ffffff" opacity="0.9" />
  <circle cx="193.94" cy="55.76" r="1.5" fill="#ffffff" opacity="0.9" />
  <circle cx="223.03" cy="56.97" r="1.5" fill="#ffffff" opacity="0.9" />
  <circle cx="233.94" cy="63.03" r="1.5" fill="#ffffff" opacity="0.9" />
  <circle cx="233.94" cy="67.88" r="1.5" fill="#ffffff" opacity="0.9" />
  <circle cx="254.55" cy="66.67" r="1.5" fill="#ffffff" opacity="0.9" />
  <circle cx="256.97" cy="65.45" r="1.5" fill="#ffffff" opacity="0.9" />
  <circle cx="260.61" cy="53.33" r="1.5" fill="#ffffff" opacity="0.9" />
  <circle cx="271.52" cy="61.82" r="1.5" fill="#ffffff" opacity="0.9" />
  <circle cx="277.58" cy="63.03" r="1.5" fill="#ffffff" opacity="0.9" />
  <circle cx="278.79" cy="66.67" r="1.5" fill="#ffffff" opacity="0.9" />
  <circle cx="275.15" cy="69.09" r="1.5" fill="#ffffff" opacity="0.9" />
  <circle cx="259.39" cy="99.39" r="1.5" fill="#ffffff" opacity="0.9" />
  <circle cx="277.58" cy="83.64" r="1.5" fill="#ffffff" opacity="0.9" />
  <circle cx="280.00" cy="69.09" r="1.5" fill="#ffffff" opacity="0.9" />
  <circle cx="292.12" cy="66.67" r="1.5" fill="#ffffff" opacity="0.9" />
  <circle cx="317.58" cy="71.52" r="1.5" fill="#ffffff" opacity="0.9" />
  <circle cx="327.27" cy="77.58" r="1.5" fill="#ffffff" opacity="0.9" />
  <circle cx="335.76" cy="81.21" r="1.5" fill="#ffffff" opacity="0.9" />
  <circle cx="320.00" cy="63.03" r="1.5" fill="#ffffff" opacity="0.9" />
  <circle cx="320.00" cy="54.55" r="1.5" fill="#ffffff" opacity="0.9" />
  <circle cx="323.64" cy="53.33" r="1.5" fill="#ffffff" opacity="0.9" />
  <circle cx="338.18" cy="48.48" r="1.5" fill="#ffffff" opacity="0.9" />
  <circle cx="364.85" cy="54.55" r="1.5" fill="#ffffff" opacity="0.9" />
  <circle cx="367.27" cy="66.67" r="1.5" fill="#ffffff" opacity="0.9" />
  <circle cx="375.76" cy="58.18" r="1.5" fill="#ffffff" opacity="0.9" />
  <circle cx="375.76" cy="64.24" r="1.5" fill="#ffffff" opacity="0.9" />
  <circle cx="374.55" cy="66.67" r="1.5" fill="#ffffff" opacity="0.9" />
  <circle cx="379.39" cy="67.88" r="1.5" fill="#ffffff" opacity="0.9" />
  <circle cx="376.97" cy="75.15" r="1.5" fill="#ffffff" opacity="0.9" />
  <circle cx="384.24" cy="76.36" r="1.5" fill="#ffffff" opacity="0.9" />
  <circle cx="392.73" cy="82.42" r="1.5" fill="#ffffff" opacity="0.9" />
  <circle cx="401.21" cy="92.12" r="1.5" fill="#ffffff" opacity="0.9" />
  <circle cx="410.91" cy="94.55" r="1.5" fill="#ffffff" opacity="0.9" />
  <circle cx="456.97" cy="109.09" r="1.5" fill="#ffffff" opacity="0.9" />
  <circle cx="471.52" cy="104.24" r="1.5" fill="#ffffff" opacity="0.9" />
  <circle cx="459.39" cy="141.82" r="1.5" fill="#ffffff" opacity="0.9" />
  <circle cx="464.24" cy="149.09" r="1.5" fill="#ffffff" opacity="0.9" />
  <circle cx="467.88" cy="166.06" r="1.5" fill="#ffffff" opacity="0.9" />
  <circle cx="475.15" cy="161.21" r="1.5" fill="#ffffff" opacity="0.9" />
  <circle cx="484.75" cy="142.73" r="1.5" fill="#ffffff" opacity="0.9" />
  <circle cx="494.16" cy="138.59" r="1.5" fill="#ffffff" opacity="0.9" />
  <circle cx="503.03" cy="153.94" r="1.5" fill="#ffffff" opacity="0.9" />
  <circle cx="515.15" cy="189.09" r="1.5" fill="#ffffff" opacity="0.9" />
  <circle cx="512.73" cy="200.00" r="1.5" fill="#ffffff" opacity="0.9" />
  <circle cx="507.88" cy="208.48" r="1.5" fill="#ffffff" opacity="0.9" />
  <circle cx="504.24" cy="209.70" r="1.5" fill="#ffffff" opacity="0.9" />
  <circle cx="509.09" cy="210.91" r="1.5" fill="#ffffff" opacity="0.9" />
  <circle cx="512.73" cy="231.52" r="1.5" fill="#ffffff" opacity="0.9" />
  <circle cx="513.94" cy="256.97" r="1.5" fill="#ffffff" opacity="0.9" />
  <circle cx="506.67" cy="252.12" r="1.5" fill="#ffffff" opacity="0.9" />
  <circle cx="504.24" cy="246.06" r="1.5" fill="#ffffff" opacity="0.9" />
  <circle cx="499.39" cy="244.85" r="1.5" fill="#ffffff" opacity="0.9" />
  <circle cx="492.16" cy="254.99" r="1.5" fill="#ffffff" opacity="0.9" />
  <circle cx="478.79" cy="266.67" r="1.5" fill="#ffffff" opacity="0.9" />
  <circle cx="456.97" cy="264.24" r="1.5" fill="#ffffff" opacity="0.9" />
  <circle cx="463.03" cy="290.91" r="1.5" fill="#ffffff" opacity="0.9" />
  <circle cx="487.27" cy="304.24" r="1.5" fill="#ffffff" opacity="0.9" />
  <circle cx="487.27" cy="300.61" r="1.5" fill="#ffffff" opacity="0.9" />
  <circle cx="495.76" cy="287.27" r="1.5" fill="#ffffff" opacity="0.9" />
  <circle cx="499.39" cy="303.03" r="1.5" fill="#ffffff" opacity="0.9" />
  <circle cx="495.76" cy="303.03" r="1.5" fill="#ffffff" opacity="0.9" />
  <circle cx="492.12" cy="303.03" r="1.5" fill="#ffffff" opacity="0.9" />
  <circle cx="492.12" cy="315.15" r="1.5" fill="#ffffff" opacity="0.9" />
  <circle cx="476.36" cy="315.15" r="1.5" fill="#ffffff" opacity="0.9" />
  <circle cx="473.96" cy="320.63" r="1.5" fill="#ffffff" opacity="0.9" />
  <circle cx="472.73" cy="334.55" r="1.5" fill="#ffffff" opacity="0.9" />
  <circle cx="463.03" cy="339.39" r="1.5" fill="#ffffff" opacity="0.9" />
  <circle cx="456.97" cy="340.20" r="1.5" fill="#ffffff" opacity="0.9" />
  <circle cx="430.30" cy="303.03" r="1.5" fill="#ffffff" opacity="0.9" />
  <circle cx="420.20" cy="297.58" r="1.5" fill="#ffffff" opacity="0.9" />
  <circle cx="425.45" cy="313.94" r="1.5" fill="#ffffff" opacity="0.9" />
  <circle cx="424.24" cy="327.27" r="1.5" fill="#ffffff" opacity="0.9" />
  <circle cx="420.61" cy="329.70" r="1.5" fill="#ffffff" opacity="0.9" />
  <circle cx="419.39" cy="333.33" r="1.5" fill="#ffffff" opacity="0.9" />
  <circle cx="399.94" cy="318.69" r="1.5" fill="#ffffff" opacity="0.9" />
  <circle cx="391.52" cy="309.09" r="1.5" fill="#ffffff" opacity="0.9" />
  <circle cx="390.30" cy="306.67" r="1.5" fill="#ffffff" opacity="0.9" />
  <circle cx="393.94" cy="305.45" r="1.5" fill="#ffffff" opacity="0.9" />
  <circle cx="410.91" cy="290.91" r="1.5" fill="#ffffff" opacity="0.9" />
  <circle cx="407.21" cy="278.69" r="1.5" fill="#ffffff" opacity="0.9" />
  <circle cx="384.24" cy="280.00" r="1.5" fill="#ffffff" opacity="0.9" />
  <circle cx="363.64" cy="290.91" r="1.5" fill="#ffffff" opacity="0.9" />
  <circle cx="368.48" cy="307.88" r="1.5" fill="#ffffff" opacity="0.9" />
  <circle cx="353.94" cy="310.30" r="1.5" fill="#ffffff" opacity="0.9" />
  <circle cx="336.97" cy="315.15" r="1.5" fill="#ffffff" opacity="0.9" />
  <circle cx="336.97" cy="303.03" r="1.5" fill="#ffffff" opacity="0.9" />
  <circle cx="332.12" cy="293.33" r="1.5" fill="#ffffff" opacity="0.9" />
  <circle cx="330.91" cy="281.21" r="1.5" fill="#ffffff" opacity="0.9" />
  <circle cx="346.26" cy="279.39" r="1.5" fill="#ffffff" opacity="0.9" />
  <circle cx="355.11" cy="265.35" r="1.5" fill="#ffffff" opacity="0.9" />
  <circle cx="373.13" cy="265.35" r="1.5" fill="#ffffff" opacity="0.9" />
  <circle cx="376.97" cy="254.55" r="1.5" fill="#ffffff" opacity="0.9" />
  <circle cx="387.88" cy="263.03" r="1.5" fill="#ffffff" opacity="0.9" />
  <circle cx="397.58" cy="253.33" r="1.5" fill="#ffffff" opacity="0.9" />
  <circle cx="414.55" cy="242.42" r="1.5" fill="#ffffff" opacity="0.9" />
  <circle cx="423.03" cy="237.58" r="1.5" fill="#ffffff" opacity="0.9" />
  <circle cx="410.91" cy="198.79" r="1.5" fill="#ffffff" opacity="0.9" />
  <circle cx="418.14" cy="199.80" r="1.5" fill="#ffffff" opacity="0.9" />
  <circle cx="443.64" cy="203.64" r="1.5" fill="#ffffff" opacity="0.9" />
  <circle cx="455.76" cy="203.64" r="1.5" fill="#ffffff" opacity="0.9" />
  <circle cx="456.28" cy="203.96" r="1.5" fill="#ffffff" opacity="0.9" />
  <circle cx="453.33" cy="183.03" r="1.5" fill="#ffffff" opacity="0.9" />
  <circle cx="436.36" cy="163.64" r="1.5" fill="#ffffff" opacity="0.9" />
  <circle cx="421.82" cy="157.58" r="1.5" fill="#ffffff" opacity="0.9" />
  <circle cx="427.88" cy="151.52" r="1.5" fill="#ffffff" opacity="0.9" />
  <circle cx="426.67" cy="145.45" r="1.5" fill="#ffffff" opacity="0.9" />
  <circle cx="437.58" cy="144.24" r="1.5" fill="#ffffff" opacity="0.9" />
  <circle cx="429.09" cy="135.76" r="1.5" fill="#ffffff" opacity="0.9" />
  <circle cx="423.03" cy="130.91" r="1.5" fill="#ffffff" opacity="0.9" />
  <circle cx="403.54" cy="138.79" r="1.5" fill="#ffffff" opacity="0.9" />
  <circle cx="396.57" cy="155.35" r="1.5" fill="#ffffff" opacity="0.9" />
  <circle cx="392.73" cy="161.21" r="1.5" fill="#ffffff" opacity="0.9" />
  <circle cx="397.37" cy="175.96" r="1.5" fill="#ffffff" opacity="0.9" />
  <circle cx="384.24" cy="203.64" r="1.5" fill="#ffffff" opacity="0.9" />
  <circle cx="392.73" cy="218.18" r="1.5" fill="#ffffff" opacity="0.9" />
  <circle cx="393.94" cy="227.88" r="1.5" fill="#ffffff" opacity="0.9" />
  <circle cx="375.76" cy="219.39" r="1.5" fill="#ffffff" opacity="0.9" />
  <circle cx="361.21" cy="230.30" r="1.5" fill="#ffffff" opacity="0.9" />
  <circle cx="346.67" cy="253.33" r="1.5" fill="#ffffff" opacity="0.9" />
  <circle cx="328.48" cy="256.97" r="1.5" fill="#ffffff" opacity="0.9" />
  <circle cx="318.79" cy="261.82" r="1.5" fill="#ffffff" opacity="0.9" />
  <circle cx="306.67" cy="255.76" r="1.5" fill="#ffffff" opacity="0.9" />
  <circle cx="304.24" cy="243.64" r="1.5" fill="#ffffff" opacity="0.9" />
  <circle cx="278.79" cy="249.70" r="1.5" fill="#ffffff" opacity="0.9" />
  <circle cx="275.15" cy="253.33" r="1.5" fill="#ffffff" opacity="0.9" />
  <circle cx="276.36" cy="236.36" r="1.5" fill="#ffffff" opacity="0.9" />
  <circle cx="300.61" cy="218.18" r="1.5" fill="#ffffff" opacity="0.9" />
  <circle cx="311.52" cy="196.36" r="1.5" fill="#ffffff" opacity="0.9" />
  <circle cx="315.15" cy="200.00" r="1.5" fill="#ffffff" opacity="0.9" />
  <circle cx="322.42" cy="202.42" r="1.5" fill="#ffffff" opacity="0.9" />
  <circle cx="326.06" cy="196.36" r="1.5" fill="#ffffff" opacity="0.9" />
  <circle cx="333.33" cy="208.48" r="1.5" fill="#ffffff" opacity="0.9" />
  <circle cx="345.05" cy="201.82" r="1.5" fill="#ffffff" opacity="0.9" />
  <circle cx="353.94" cy="219.39" r="1.5" fill="#ffffff" opacity="0.9" />
  <circle cx="356.36" cy="221.82" r="1.5" fill="#ffffff" opacity="0.9" />
  <circle cx="358.79" cy="218.18" r="1.5" fill="#ffffff" opacity="0.9" />
  <circle cx="356.36" cy="198.79" r="1.5" fill="#ffffff" opacity="0.9" />
  <circle cx="358.79" cy="197.58" r="1.5" fill="#ffffff" opacity="0.9" />
  <circle cx="358.79" cy="196.36" r="1.5" fill="#ffffff" opacity="0.9" />
  <circle cx="365.66" cy="196.16" r="1.5" fill="#ffffff" opacity="0.9" />
  <circle cx="372.12" cy="190.30" r="1.5" fill="#ffffff" opacity="0.9" />
  <circle cx="364.85" cy="178.18" r="1.5" fill="#ffffff" opacity="0.9" />
  <circle cx="356.36" cy="164.85" r="1.5" fill="#ffffff" opacity="0.9" />
  <circle cx="366.06" cy="160.00" r="1.5" fill="#ffffff" opacity="0.9" />
  <circle cx="368.48" cy="153.94" r="1.5" fill="#ffffff" opacity="0.9" />
  <circle cx="378.18" cy="151.52" r="1.5" fill="#ffffff" opacity="0.9" />
  <circle cx="381.82" cy="151.52" r="1.5" fill="#ffffff" opacity="0.9" />
  <circle cx="386.67" cy="121.21" r="1.5" fill="#ffffff" opacity="0.9" />
  <circle cx="383.23" cy="114.14" r="1.5" fill="#ffffff" opacity="0.9" />
  <circle cx="383.03" cy="104.24" r="1.5" fill="#ffffff" opacity="0.9" />
  <circle cx="380.61" cy="93.33" r="1.5" fill="#ffffff" opacity="0.9" />
  <circle cx="379.39" cy="82.42" r="1.5" fill="#ffffff" opacity="0.9" />
  <circle cx="350.30" cy="87.27" r="1.5" fill="#ffffff" opacity="0.9" />
  <circle cx="332.12" cy="123.64" r="1.5" fill="#ffffff" opacity="0.9" />
  <circle cx="348.08" cy="137.98" r="1.5" fill="#ffffff" opacity="0.9" />
  <circle cx="358.79" cy="139.39" r="1.5" fill="#ffffff" opacity="0.9" />
  <circle cx="353.94" cy="150.30" r="1.5" fill="#ffffff" opacity="0.9" />
  <circle cx="350.30" cy="152.73" r="1.5" fill="#ffffff" opacity="0.9" />
  <circle cx="327.27" cy="172.12" r="1.5" fill="#ffffff" opacity="0.9" />
  <circle cx="313.94" cy="168.48" r="1.5" fill="#ffffff" opacity="0.9" />
  <circle cx="304.24" cy="152.73" r="1.5" fill="#ffffff" opacity="0.9" />
  <circle cx="284.85" cy="129.70" r="1.5" fill="#ffffff" opacity="0.9" />
  <circle cx="259.39" cy="112.73" r="1.5" fill="#ffffff" opacity="0.9" />
  <circle cx="247.27" cy="103.03" r="1.5" fill="#ffffff" opacity="0.9" />
  <circle cx="246.06" cy="103.03" r="1.5" fill="#ffffff" opacity="0.9" />
  <circle cx="227.88" cy="107.88" r="1.5" fill="#ffffff" opacity="0.9" />
  <circle cx="218.18" cy="122.42" r="1.5" fill="#ffffff" opacity="0.9" />
  <circle cx="219.39" cy="134.55" r="1.5" fill="#ffffff" opacity="0.9" />
  <circle cx="220.61" cy="144.24" r="1.5" fill="#ffffff" opacity="0.9" />
  <circle cx="220.61" cy="155.15" r="1.5" fill="#ffffff" opacity="0.9" />
  <circle cx="213.33" cy="160.00" r="1.5" fill="#ffffff" opacity="0.9" />
  <circle cx="209.70" cy="161.21" r="1.5" fill="#ffffff" opacity="0.9" />
  <circle cx="213.33" cy="168.48" r="1.5" fill="#ffffff" opacity="0.9" />
  <circle cx="214.55" cy="172.12" r="1.5" fill="#ffffff" opacity="0.9" />
  <circle cx="219.39" cy="167.27" r="1.5" fill="#ffffff" opacity="0.9" />
  <circle cx="230.30" cy="169.70" r="1.5" fill="#ffffff" opacity="0.9" />
  <circle cx="230.30" cy="174.55" r="1.5" fill="#ffffff" opacity="0.9" />
  <circle cx="226.67" cy="176.97" r="1.5" fill="#ffffff" opacity="0.9" />
  <circle cx="209.70" cy="176.97" r="1.5" fill="#ffffff" opacity="0.9" />
  <circle cx="208.48" cy="176.97" r="1.5" fill="#ffffff" opacity="0.9" />
  <circle cx="206.06" cy="179.39" r="1.5" fill="#ffffff" opacity="0.9" />
  <circle cx="214.55" cy="191.52" r="1.5" fill="#ffffff" opacity="0.9" />
  <circle cx="220.61" cy="206.06" r="1.5" fill="#ffffff" opacity="0.9" />
  <circle cx="226.67" cy="193.94" r="1.5" fill="#ffffff" opacity="0.9" />
  <circle cx="223.03" cy="189.09" r="1.5" fill="#ffffff" opacity="0.9" />
  <circle cx="248.48" cy="180.61" r="1.5" fill="#ffffff" opacity="0.9" />
  <circle cx="229.09" cy="157.58" r="1.5" fill="#ffffff" opacity="0.9" />
  <circle cx="235.15" cy="158.79" r="1.5" fill="#ffffff" opacity="0.9" />
  <circle cx="244.85" cy="155.15" r="1.5" fill="#ffffff" opacity="0.9" />
  <circle cx="241.21" cy="146.67" r="1.5" fill="#ffffff" opacity="0.9" />
  <circle cx="236.36" cy="128.48" r="1.5" fill="#ffffff" opacity="0.9" />
  <circle cx="252.12" cy="143.03" r="1.5" fill="#ffffff" opacity="0.9" />
  <circle cx="272.73" cy="163.64" r="1.5" fill="#ffffff" opacity="0.9" />
  <circle cx="286.06" cy="172.12" r="1.5" fill="#ffffff" opacity="0.9" />
  <circle cx="280.00" cy="181.82" r="1.5" fill="#ffffff" opacity="0.9" />
  <circle cx="281.21" cy="191.52" r="1.5" fill="#ffffff" opacity="0.9" />
  <circle cx="259.39" cy="197.58" r="1.5" fill="#ffffff" opacity="0.9" />
  <circle cx="246.06" cy="218.18" r="1.5" fill="#ffffff" opacity="0.9" />
  <circle cx="241.21" cy="206.06" r="1.5" fill="#ffffff" opacity="0.9" />
  <circle cx="235.15" cy="207.27" r="1.5" fill="#ffffff" opacity="0.9" />
  <circle cx="229.09" cy="207.27" r="1.5" fill="#ffffff" opacity="0.9" />
  <circle cx="231.52" cy="213.33" r="1.5" fill="#ffffff" opacity="0.9" />
  <circle cx="230.30" cy="213.33" r="1.5" fill="#ffffff" opacity="0.9" />
  <circle cx="230.30" cy="214.55" r="1.5" fill="#ffffff" opacity="0.9" />
  <circle cx="226.67" cy="215.76" r="1.5" fill="#ffffff" opacity="0.9" />
  <circle cx="213.33" cy="224.24" r="1.5" fill="#ffffff" opacity="0.9" />
  <circle cx="204.85" cy="225.45" r="1.5" fill="#ffffff" opacity="0.9" />
  <circle cx="198.79" cy="206.06" r="1.5" fill="#ffffff" opacity="0.9" />
  <circle cx="186.67" cy="216.97" r="1.5" fill="#ffffff" opacity="0.9" />
  <circle cx="181.82" cy="221.82" r="1.5" fill="#ffffff" opacity="0.9" />
  <circle cx="190.30" cy="227.88" r="1.5" fill="#ffffff" opacity="0.9" />
  <circle cx="190.30" cy="244.85" r="1.5" fill="#ffffff" opacity="0.9" />
  <circle cx="209.70" cy="246.06" r="1.5" fill="#ffffff" opacity="0.9" />
  <circle cx="216.97" cy="247.27" r="1.5" fill="#ffffff" opacity="0.9" />
  <circle cx="216.97" cy="246.06" r="1.5" fill="#ffffff" opacity="0.9" />
  <circle cx="229.09" cy="241.21" r="1.5" fill="#ffffff" opacity="0.9" />
  <circle cx="233.94" cy="250.91" r="1.5" fill="#ffffff" opacity="0.9" />
  <circle cx="230.30" cy="258.18" r="1.5" fill="#ffffff" opacity="0.9" />
  <circle cx="221.82" cy="263.03" r="1.5" fill="#ffffff" opacity="0.9" />
  <circle cx="216.97" cy="263.03" r="1.5" fill="#ffffff" opacity="0.9" />
  <circle cx="214.55" cy="261.82" r="1.5" fill="#ffffff" opacity="0.9" />
  <circle cx="214.55" cy="264.24" r="1.5" fill="#ffffff" opacity="0.9" />
  <circle cx="212.12" cy="267.88" r="1.5" fill="#ffffff" opacity="0.9" />
  <circle cx="215.76" cy="267.88" r="1.5" fill="#ffffff" opacity="0.9" />
  <circle cx="216.97" cy="286.06" r="1.5" fill="#ffffff" opacity="0.9" />
  <circle cx="223.03" cy="271.52" r="1.5" fill="#ffffff" opacity="0.9" />
  <circle cx="232.73" cy="263.03" r="1.5" fill="#ffffff" opacity="0.9" />
  <circle cx="232.73" cy="265.45" r="1.5" fill="#ffffff" opacity="0.9" />
  <circle cx="235.15" cy="266.67" r="1.5" fill="#ffffff" opacity="0.9" />
  <circle cx="240.00" cy="270.30" r="1.5" fill="#ffffff" opacity="0.9" />
  <circle cx="250.91" cy="269.09" r="1.5" fill="#ffffff" opacity="0.9" />
  <circle cx="254.55" cy="272.73" r="1.5" fill="#ffffff" opacity="0.9" />
  <circle cx="273.94" cy="269.09" r="1.5" fill="#ffffff" opacity="0.9" />
  <circle cx="273.94" cy="270.30" r="1.5" fill="#ffffff" opacity="0.9" />
  <circle cx="281.21" cy="276.36" r="1.5" fill="#ffffff" opacity="0.9" />
  <circle cx="282.42" cy="272.73" r="1.5" fill="#ffffff" opacity="0.9" />
  <circle cx="290.91" cy="271.52" r="1.5" fill="#ffffff" opacity="0.9" />
  <circle cx="294.55" cy="270.30" r="1.5" fill="#ffffff" opacity="0.9" />
  <circle cx="312.73" cy="270.30" r="1.5" fill="#ffffff" opacity="0.9" />
  <circle cx="313.94" cy="273.94" r="1.5" fill="#ffffff" opacity="0.9" />
  <circle cx="316.36" cy="275.15" r="1.5" fill="#ffffff" opacity="0.9" />
  <circle cx="313.94" cy="275.15" r="1.5" fill="#ffffff" opacity="0.9" />
  <circle cx="300.61" cy="284.85" r="1.5" fill="#ffffff" opacity="0.9" />
  <circle cx="307.88" cy="286.06" r="1.5" fill="#ffffff" opacity="0.9" />
  <circle cx="306.67" cy="288.48" r="1.5" fill="#ffffff" opacity="0.9" />
  <circle cx="296.97" cy="311.52" r="1.5" fill="#ffffff" opacity="0.9" />
  <circle cx="311.52" cy="333.33" r="1.5" fill="#ffffff" opacity="0.9" />
  <circle cx="316.36" cy="347.88" r="1.5" fill="#ffffff" opacity="0.9" />
  <circle cx="315.15" cy="361.21" r="1.5" fill="#ffffff" opacity="0.9" />
  <circle cx="290.91" cy="353.94" r="1.5" fill="#ffffff" opacity="0.9" />
  <circle cx="286.06" cy="350.30" r="1.5" fill="#ffffff" opacity="0.9" />
  <circle cx="282.42" cy="358.79" r="1.5" fill="#ffffff" opacity="0.9" />
  <circle cx="281.21" cy="362.42" r="1.5" fill="#ffffff" opacity="0.9" />
  <circle cx="281.21" cy="363.64" r="1.5" fill="#ffffff" opacity="0.9" />
  <circle cx="305.45" cy="368.48" r="1.5" fill="#ffffff" opacity="0.9" />
  <circle cx="309.09" cy="369.70" r="1.5" fill="#ffffff" opacity="0.9" />
  <circle cx="309.09" cy="373.33" r="1.5" fill="#ffffff" opacity="0.9" />
  <circle cx="322.42" cy="400.00" r="1.5" fill="#ffffff" opacity="0.9" />
  <circle cx="343.03" cy="383.03" r="1.5" fill="#ffffff" opacity="0.9" />
  <circle cx="358.24" cy="372.85" r="1.5" fill="#ffffff" opacity="0.9" />
  <circle cx="358.38" cy="371.19" r="1.5" fill="#ffffff" opacity="0.9" />
  <circle cx="360.24" cy="367.88" r="1.5" fill="#ffffff" opacity="0.9" />
  <circle cx="360.00" cy="366.06" r="1.5" fill="#ffffff" opacity="0.9" />
  <circle cx="360.61" cy="366.14" r="1.5" fill="#ffffff" opacity="0.9" />
  <circle cx="361.64" cy="366.38" r="1.5" fill="#ffffff" opacity="0.9" />
  <circle cx="362.30" cy="366.44" r="1.5" fill="#ffffff" opacity="0.9" />
  <circle cx="362.69" cy="365.64" r="1.5" fill="#ffffff" opacity="0.9" />
  <circle cx="362.63" cy="364.81" r="1.5" fill="#ffffff" opacity="0.9" />
  <circle cx="361.47" cy="365.25" r="1.5" fill="#ffffff" opacity="0.9" />
  <circle cx="360.30" cy="364.79" r="1.5" fill="#ffffff" opacity="0.9" />
  <circle cx="361.01" cy="364.04" r="1.5" fill="#ffffff" opacity="0.9" />
  <circle cx="361.58" cy="363.98" r="1.5" fill="#ffffff" opacity="0.9" />
  <circle cx="362.63" cy="363.70" r="1.5" fill="#ffffff" opacity="0.9" />
  <circle cx="363.09" cy="363.76" r="1.5" fill="#ffffff" opacity="0.9" />
  <circle cx="361.84" cy="362.87" r="1.5" fill="#ffffff" opacity="0.9" />
  <circle cx="360.00" cy="362.42" r="1.5" fill="#ffffff" opacity="0.9" />
  <circle cx="358.91" cy="362.28" r="1.5" fill="#ffffff" opacity="0.9" />
  <circle cx="359.49" cy="362.14" r="1.5" fill="#ffffff" opacity="0.9" />
  <circle cx="359.92" cy="361.78" r="1.5" fill="#ffffff" opacity="0.9" />
  <circle cx="359.47" cy="360.65" r="1.5" fill="#ffffff" opacity="0.9" />
  <circle cx="359.52" cy="359.80" r="1.5" fill="#ffffff" opacity="0.9" />
  <circle cx="359.31" cy="360.08" r="1.5" fill="#ffffff" opacity="0.9" />
  <circle cx="358.63" cy="361.05" r="1.5" fill="#ffffff" opacity="0.9" />
  <circle cx="358.18" cy="359.86" r="1.5" fill="#ffffff" opacity="0.9" />
  <circle cx="358.79" cy="359.47" r="1.5" fill="#ffffff" opacity="0.9" />
  <circle cx="359.54" cy="358.95" r="1.5" fill="#ffffff" opacity="0.9" />
  <circle cx="360.02" cy="359.05" r="1.5" fill="#ffffff" opacity="0.9" />
  <circle cx="360.55" cy="359.37" r="1.5" fill="#ffffff" opacity="0.9" />
  <circle cx="360.14" cy="360.38" r="1.5" fill="#ffffff" opacity="0.9" />
  <circle cx="361.41" cy="359.56" r="1.5" fill="#ffffff" opacity="0.9" />
  <circle cx="361.41" cy="359.96" r="1.5" fill="#ffffff" opacity="0.9" />
  <circle cx="362.02" cy="360.34" r="1.5" fill="#ffffff" opacity="0.9" />
  <circle cx="362.30" cy="359.43" r="1.5" fill="#ffffff" opacity="0.9" />
  <circle cx="363.33" cy="359.17" r="1.5" fill="#ffffff" opacity="0.9" />
  <circle cx="362.99" cy="358.79" r="1.5" fill="#ffffff" opacity="0.9" />
  <circle cx="362.26" cy="358.57" r="1.5" fill="#ffffff" opacity="0.9" />
  <circle cx="361.68" cy="358.59" r="1.5" fill="#ffffff" opacity="0.9" />
  <circle cx="361.68" cy="358.08" r="1.5" fill="#ffffff" opacity="0.9" />
  <circle cx="361.19" cy="357.68" r="1.5" fill="#ffffff" opacity="0.9" />
  <circle cx="360.99" cy="358.44" r="1.5" fill="#ffffff" opacity="0.9" />
  <circle cx="360.81" cy="359.01" r="1.5" fill="#ffffff" opacity="0.9" />
  <circle cx="360.46" cy="358.36" r="1.5" fill="#ffffff" opacity="0.9" />
  <circle cx="360.24" cy="358.30" r="1.5" fill="#ffffff" opacity="0.9" />
  <circle cx="360.06" cy="358.04" r="1.5" fill="#ffffff" opacity="0.9" />
  <circle cx="359.90" cy="357.94" r="1.5" fill="#ffffff" opacity="0.9" />
  <circle cx="359.64" cy="357.86" r="1.5" fill="#ffffff" opacity="0.9" />
  <circle cx="359.72" cy="357.13" r="1.5" fill="#ffffff" opacity="0.9" />
  <circle cx="360.24" cy="357.19" r="1.5" fill="#ffffff" opacity="0.9" />
  <circle cx="360.00" cy="356.00" r="1.5" fill="#ffffff" opacity="0.9" />
  <circle cx="360.10" cy="355.49" r="1.5" fill="#ffffff" opacity="0.9" />
  <circle cx="360.46" cy="354.95" r="1.5" fill="#ffffff" opacity="0.9" />
  <circle cx="360.04" cy="354.95" r="1.5" fill="#ffffff" opacity="0.9" />
  <circle cx="358.55" cy="354.55" r="1.5" fill="#ffffff" opacity="0.9" />
  <circle cx="359.84" cy="352.91" r="1.5" fill="#ffffff" opacity="0.9" />
  <circle cx="361.01" cy="352.57" r="1.5" fill="#ffffff" opacity="0.9" />
  <circle cx="364.75" cy="353.01" r="1.5" fill="#ffffff" opacity="0.9" />
  <circle cx="364.97" cy="353.60" r="1.5" fill="#ffffff" opacity="0.9" />
  <circle cx="365.43" cy="354.22" r="1.5" fill="#ffffff" opacity="0.9" />
  <circle cx="366.34" cy="353.86" r="1.5" fill="#ffffff" opacity="0.9" />
  <circle cx="365.88" cy="355.21" r="1.5" fill="#ffffff" opacity="0.9" />
  <circle cx="364.65" cy="354.97" r="1.5" fill="#ffffff" opacity="0.9" />
  <circle cx="362.46" cy="355.11" r="1.5" fill="#ffffff" opacity="0.9" />
  <circle cx="362.06" cy="356.53" r="1.5" fill="#ffffff" opacity="0.9" />
  <circle cx="363.07" cy="357.13" r="1.5" fill="#ffffff" opacity="0.9" />
  <circle cx="363.15" cy="357.62" r="1.5" fill="#ffffff" opacity="0.9" />
  <circle cx="363.64" cy="357.58" r="1.5" fill="#ffffff" opacity="0.9" />
  <circle cx="364.46" cy="358.06" r="1.5" fill="#ffffff" opacity="0.9" />
  <circle cx="364.24" cy="358.71" r="1.5" fill="#ffffff" opacity="0.9" />
  <circle cx="363.60" cy="359.13" r="1.5" fill="#ffffff" opacity="0.9" />
  <circle cx="363.82" cy="359.90" r="1.5" fill="#ffffff" opacity="0.9" />
  <circle cx="363.64" cy="360.00" r="1.5" fill="#ffffff" opacity="0.9" />
  <circle cx="363.05" cy="360.59" r="1.5" fill="#ffffff" opacity="0.9" />
  <circle cx="362.10" cy="360.97" r="1.5" fill="#ffffff" opacity="0.9" />
  <circle cx="362.59" cy="361.05" r="1.5" fill="#ffffff" opacity="0.9" />
  <circle cx="362.93" cy="361.37" r="1.5" fill="#ffffff" opacity="0.9" />
  <circle cx="363.43" cy="361.37" r="1.5" fill="#ffffff" opacity="0.9" />
  <circle cx="362.77" cy="362.24" r="1.5" fill="#ffffff" opacity="0.9" />
  <circle cx="363.27" cy="363.09" r="1.5" fill="#ffffff" opacity="0.9" />
  <circle cx="363.82" cy="363.39" r="1.5" fill="#ffffff" opacity="0.9" />
  <circle cx="363.58" cy="363.92" r="1.5" fill="#ffffff" opacity="0.9" />
  <circle cx="363.52" cy="364.53" r="1.5" fill="#ffffff" opacity="0.9" />
  <circle cx="363.98" cy="364.22" r="1.5" fill="#ffffff" opacity="0.9" />
  <circle cx="364.67" cy="364.24" r="1.5" fill="#ffffff" opacity="0.9" />
  <circle cx="364.55" cy="363.23" r="1.5" fill="#ffffff" opacity="0.9" />
  <circle cx="365.29" cy="362.95" r="1.5" fill="#ffffff" opacity="0.9" />
  <circle cx="365.74" cy="363.58" r="1.5" fill="#ffffff" opacity="0.9" />
  <circle cx="366.22" cy="361.76" r="1.5" fill="#ffffff" opacity="0.9" />
  <circle cx="364.91" cy="361.96" r="1.5" fill="#ffffff" opacity="0.9" />
  <circle cx="364.04" cy="362.14" r="1.5" fill="#ffffff" opacity="0.9" />
  <circle cx="364.30" cy="361.70" r="1.5" fill="#ffffff" opacity="0.9" />
  <circle cx="364.57" cy="361.07" r="1.5" fill="#ffffff" opacity="0.9" />
  <circle cx="365.21" cy="360.87" r="1.5" fill="#ffffff" opacity="0.9" />
  <circle cx="365.25" cy="360.34" r="1.5" fill="#ffffff" opacity="0.9" />
  <circle cx="366.67" cy="361.09" r="1.5" fill="#ffffff" opacity="0.9" />
  <circle cx="367.13" cy="361.80" r="1.5" fill="#ffffff" opacity="0.9" />
  <circle cx="367.33" cy="361.15" r="1.5" fill="#ffffff" opacity="0.9" />
  <circle cx="367.41" cy="360.44" r="1.5" fill="#ffffff" opacity="0.9" />
  <circle cx="366.87" cy="360.12" r="1.5" fill="#ffffff" opacity="0.9" />
  <circle cx="366.14" cy="359.80" r="1.5" fill="#ffffff" opacity="0.9" />
  <circle cx="366.38" cy="359.23" r="1.5" fill="#ffffff" opacity="0.9" />
  <circle cx="366.18" cy="358.71" r="1.5" fill="#ffffff" opacity="0.9" />
  <circle cx="367.19" cy="357.33" r="1.5" fill="#ffffff" opacity="0.9" />
  <circle cx="366.55" cy="357.29" r="1.5" fill="#ffffff" opacity="0.9" />
  <circle cx="365.78" cy="358.08" r="1.5" fill="#ffffff" opacity="0.9" />
  <circle cx="365.15" cy="357.47" r="1.5" fill="#ffffff" opacity="0.9" />
  <circle cx="365.31" cy="356.59" r="1.5" fill="#ffffff" opacity="0.9" />
  <circle cx="366.06" cy="356.36" r="1.5" fill="#ffffff" opacity="0.9" />
  <circle cx="366.77" cy="356.16" r="1.5" fill="#ffffff" opacity="0.9" />
  <circle cx="367.23" cy="356.46" r="1.5" fill="#ffffff" opacity="0.9" />
  <circle cx="368.32" cy="354.97" r="1.5" fill="#ffffff" opacity="0.9" />
  <circle cx="368.42" cy="354.08" r="1.5" fill="#ffffff" opacity="0.9" />
  <circle cx="368.16" cy="352.85" r="1.5" fill="#ffffff" opacity="0.9" />
  <circle cx="367.58" cy="350.44" r="1.5" fill="#ffffff" opacity="0.9" />
  <circle cx="367.90" cy="349.96" r="1.5" fill="#ffffff" opacity="0.9" />
  <circle cx="366.24" cy="348.93" r="1.5" fill="#ffffff" opacity="0.9" />
  <circle cx="363.58" cy="348.81" r="1.5" fill="#ffffff" opacity="0.9" />
  <circle cx="358.79" cy="345.45" r="1.5" fill="#ffffff" opacity="0.9" />
  <circle cx="353.94" cy="340.61" r="1.5" fill="#ffffff" opacity="0.9" />
  <circle cx="338.18" cy="347.88" r="1.5" fill="#ffffff" opacity="0.9" />
  <circle cx="335.76" cy="346.67" r="1.5" fill="#ffffff" opacity="0.9" />
  <circle cx="332.12" cy="344.24" r="1.5" fill="#ffffff" opacity="0.9" />
  <circle cx="329.70" cy="340.61" r="1.5" fill="#ffffff" opacity="0.9" />
  <circle cx="352.73" cy="334.55" r="1.5" fill="#ffffff" opacity="0.9" />
  <circle cx="369.70" cy="335.76" r="1.5" fill="#ffffff" opacity="0.9" />
  <circle cx="374.55" cy="334.55" r="1.5" fill="#ffffff" opacity="0.9" />
  <circle cx="379.39" cy="330.91" r="1.5" fill="#ffffff" opacity="0.9" />
  <circle cx="385.45" cy="326.06" r="1.5" fill="#ffffff" opacity="0.9" />
  <circle cx="390.28" cy="325.66" r="1.5" fill="#ffffff" opacity="0.9" />
  <circle cx="381.82" cy="336.97" r="1.5" fill="#ffffff" opacity="0.9" />
  <circle cx="369.98" cy="348.16" r="1.5" fill="#ffffff" opacity="0.9" />
  <circle cx="369.72" cy="348.12" r="1.5" fill="#ffffff" opacity="0.9" />
  <circle cx="369.72" cy="350.08" r="1.5" fill="#ffffff" opacity="0.9" />
  <circle cx="368.89" cy="350.71" r="1.5" fill="#ffffff" opacity="0.9" />
  <circle cx="369.05" cy="351.33" r="1.5" fill="#ffffff" opacity="0.9" />
  <circle cx="369.31" cy="354.46" r="1.5" fill="#ffffff" opacity="0.9" />
  <circle cx="370.18" cy="355.74" r="1.5" fill="#ffffff" opacity="0.9" />
  <circle cx="369.29" cy="356.02" r="1.5" fill="#ffffff" opacity="0.9" />
  <circle cx="369.31" cy="356.65" r="1.5" fill="#ffffff" opacity="0.9" />
  <circle cx="369.35" cy="357.45" r="1.5" fill="#ffffff" opacity="0.9" />
  <circle cx="369.41" cy="357.98" r="1.5" fill="#ffffff" opacity="0.9" />
  <circle cx="368.55" cy="357.66" r="1.5" fill="#ffffff" opacity="0.9" />
  <circle cx="367.78" cy="358.08" r="1.5" fill="#ffffff" opacity="0.9" />
  <circle cx="367.21" cy="358.79" r="1.5" fill="#ffffff" opacity="0.9" />
  <circle cx="367.64" cy="359.15" r="1.5" fill="#ffffff" opacity="0.9" />
  <circle cx="367.74" cy="360.10" r="1.5" fill="#ffffff" opacity="0.9" />
  <circle cx="368.34" cy="359.13" r="1.5" fill="#ffffff" opacity="0.9" />
  <circle cx="368.63" cy="359.58" r="1.5" fill="#ffffff" opacity="0.9" />
  <circle cx="368.89" cy="359.98" r="1.5" fill="#ffffff" opacity="0.9" />
  <circle cx="368.73" cy="360.34" r="1.5" fill="#ffffff" opacity="0.9" />
  <circle cx="368.85" cy="360.69" r="1.5" fill="#ffffff" opacity="0.9" />
  <circle cx="368.30" cy="361.82" r="1.5" fill="#ffffff" opacity="0.9" />
  <circle cx="367.27" cy="362.42" r="1.5" fill="#ffffff" opacity="0.9" />
  <circle cx="367.39" cy="363.56" r="1.5" fill="#ffffff" opacity="0.9" />
  <circle cx="367.09" cy="363.74" r="1.5" fill="#ffffff" opacity="0.9" />
  <circle cx="366.18" cy="364.83" r="1.5" fill="#ffffff" opacity="0.9" />
  <circle cx="366.20" cy="366.42" r="1.5" fill="#ffffff" opacity="0.9" />
  <circle cx="364.40" cy="365.47" r="1.5" fill="#ffffff" opacity="0.9" />
  <circle cx="363.41" cy="366.63" r="1.5" fill="#ffffff" opacity="0.9" />
  <circle cx="362.73" cy="367.09" r="1.5" fill="#ffffff" opacity="0.9" />
  <circle cx="363.23" cy="368.00" r="1.5" fill="#ffffff" opacity="0.9" />
  <circle cx="362.67" cy="369.19" r="1.5" fill="#ffffff" opacity="0.9" />
  <circle cx="369.13" cy="382.14" r="1.5" fill="#ffffff" opacity="0.9" />
  <circle cx="380.61" cy="386.67" r="1.5" fill="#ffffff" opacity="0.9" />
  <circle cx="379.39" cy="378.18" r="1.5" fill="#ffffff" opacity="0.9" />
  <circle cx="383.03" cy="367.27" r="1.5" fill="#ffffff" opacity="0.9" />
  <circle cx="383.03" cy="358.79" r="1.5" fill="#ffffff" opacity="0.9" />
  <circle cx="396.36" cy="374.55" r="1.5" fill="#ffffff" opacity="0.9" />
  <circle cx="397.58" cy="373.33" r="1.5" fill="#ffffff" opacity="0.9" />
  <circle cx="402.42" cy="372.12" r="1.5" fill="#ffffff" opacity="0.9" />
  <circle cx="419.39" cy="368.48" r="1.5" fill="#ffffff" opacity="0.9" />
  <circle cx="429.09" cy="369.70" r="1.5" fill="#ffffff" opacity="0.9" />
  <circle cx="455.76" cy="363.64" r="1.5" fill="#ffffff" opacity="0.9" />
  <circle cx="461.82" cy="396.36" r="1.5" fill="#ffffff" opacity="0.9" />
  <circle cx="440.00" cy="413.33" r="1.5" fill="#ffffff" opacity="0.9" />
  <circle cx="431.52" cy="423.03" r="1.5" fill="#ffffff" opacity="0.9" />
  <circle cx="403.64" cy="397.58" r="1.5" fill="#ffffff" opacity="0.9" />
  <circle cx="396.36" cy="413.33" r="1.5" fill="#ffffff" opacity="0.9" />
  <circle cx="387.88" cy="415.76" r="1.5" fill="#ffffff" opacity="0.9" />
  <circle cx="368.48" cy="419.39" r="1.5" fill="#ffffff" opacity="0.9" />
  <circle cx="367.27" cy="419.39" r="1.5" fill="#ffffff" opacity="0.9" />
  <circle cx="363.64" cy="424.24" r="1.5" fill="#ffffff" opacity="0.9" />
  <circle cx="360.00" cy="426.67" r="1.5" fill="#ffffff" opacity="0.9" />
  <circle cx="361.21" cy="427.88" r="1.5" fill="#ffffff" opacity="0.9" />
  <circle cx="364.85" cy="431.52" r="1.5" fill="#ffffff" opacity="0.9" />
  <circle cx="369.70" cy="453.33" r="1.5" fill="#ffffff" opacity="0.9" />
  <circle cx="368.48" cy="454.55" r="1.5" fill="#ffffff" opacity="0.9" />
  <circle cx="363.64" cy="453.33" r="1.5" fill="#ffffff" opacity="0.9" />
  <circle cx="360.00" cy="440.00" r="1.5" fill="#ffffff" opacity="0.9" />
  <circle cx="347.88" cy="427.88" r="1.5" fill="#ffffff" opacity="0.9" />
  <circle cx="347.88" cy="424.24" r="1.5" fill="#ffffff" opacity="0.9" />
  <circle cx="346.67" cy="418.18" r="1.5" fill="#ffffff" opacity="0.9" />
  <circle cx="355.15" cy="419.39" r="1.5" fill="#ffffff" opacity="0.9" />
  <circle cx="356.36" cy="419.39" r="1.5" fill="#ffffff" opacity="0.9" />
  <circle cx="361.21" cy="409.70" r="1.5" fill="#ffffff" opacity="0.9" />
  <circle cx="360.00" cy="406.06" r="1.5" fill="#ffffff" opacity="0.9" />
  <circle cx="355.15" cy="407.27" r="1.5" fill="#ffffff" opacity="0.9" />
  <circle cx="341.82" cy="412.12" r="1.5" fill="#ffffff" opacity="0.9" />
  <circle cx="341.82" cy="418.18" r="1.5" fill="#ffffff" opacity="0.9" />
  <circle cx="340.61" cy="418.18" r="1.5" fill="#ffffff" opacity="0.9" />
  <circle cx="338.18" cy="414.55" r="1.5" fill="#ffffff" opacity="0.9" />
  <circle cx="335.76" cy="416.97" r="1.5" fill="#ffffff" opacity="0.9" />
  <circle cx="336.97" cy="418.18" r="1.5" fill="#ffffff" opacity="0.9" />
  <circle cx="335.76" cy="420.61" r="1.5" fill="#ffffff" opacity="0.9" />
  <circle cx="334.55" cy="419.39" r="1.5" fill="#ffffff" opacity="0.9" />
  <circle cx="334.55" cy="418.18" r="1.5" fill="#ffffff" opacity="0.9" />
  <circle cx="332.12" cy="419.39" r="1.5" fill="#ffffff" opacity="0.9" />
  <circle cx="333.33" cy="423.03" r="1.5" fill="#ffffff" opacity="0.9" />
  <circle cx="336.97" cy="425.45" r="1.5" fill="#ffffff" opacity="0.9" />
  <circle cx="339.39" cy="425.45" r="1.5" fill="#ffffff" opacity="0.9" />
  <circle cx="341.82" cy="423.03" r="1.5" fill="#ffffff" opacity="0.9" />
  <circle cx="341.82" cy="427.88" r="1.5" fill="#ffffff" opacity="0.9" />
  <circle cx="344.24" cy="430.30" r="1.5" fill="#ffffff" opacity="0.9" />
  <circle cx="340.61" cy="429.09" r="1.5" fill="#ffffff" opacity="0.9" />
  <circle cx="338.18" cy="427.88" r="1.5" fill="#ffffff" opacity="0.9" />
  <circle cx="338.18" cy="430.30" r="1.5" fill="#ffffff" opacity="0.9" />
  <circle cx="335.76" cy="430.30" r="1.5" fill="#ffffff" opacity="0.9" />
  <circle cx="333.33" cy="431.52" r="1.5" fill="#ffffff" opacity="0.9" />
  <circle cx="332.12" cy="432.73" r="1.5" fill="#ffffff" opacity="0.9" />
  <circle cx="328.48" cy="433.94" r="1.5" fill="#ffffff" opacity="0.9" />
  <circle cx="327.27" cy="435.15" r="1.5" fill="#ffffff" opacity="0.9" />
  <circle cx="330.91" cy="438.79" r="1.5" fill="#ffffff" opacity="0.9" />
  <circle cx="330.91" cy="441.21" r="1.5" fill="#ffffff" opacity="0.9" />
  <circle cx="329.70" cy="443.64" r="1.5" fill="#ffffff" opacity="0.9" />
  <circle cx="328.48" cy="444.85" r="1.5" fill="#ffffff" opacity="0.9" />
  <circle cx="329.70" cy="447.27" r="1.5" fill="#ffffff" opacity="0.9" />
  <circle cx="328.48" cy="450.91" r="1.5" fill="#ffffff" opacity="0.9" />
  <circle cx="335.76" cy="452.12" r="1.5" fill="#ffffff" opacity="0.9" />
  <circle cx="335.76" cy="446.06" r="1.5" fill="#ffffff" opacity="0.9" />
  <circle cx="340.61" cy="441.21" r="1.5" fill="#ffffff" opacity="0.9" />
  <circle cx="340.61" cy="446.06" r="1.5" fill="#ffffff" opacity="0.9" />
  <circle cx="341.82" cy="447.27" r="1.5" fill="#ffffff" opacity="0.9" />
  <circle cx="341.82" cy="444.85" r="1.5" fill="#ffffff" opacity="0.9" />
  <circle cx="350.30" cy="444.85" r="1.5" fill="#ffffff" opacity="0.9" />
  <circle cx="350.30" cy="446.06" r="1.5" fill="#ffffff" opacity="0.9" />
  <circle cx="346.67" cy="448.48" r="1.5" fill="#ffffff" opacity="0.9" />
  <circle cx="349.09" cy="450.91" r="1.5" fill="#ffffff" opacity="0.9" />
  <circle cx="347.88" cy="455.76" r="1.5" fill="#ffffff" opacity="0.9" />
  <circle cx="347.88" cy="458.18" r="1.5" fill="#ffffff" opacity="0.9" />
  <circle cx="340.61" cy="459.39" r="1.5" fill="#ffffff" opacity="0.9" />
  <circle cx="335.76" cy="459.39" r="1.5" fill="#ffffff" opacity="0.9" />
  <circle cx="328.48" cy="456.97" r="1.5" fill="#ffffff" opacity="0.9" />
  <circle cx="326.06" cy="461.82" r="1.5" fill="#ffffff" opacity="0.9" />
  <circle cx="323.64" cy="463.03" r="1.5" fill="#ffffff" opacity="0.9" />
  <circle cx="322.42" cy="465.45" r="1.5" fill="#ffffff" opacity="0.9" />
  <circle cx="321.21" cy="465.45" r="1.5" fill="#ffffff" opacity="0.9" />
  <circle cx="318.79" cy="467.88" r="1.5" fill="#ffffff" opacity="0.9" />
  <circle cx="318.79" cy="469.09" r="1.5" fill="#ffffff" opacity="0.9" />
  <circle cx="321.21" cy="470.30" r="1.5" fill="#ffffff" opacity="0.9" />
  <circle cx="320.00" cy="471.52" r="1.5" fill="#ffffff" opacity="0.9" />
  <circle cx="321.21" cy="472.73" r="1.5" fill="#ffffff" opacity="0.9" />
  <circle cx="324.85" cy="472.73" r="1.5" fill="#ffffff" opacity="0.9" />
  <circle cx="327.27" cy="471.52" r="1.5" fill="#ffffff" opacity="0.9" />
  <circle cx="326.06" cy="470.30" r="1.5" fill="#ffffff" opacity="0.9" />
  <circle cx="327.27" cy="469.09" r="1.5" fill="#ffffff" opacity="0.9" />
  <circle cx="326.06" cy="467.88" r="1.5" fill="#ffffff" opacity="0.9" />
  <circle cx="324.85" cy="466.67" r="1.5" fill="#ffffff" opacity="0.9" />
  <circle cx="327.27" cy="464.24" r="1.5" fill="#ffffff" opacity="0.9" />
  <circle cx="328.48" cy="465.45" r="1.5" fill="#ffffff" opacity="0.9" />
  <circle cx="330.91" cy="469.09" r="1.5" fill="#ffffff" opacity="0.9" />
  <circle cx="330.91" cy="470.30" r="1.5" fill="#ffffff" opacity="0.9" />
  <circle cx="330.91" cy="472.73" r="1.5" fill="#ffffff" opacity="0.9" />
  <circle cx="329.70" cy="473.94" r="1.5" fill="#ffffff" opacity="0.9" />
  <circle cx="328.48" cy="477.58" r="1.5" fill="#ffffff" opacity="0.9" />
  <circle cx="318.79" cy="481.21" r="1.5" fill="#ffffff" opacity="0.9" />
  <circle cx="307.88" cy="481.21" r="1.5" fill="#ffffff" opacity="0.9" />
  <circle cx="309.09" cy="477.58" r="1.5" fill="#ffffff" opacity="0.9" />
  <circle cx="306.67" cy="476.36" r="1.5" fill="#ffffff" opacity="0.9" />
  <circle cx="305.45" cy="473.94" r="1.5" fill="#ffffff" opacity="0.9" />
  <circle cx="307.88" cy="473.94" r="1.5" fill="#ffffff" opacity="0.9" />
  <circle cx="306.67" cy="471.52" r="1.5" fill="#ffffff" opacity="0.9" />
  <circle cx="309.09" cy="469.09" r="1.5" fill="#ffffff" opacity="0.9" />
  <circle cx="309.09" cy="470.30" r="1.5" fill="#ffffff" opacity="0.9" />
  <circle cx="310.30" cy="472.73" r="1.5" fill="#ffffff" opacity="0.9" />
  <circle cx="312.73" cy="473.94" r="1.5" fill="#ffffff" opacity="0.9" />
  <circle cx="313.94" cy="472.73" r="1.5" fill="#ffffff" opacity="0.9" />
</svg>